<svg width="71" height="67" viewBox="0 0 71 67" fill="none" xmlns="http://www.w3.org/2000/svg">
<path fill-rule="evenodd" clip-rule="evenodd" d="M40.5677 66.0165C21.8696 69.4219 3.93742 57.0268 0.527801 38.3416C-1.01974 29.854 0.867359 21.0992 5.77406 14.0028C10.6808 6.90635 18.2052 2.04943 26.6926 0.500242C30.6632 -0.225048 34.7379 -0.161091 38.6838 0.688457C42.6298 1.53801 46.3697 3.15651 49.6901 5.45154C53.0105 7.74657 55.8463 10.6732 58.0356 14.0642C60.2248 17.4553 61.7247 21.2444 62.4495 25.2151L69.8732 23.6426C70.7322 28.3493 70.6555 33.179 69.6476 37.856C68.6396 42.533 66.7201 46.9656 63.9987 50.9006C61.2773 54.8355 57.8073 58.1958 53.7869 60.7895C49.7666 63.3831 45.2746 65.1593 40.5677 66.0165ZM10.5329 37.5241C10.9901 37.7652 11.4913 37.9116 12.0065 37.9543C12.5606 38.0048 13.1193 37.97 13.6629 37.8511C14.2212 37.7424 14.7615 37.5556 15.2677 37.2961C15.6511 37.0984 16.0005 36.8406 16.3024 36.5324C16.535 36.2953 16.7133 36.0105 16.8251 35.6977C16.916 35.4547 16.9398 35.1916 16.8939 34.9362C16.8631 34.7858 16.8102 34.6409 16.7369 34.506C16.6753 34.3852 16.5913 34.2772 16.4895 34.1876C16.3906 34.4137 16.2703 34.6298 16.1303 34.833C15.9782 35.0578 15.8015 35.2649 15.6032 35.4504C15.3966 35.6473 15.1669 35.8185 14.9192 35.9602C14.6595 36.1089 14.3777 36.2149 14.0845 36.2743C13.4047 36.4205 12.8583 36.3302 12.4389 36.0075C12.0194 35.6848 11.7354 35.1621 11.5784 34.435L11.5743 34.4153L11.5743 34.4153L11.5742 34.415L11.5742 34.4149C11.5538 34.3172 11.5318 34.2117 11.5117 34.093C11.4885 33.9678 11.4727 33.8414 11.4644 33.7144C11.5844 33.7029 11.7037 33.6842 11.8215 33.6584L12.1592 33.5853C12.9114 33.4345 13.6366 33.1713 14.3104 32.8044C14.8983 32.4899 15.4309 32.0816 15.8872 31.5954C16.2844 31.1733 16.5905 30.6739 16.7864 30.1283C16.9659 29.6345 17.0046 29.1005 16.8982 28.586C16.8492 28.273 16.7259 27.9763 16.5388 27.7208C16.3517 27.4652 16.1061 27.258 15.8227 27.1167C15.2504 26.8327 14.519 26.7876 13.6306 26.9747C12.393 27.2248 11.2647 27.8559 10.4038 28.7796C10.0109 29.2024 9.67795 29.6772 9.4143 30.1907C9.15453 30.6896 8.95245 31.2165 8.81197 31.7611C8.6764 32.2844 8.59992 32.8212 8.58394 33.3616C8.56411 33.863 8.60528 34.3651 8.70656 34.8566C8.81486 35.4446 9.04734 36.0027 9.38848 36.4937C9.68644 36.9199 10.0779 37.2723 10.5329 37.5241ZM11.4472 31.2039C11.5027 30.7451 11.6051 30.2931 11.7526 29.8551C11.8759 29.4772 12.0613 29.1224 12.3012 28.8054C12.4935 28.5411 12.7745 28.3548 13.0928 28.2805C13.2218 28.2468 13.3572 28.2452 13.4869 28.276C13.6167 28.3067 13.7369 28.3688 13.8371 28.4569C14.069 28.6841 14.2201 28.9811 14.2674 29.3023C14.3515 29.6729 14.3434 30.0585 14.2437 30.4252C14.141 30.7806 13.9635 31.1099 13.7231 31.3911C13.4637 31.695 13.15 31.9482 12.7981 32.1375C12.4076 32.3517 11.987 32.5054 11.5504 32.5936L11.3891 32.628C11.3671 32.1525 11.3866 31.676 11.4472 31.2039ZM27.2175 37.393C27.5349 37.6536 27.7974 37.9746 27.9898 38.3374C28.2281 38.7813 28.3985 39.2584 28.4953 39.7529C28.5943 40.245 28.6433 40.7459 28.6416 41.2479C28.6439 41.8064 28.5935 42.3639 28.491 42.9129C28.3878 43.4855 28.2271 44.0462 28.0113 44.5866C27.796 45.1261 27.5064 45.633 27.1508 46.0924C26.7957 46.5553 26.3695 46.959 25.8881 47.2884C25.067 47.8301 24.1031 48.1147 23.1195 48.1059C22.8225 48.0994 22.5282 48.0487 22.2461 47.9553V49.8204V50.0764C22.2461 50.1063 22.2456 50.1359 22.2452 50.1651C22.2442 50.2219 22.2433 50.2769 22.2461 50.3281C22.2474 50.3513 22.2479 50.3739 22.2484 50.3957C22.2496 50.4465 22.2507 50.4926 22.2612 50.5303C22.2763 50.584 22.2763 50.6271 22.2763 50.6507C22.3012 50.791 22.3492 50.9262 22.4182 51.0509C22.4662 51.1392 22.5417 51.2095 22.6334 51.2509C22.7372 51.2918 22.8493 51.3073 22.9603 51.2961C23.0873 51.2896 23.4357 51.2273 23.4357 51.2273V52.0339L19.469 52.8944V41.0242V40.7661C19.469 40.7362 19.4695 40.7065 19.47 40.6774C19.4709 40.6205 19.4718 40.5656 19.469 40.5144C19.4671 40.481 19.4641 40.4492 19.4612 40.4193L19.4612 40.4192L19.4612 40.4192L19.4612 40.4191L19.4612 40.419L19.4611 40.4189L19.4611 40.4188C19.4574 40.3797 19.4539 40.3438 19.4539 40.3122C19.451 40.2718 19.4459 40.2316 19.4389 40.1917C19.4135 40.0515 19.3656 39.9164 19.2969 39.7916C19.2491 39.7026 19.1735 39.6316 19.0818 39.5894C18.9779 39.5487 18.8658 39.5332 18.7548 39.5442C18.6013 39.556 18.4489 39.579 18.2987 39.613L17.918 39.7012V38.6515L21.9729 37.791L22.0913 40.3724C22.2232 39.9379 22.3666 39.532 22.5215 39.1548C22.6664 38.7947 22.8573 38.4549 23.0894 38.1438C23.3125 37.8483 23.5864 37.5948 23.8983 37.3952C24.2564 37.1733 24.6524 37.0194 25.0663 36.9413C25.4467 36.8549 25.8409 36.849 26.2237 36.9241C26.5876 36.999 26.9283 37.1598 27.2175 37.393ZM25.6386 44.2983C25.7389 43.8645 25.8057 43.4237 25.8386 42.9796H25.8451C25.8765 42.5415 25.8801 42.1017 25.8558 41.6631C25.8364 41.2671 25.7875 40.873 25.7095 40.4843C25.6547 40.2344 25.5829 39.9886 25.4944 39.7486C25.4203 39.5344 25.3207 39.33 25.1976 39.1398C25.095 38.979 24.9566 38.8443 24.7931 38.7461C24.6325 38.6623 24.4476 38.6372 24.2704 38.6751C23.6982 38.7612 22.2354 40.1831 22.2354 43.0979V46.6065C22.3394 46.6575 22.4465 46.702 22.5559 46.7399C22.6665 46.7868 22.782 46.8214 22.9001 46.8432C23.0334 46.869 23.1687 46.8834 23.3045 46.8862C23.449 46.8921 23.5937 46.8791 23.7348 46.8475C24.0652 46.7779 24.3685 46.6143 24.6081 46.3763C24.8685 46.1156 25.0811 45.8113 25.2363 45.4771C25.4136 45.1003 25.5485 44.7049 25.6386 44.2983ZM55.1677 39.7572C55.0253 39.8628 54.8616 39.9363 54.6879 39.9723C54.5971 39.9937 54.5026 39.9931 54.4121 39.9707C54.3215 39.9482 54.2376 39.9045 54.1674 39.8432C53.988 39.6664 53.8729 39.4347 53.8404 39.185C53.8106 39.033 53.7912 38.8792 53.7823 38.7246C53.7694 38.5418 53.7586 38.3482 53.7522 38.1481C53.7478 38.0133 53.7493 37.8835 53.7508 37.7592V37.7589C53.7515 37.6987 53.7522 37.6398 53.7522 37.5823V37.1521V31.0212C53.0511 31.119 52.397 31.4299 51.8785 31.9118C51.8785 31.9118 51.5343 31.8193 51.317 31.7871C50.8385 31.7179 50.3543 31.6963 49.8715 31.7225C49.6182 31.7334 49.3663 31.7658 49.1185 31.8193C48.521 31.9392 47.9516 32.1714 47.4406 32.5034C46.9602 32.8211 46.5314 33.2107 46.1693 33.6586C45.8069 34.1078 45.5086 34.6052 45.283 35.1364C44.8292 36.1935 44.5929 37.3312 44.5882 38.4815C44.5837 39.0081 44.6342 39.5337 44.7387 40.0497C44.8315 40.5087 44.9841 40.9535 45.1926 41.3727C45.3714 41.7418 45.6172 42.0744 45.9176 42.3537C46.1978 42.6079 46.5338 42.7928 46.8985 42.8936C47.2972 42.997 47.715 43.0022 48.1161 42.9087C48.523 42.8301 48.9141 42.6848 49.2734 42.4784C49.586 42.2871 49.8639 42.0442 50.0952 41.7599C50.6408 41.0741 51.0266 40.2753 51.2245 39.4216C51.2245 39.4216 51.2611 39.8949 51.2805 40.082C51.2998 40.2692 51.3321 40.4649 51.373 40.6607C51.4044 40.8751 51.4874 41.0787 51.6147 41.2541C51.7421 41.4294 51.9101 41.5713 52.1044 41.6674C52.5495 41.8552 53.0446 41.8893 53.5112 41.7642C53.8249 41.701 54.1298 41.5999 54.419 41.4631C54.6797 41.3397 54.9282 41.192 55.1612 41.0221C55.3718 40.8707 55.5704 40.7031 55.7549 40.5208C55.927 40.3466 56.0798 40.181 56.211 40.0282L55.6452 39.3635L55.6094 39.3939C55.4408 39.5371 55.3024 39.6546 55.1677 39.7572ZM50.9234 36.4852C50.923 37.0158 50.8726 37.5452 50.7728 38.0664C50.6827 38.5631 50.5451 39.0501 50.3619 39.5205C50.2132 39.9213 50.0043 40.297 49.7424 40.6349C49.5538 40.8965 49.2812 41.0856 48.9701 41.1705C48.828 41.2025 48.6802 41.1988 48.5399 41.1597C48.3904 41.1127 48.257 41.0247 48.1548 40.9059C48.0164 40.7431 47.9046 40.5594 47.8235 40.3617C47.7043 40.0747 47.6149 39.7763 47.5568 39.4711C47.4789 39.0843 47.4286 38.6926 47.4062 38.2987C47.3762 37.8525 47.3762 37.4047 47.4062 36.9585C47.4379 36.5037 47.5048 36.052 47.6063 35.6076C47.6993 35.1876 47.8385 34.7793 48.0214 34.39C48.1802 34.044 48.3986 33.7287 48.6668 33.4585C48.9244 33.2068 49.2494 33.035 49.6026 32.9638C49.8367 32.913 50.0783 32.9072 50.3146 32.9465C50.5345 32.9792 50.7389 33.0791 50.8997 33.2327L50.9234 36.4852ZM31.2775 33.8457C31.1265 33.7773 30.9938 33.6741 30.8903 33.5446C30.776 33.4047 30.697 33.2395 30.6601 33.0627C30.6042 32.8221 30.6042 32.5719 30.6601 32.3313C30.7101 32.128 30.8049 31.9383 30.9376 31.7763C31.0755 31.6112 31.2462 31.4764 31.4388 31.3805C31.8183 31.1872 32.2392 31.0897 32.665 31.0965C32.8425 31.0998 33.0178 31.1371 33.1813 31.2062C33.3374 31.2742 33.4758 31.3773 33.5857 31.5074C33.705 31.6544 33.7856 31.8289 33.8202 32.0151C33.8764 32.2476 33.8764 32.4903 33.8202 32.7228C33.7627 32.9294 33.6598 33.1204 33.519 33.2821C33.3756 33.4448 33.2035 33.5797 33.0113 33.6801C32.8088 33.7888 32.5914 33.8671 32.366 33.9124C32.1738 33.954 31.9774 33.972 31.7809 33.9662C31.6067 33.9599 31.4356 33.9189 31.2775 33.8457ZM17.0847 45.1136C16.9289 44.8491 16.7288 44.6134 16.4932 44.4166C16.2317 44.206 15.942 44.0329 15.6327 43.9025C15.2582 43.7485 14.8709 43.6276 14.4754 43.5411C14.0774 43.455 13.7332 43.3733 13.4385 43.298C13.1831 43.2369 12.9345 43.1504 12.6963 43.0398C12.5165 42.9582 12.3559 42.8394 12.2252 42.6913C12.1058 42.5411 12.0253 42.3638 11.9907 42.1751C11.9509 41.9995 11.9509 41.8172 11.9907 41.6416C12.0301 41.4658 12.1072 41.3007 12.2166 41.1576C12.3364 41.0044 12.482 40.8734 12.6468 40.7703C12.84 40.6525 13.0528 40.5701 13.275 40.5273C13.5116 40.4683 13.7608 40.4856 13.987 40.5767C14.1992 40.6695 14.3875 40.8093 14.5377 40.9855C14.7012 41.1784 14.8326 41.3963 14.9271 41.6308C15.0271 41.8696 15.1042 42.1174 15.1573 42.3708C15.705 42.2834 16.2195 42.0518 16.648 41.6997C16.8126 41.5504 16.932 41.358 16.9929 41.1443C17.0537 40.9307 17.0535 40.7042 16.9922 40.4907C16.9444 40.2593 16.836 40.0448 16.6782 39.869C16.4886 39.6623 16.2472 39.51 15.979 39.428C15.6119 39.3147 15.2295 39.2588 14.8454 39.2624C14.3015 39.2677 13.7598 39.3318 13.2298 39.4538C12.6334 39.5708 12.0548 39.7654 11.5089 40.0325C11.0605 40.2506 10.6547 40.5471 10.3107 40.908C10.0115 41.2248 9.79051 41.6071 9.66531 42.0245C9.54937 42.4456 9.5383 42.8888 9.63305 43.3152C9.69886 43.653 9.8257 43.9759 10.0073 44.2682C10.1805 44.5361 10.3988 44.772 10.6527 44.9651C10.9243 45.1679 11.2225 45.3322 11.539 45.4535C11.8966 45.5942 12.264 45.7085 12.6382 45.7955C13.0384 45.8945 13.3847 45.9862 13.6773 46.0709C13.9339 46.1423 14.1831 46.2381 14.4216 46.357C14.6059 46.4496 14.7686 46.5801 14.8991 46.7399C15.0201 46.8988 15.1026 47.0836 15.1401 47.2798C15.1875 47.4804 15.1857 47.6894 15.1348 47.8891C15.0838 48.0888 14.9853 48.2731 14.8475 48.4264C14.7053 48.5889 14.5338 48.7231 14.342 48.8222C14.1255 48.9365 13.8936 49.0191 13.6536 49.0674C13.3723 49.142 13.0759 49.1383 12.7965 49.0568C12.5171 48.9753 12.2653 48.8191 12.0682 48.6049C11.864 48.3878 11.6995 48.1367 11.582 47.8628C11.448 47.5619 11.3471 47.2475 11.2808 46.9249C11.0345 46.9756 10.7953 47.0565 10.5688 47.1658C10.3533 47.2668 10.1574 47.4052 9.99014 47.5745C9.83054 47.741 9.71131 47.9419 9.64165 48.1618C9.56947 48.4149 9.56354 48.6823 9.62444 48.9384C9.68427 49.2473 9.83393 49.5316 10.0547 49.7558C10.2923 49.9866 10.5813 50.1577 10.8979 50.2549C11.2838 50.3732 11.6862 50.4291 12.0897 50.4205C12.5868 50.4167 13.0822 50.3605 13.5676 50.2527C14.2304 50.1193 14.8737 49.9024 15.4821 49.6074C15.9678 49.3754 16.4056 49.0543 16.7728 48.6609C17.0852 48.3187 17.3071 47.9039 17.4182 47.4541C17.5237 46.9845 17.5237 46.4974 17.4182 46.0278C17.3558 45.7074 17.2432 45.3989 17.0847 45.1136ZM29.4958 32.8346L29.941 33.594C29.7743 33.7958 29.5868 33.9797 29.3817 34.1425C29.162 34.3231 28.9215 34.477 28.6654 34.6007C28.3753 34.7408 28.0689 34.8442 27.7533 34.9084C27.0391 35.0589 26.4561 35.0073 26.0044 34.7492C25.7749 34.6105 25.5788 34.4229 25.4301 34.1998C25.2814 33.9767 25.1837 33.7236 25.1439 33.4585C25.0141 32.7006 24.9586 31.9318 24.9783 31.1632L24.9675 29.6165V29.1475C24.9675 29.0866 24.9678 29.025 24.968 28.9627V28.9624V28.9622C24.9685 28.8352 24.969 28.705 24.9675 28.571C24.9654 28.3709 24.9568 28.173 24.9439 27.9751C24.9333 27.7989 24.911 27.6235 24.8772 27.4502C24.8496 27.3272 24.8129 27.2064 24.7675 27.0888C24.7234 26.9712 24.6594 26.862 24.5782 26.7661C24.4997 26.6751 24.3999 26.6049 24.2878 26.5618C24.1538 26.513 24.008 26.5069 23.8704 26.5446C23.647 26.6035 23.4444 26.7234 23.2853 26.8909C22.982 27.1727 21.8591 28.5344 21.8591 31.3309V35.971L19.0625 36.5626V28.771C19.0625 28.7443 19.0637 28.7166 19.0649 28.6884V28.6884V28.6884C19.0673 28.6305 19.0698 28.5707 19.0625 28.5129C19.0574 28.4718 19.0577 28.4311 19.0579 28.3912V28.3912V28.3912V28.3912V28.3911V28.3911V28.3911V28.3911V28.3911V28.3911V28.391V28.391C19.0582 28.3475 19.0585 28.3048 19.0518 28.2634C19.0389 28.1838 19.0389 28.1171 19.0389 28.0612C19.0354 28.02 19.0297 27.9791 19.0217 27.9385C18.9979 27.7982 18.9507 27.663 18.8818 27.5384C18.8334 27.4504 18.758 27.3803 18.6667 27.3384C18.5628 27.2977 18.4508 27.2822 18.3397 27.2932C18.1863 27.3038 18.0338 27.3261 17.8837 27.3599L17.5029 27.4459V26.3983L21.7515 25.5012L21.8569 27.5685C21.8569 27.5685 22.5324 25.7164 24.0382 24.9592C24.389 24.7893 24.7598 24.6643 25.1418 24.587C25.4791 24.5043 25.8298 24.4919 26.1722 24.5504C26.4457 24.6001 26.7037 24.7136 26.9251 24.8817C27.1342 25.0469 27.3051 25.2553 27.4263 25.4926C27.5572 25.7434 27.652 26.0114 27.7081 26.2886C27.7426 26.4584 27.767 26.6301 27.7813 26.8027C27.7985 26.9877 27.8135 27.177 27.8135 27.3663V27.9364V28.4806V30.5737C27.8114 30.9244 27.8178 31.2643 27.8307 31.5697C27.8442 31.8668 27.8809 32.1625 27.9405 32.4539C27.9891 32.6896 28.1129 32.9032 28.2933 33.0626C28.3657 33.1237 28.452 33.1662 28.5445 33.1865C28.6371 33.2067 28.7332 33.2041 28.8246 33.1788C29.007 33.1436 29.18 33.0703 29.3323 32.9637L29.4958 32.8346ZM35.0518 44.0121C34.898 44.1187 34.7236 44.192 34.5398 44.2272C34.4493 44.2513 34.3542 44.2531 34.2629 44.2325C34.1715 44.2119 34.0864 44.1695 34.0149 44.1089C33.8526 43.9484 33.7476 43.7391 33.7159 43.513C33.6584 43.2295 33.6238 42.9417 33.6127 42.6525C33.5998 42.3471 33.5933 42.0072 33.5955 41.6587L33.6105 35.2891L29.1963 36.227V37.2746L29.5771 37.1886C29.7272 37.1545 29.8796 37.1315 30.0331 37.1197C30.1441 37.1085 30.2562 37.124 30.3601 37.1649C30.4517 37.2074 30.5271 37.2783 30.5752 37.3671C30.6435 37.4919 30.6908 37.6271 30.715 37.7672C30.7221 37.8064 30.7272 37.8459 30.7301 37.8855C30.7301 37.9436 30.7301 38.0103 30.7451 38.0899C30.7551 38.1423 30.7519 38.1956 30.7486 38.2517C30.7469 38.2808 30.7451 38.3107 30.7451 38.3416V38.5997V42.2395V42.2396C30.7451 42.7386 30.7451 43.1775 30.7839 43.5603C30.8072 43.8881 30.8496 44.2142 30.9108 44.537C30.951 44.802 31.0489 45.055 31.1976 45.278C31.3462 45.501 31.5421 45.6887 31.7713 45.8277C32.223 46.0837 32.8081 46.1375 33.5223 45.9847C33.8371 45.9225 34.1423 45.819 34.4301 45.6771C34.6845 45.5523 34.9241 45.3993 35.1443 45.2211C35.3466 45.0572 35.5306 44.8718 35.6929 44.6682C35.8395 44.4851 35.9739 44.2925 36.0951 44.0917L35.5165 43.5539C35.3744 43.7191 35.219 43.8723 35.0518 44.0121ZM40.4961 34.3747C41.7675 32.4967 44.0477 32.6323 44.5834 34.1596C44.6548 34.4279 44.6701 34.7081 44.6285 34.9827C44.5869 35.2572 44.4892 35.5202 44.3414 35.7554C44.1937 35.9905 43.9991 36.1926 43.7698 36.3493C43.5405 36.5059 43.2814 36.6136 43.0087 36.6657C43.0087 36.6657 42.7656 34.7705 41.718 35.0115C40.3821 35.3169 39.8443 38.0231 39.8056 41.1122L39.7755 44.5025L36.979 45.0983V37.2315C36.9781 37.1873 36.9752 37.1384 36.9721 37.0846L36.9721 37.0844V37.0844V37.0843V37.0842C36.9672 37.0018 36.9617 36.9078 36.9617 36.8012C36.9563 36.6451 36.9376 36.4896 36.9058 36.3366C36.895 36.2391 36.8587 36.1462 36.8006 36.0673C36.7424 35.9883 36.6644 35.9262 36.5745 35.887C36.318 35.8135 36.0459 35.8135 35.7893 35.887L35.415 35.973V34.9276L39.5991 34.0434L39.6765 36.7087C39.7176 35.8677 40.0023 35.0568 40.4961 34.3747ZM61.3075 38.1159C61.1529 38.2715 60.9868 38.4154 60.8106 38.5461C60.6573 38.6536 60.4827 38.7269 60.2986 38.7612C60.2085 38.7858 60.1137 38.7879 60.0225 38.7673C59.9314 38.7467 59.8467 38.704 59.7759 38.6429C59.6132 38.4824 59.5075 38.2732 59.4747 38.047C59.418 37.7634 59.3841 37.4756 59.3736 37.1865C59.3607 36.8811 59.3543 36.5412 59.3543 36.1905V25.8713L54.9229 26.8136V27.859L55.3531 27.7536C55.5041 27.7209 55.6572 27.6986 55.8113 27.6869C55.9243 27.675 56.0385 27.6898 56.1447 27.73C56.2351 27.7732 56.3101 27.843 56.3598 27.93C56.4286 28.0553 56.4759 28.1913 56.4997 28.3323C56.5079 28.3728 56.5136 28.4137 56.5169 28.4549C56.5169 28.5087 56.5169 28.5775 56.5298 28.655C56.5383 28.7062 56.5356 28.7611 56.5327 28.818V28.8181V28.8182V28.8183V28.8184V28.8185V28.8186V28.8187C56.5313 28.8476 56.5298 28.877 56.5298 28.9067V29.1669V36.7972C56.5102 37.5666 56.5657 38.336 56.6954 39.0946C56.7356 39.3596 56.8335 39.6126 56.9822 39.8356C57.1309 40.0587 57.3267 40.2463 57.5559 40.3853C58.0076 40.6435 58.5906 40.6951 59.3048 40.5445C59.6207 40.4812 59.9272 40.3778 60.2169 40.2369C60.4715 40.1105 60.7117 39.9569 60.9332 39.7787C61.1326 39.6138 61.3149 39.4293 61.4775 39.228C61.6232 39.0447 61.7569 38.8521 61.8776 38.6515L61.3075 38.1159ZM30.3036 52.8854C30.2785 52.848 30.2448 52.8171 30.2054 52.7954C30.0961 53.0337 29.9309 53.2421 29.7238 53.4028C29.5166 53.5635 29.2737 53.6717 29.0158 53.7183C28.1682 53.8925 27.6497 53.5333 27.4626 52.6427C27.3003 51.899 27.3533 51.1244 27.6153 50.4098C27.8778 49.6848 28.3037 49.2589 28.8931 49.1363C29.3793 49.0352 29.674 49.3127 29.8095 49.958C29.9939 49.9284 30.1629 49.8374 30.2892 49.6999C30.3414 49.6396 30.3784 49.5678 30.3971 49.4903C30.4158 49.4128 30.4157 49.332 30.3968 49.2546C30.372 49.1345 30.3148 49.0234 30.2314 48.9336C30.148 48.8437 30.0415 48.7784 29.9235 48.7448C29.5901 48.6515 29.2374 48.6515 28.9039 48.7448C28.4999 48.824 28.1193 48.9941 27.791 49.2424C27.4626 49.4906 27.1951 49.8104 27.0087 50.1774C26.5837 50.947 26.4581 51.8464 26.6559 52.7029C26.6944 52.9655 26.7872 53.2172 26.9283 53.4421C27.0694 53.6669 27.2558 53.8598 27.4755 54.0087C27.9501 54.2768 28.5115 54.3464 29.0373 54.2023C29.4259 54.1422 29.7882 53.9686 30.0784 53.7032C30.1789 53.6204 30.2566 53.5133 30.304 53.3921C30.3514 53.2709 30.3671 53.1395 30.3495 53.0105C30.3444 52.9658 30.3287 52.9229 30.3036 52.8854ZM32.7802 49.2631C32.9616 49.2146 33.151 49.2049 33.3364 49.2346C33.5217 49.2642 33.6987 49.3326 33.8558 49.4352C34.1812 49.685 34.3953 50.0528 34.4517 50.4592C34.589 51.0818 34.5133 51.7326 34.2366 52.307C34.1144 52.5874 33.9254 52.8335 33.6862 53.024C33.4469 53.2145 33.1647 53.3435 32.8641 53.3998C32.6799 53.4504 32.4868 53.4606 32.2983 53.4297C32.1097 53.3989 31.93 53.3278 31.7713 53.2213C31.4506 52.9736 31.2385 52.6112 31.1798 52.2102C31.0399 51.5856 31.1157 50.932 31.3949 50.3559C31.5197 50.075 31.7111 49.8286 31.9524 49.6382C32.1938 49.4478 32.4779 49.3191 32.7802 49.2631ZM32.8641 53.0341C33.2578 52.9524 33.5224 52.6512 33.6601 52.1349C33.7963 51.6016 33.8044 51.0436 33.6837 50.5065C33.5439 49.8439 33.2406 49.56 32.7759 49.6589C32.3866 49.7407 32.1306 50.0397 31.98 50.5603C31.8377 51.0954 31.8266 51.657 31.9477 52.1973C32.0854 52.8577 32.3909 53.1331 32.8727 53.0341H32.8641ZM37.8074 52.2857L38.4893 52.1437C38.456 51.8997 38.4359 51.6541 38.4291 51.408C38.3925 51.0165 38.3925 50.7519 38.3925 50.6163V50.0785C38.4315 49.6925 38.5471 49.3181 38.7324 48.9771C38.9282 48.6093 39.1626 48.3963 39.3928 48.349C39.623 48.3017 39.7628 48.42 39.823 48.7018C39.8532 48.994 39.8626 49.2881 39.851 49.5816V50.1667C39.8411 50.5008 39.8635 50.8351 39.9177 51.1649C39.948 51.3573 40.0512 51.5307 40.206 51.6489C40.2797 51.7001 40.3635 51.7349 40.4519 51.7509C40.5402 51.7668 40.6309 51.7636 40.7179 51.7414C41.0442 51.6479 41.3251 51.4383 41.5074 51.152L41.3332 50.9691C41.2185 51.0963 41.0688 51.1868 40.9029 51.2294C40.7373 51.2638 40.6319 51.167 40.5824 50.939C40.5338 50.6853 40.5114 50.4272 40.5157 50.1689V49.2826C40.5294 49.011 40.5172 48.7387 40.4791 48.4695C40.3673 47.9403 40.0253 47.7359 39.5455 47.837C39.0658 47.9381 38.698 48.3512 38.4463 49.0761L38.3753 49.0912C38.3724 49.0326 38.3652 48.9744 38.3538 48.9169C38.2419 48.3877 37.902 48.1834 37.4202 48.2845C36.9383 48.3856 36.5705 48.7986 36.3209 49.5235L36.2499 49.5386V48.5964L34.9248 48.876V49.188L34.9807 49.1772C35.3142 49.1062 35.5056 49.1966 35.553 49.4117C35.5724 49.5203 35.5811 49.6305 35.5788 49.7408V52.7525L36.2456 52.6126V50.7002C36.2574 50.289 36.3626 49.8859 36.5532 49.5214C36.7576 49.0998 36.9942 48.861 37.2588 48.8051C37.4783 48.7577 37.6181 48.876 37.6762 49.1578C37.7132 49.386 37.7254 49.6176 37.7127 49.8484V50.6228C37.7106 50.8229 37.7213 51.124 37.7407 51.5241C37.7478 51.7791 37.7701 52.0334 37.8074 52.2857ZM43.3453 52.604V52.9159L41.9987 53.1999V48.4673C42.0028 48.3373 41.997 48.2071 41.9815 48.0779C41.9341 47.8521 41.7448 47.7725 41.4114 47.8435L41.3555 47.8542V47.5423L42.6247 47.2734L42.6548 48.2651H42.6892C42.8914 47.5107 43.2564 47.0805 43.7841 46.9744C43.9141 46.941 44.0504 46.9408 44.1805 46.9739C44.3106 47.007 44.4302 47.0723 44.5285 47.1637C44.7615 47.4167 44.9117 47.735 44.9587 48.0758C45.0931 48.7319 45.0178 49.4137 44.7436 50.0248C44.6379 50.3217 44.4578 50.5866 44.2205 50.7941C43.9832 51.0016 43.6967 51.1448 43.3883 51.2101C43.1465 51.2687 42.8936 51.2628 42.6548 51.1928C42.6548 51.2784 42.6591 51.3521 42.6628 51.4146C42.666 51.4686 42.6687 51.5143 42.6677 51.5521V52.0103C42.66 52.1475 42.6657 52.2851 42.6849 52.4212C42.7301 52.6363 42.9215 52.718 43.255 52.6492L43.3453 52.604ZM42.6827 50.7303C42.7696 50.7973 42.8701 50.8443 42.9772 50.8681C43.0843 50.8919 43.1952 50.8918 43.3023 50.868C43.7003 50.7841 43.9842 50.4528 44.1498 49.8742C44.3142 49.3307 44.3415 48.755 44.2294 48.1984C44.1133 47.642 43.9046 47.3946 43.6035 47.4562C43.3561 47.5079 43.1431 47.7337 42.9581 48.1296C42.7848 48.4981 42.691 48.8991 42.6827 49.3063V50.7303ZM48.1617 48.9706H48.2069C48.2033 49.1611 48.2199 49.3515 48.2564 49.5385C48.3403 49.9365 48.5683 50.0935 48.9405 50.0161C49.3146 49.9178 49.6412 49.6889 49.8612 49.3707L49.6891 49.1879C49.5567 49.3252 49.3917 49.4266 49.2094 49.4826C49.0545 49.5148 48.9512 49.4094 48.8996 49.1685C48.8517 48.8995 48.8308 48.6264 48.8372 48.3532V45.9568L48.607 46.0041L48.3317 46.2536C48.0505 46.129 47.7363 46.0996 47.4368 46.1698C47.1345 46.2367 46.8536 46.378 46.6196 46.5809C46.3856 46.7837 46.2058 47.0416 46.0966 47.3314C45.8092 47.9416 45.7285 48.6288 45.8664 49.289C45.9176 49.6315 46.073 49.95 46.3117 50.2011C46.4099 50.2956 46.5305 50.3638 46.6621 50.3992C46.7938 50.4345 46.9323 50.4359 47.0646 50.4033C47.6153 50.2871 47.981 49.8095 48.1617 48.9706ZM47.8684 46.4833C47.9731 46.5087 48.0692 46.5616 48.1467 46.6366L48.1574 47.9574C48.1613 48.3936 48.0672 48.8251 47.8821 49.2201C47.6863 49.6288 47.4755 49.8569 47.2367 49.9063C46.9356 49.9687 46.7291 49.7256 46.6129 49.1728C46.4972 48.613 46.5238 48.0331 46.6903 47.4863C46.8553 46.9098 47.1421 46.5785 47.5508 46.4924C47.654 46.4611 47.7636 46.458 47.8684 46.4833ZM50.9429 49.5212L50.276 49.661V46.6494C50.2784 46.5391 50.2697 46.4288 50.2502 46.3202C50.2029 46.1051 50.0114 46.0148 49.678 46.0858L49.6221 46.0965V45.7846L50.9472 45.5049V46.4472L51.016 46.4321C51.267 45.7064 51.6341 45.2934 52.1174 45.193C52.628 45.0855 52.9392 45.2963 53.051 45.8255C53.088 46.0948 53.0995 46.3671 53.0855 46.6386V47.5249C53.0797 47.7832 53.1014 48.0413 53.15 48.295C53.1973 48.5231 53.3049 48.6199 53.4727 48.5854C53.6386 48.5428 53.7882 48.4523 53.9029 48.3251L54.0772 48.508C53.8925 48.7921 53.6126 49.0011 53.2877 49.0974C53.2004 49.1198 53.1093 49.1231 53.0205 49.1071C52.9318 49.0912 52.8476 49.0563 52.7736 49.0049C52.6194 48.8864 52.5169 48.7131 52.4874 48.5209C52.4333 48.1911 52.411 47.8568 52.4208 47.5228V46.7483C52.4335 46.5175 52.4212 46.286 52.3842 46.0578C52.324 45.776 52.1863 45.6577 51.9669 45.705C51.7001 45.7609 51.4656 45.9976 51.2634 46.4149C51.0689 46.784 50.9593 47.1919 50.9429 47.6088V49.5212ZM53.935 45.2855C54.0382 45.3449 54.1202 45.4352 54.1695 45.5436L55.7872 48.5166C55.3139 49.5204 54.7352 50.0941 54.0512 50.2375C53.8628 50.2799 53.669 50.2922 53.4768 50.2741L53.4424 50.6591C53.6754 50.7019 53.9146 50.6975 54.1458 50.6462C54.7083 50.5547 55.2162 50.2562 55.5699 49.8094C55.8868 49.3849 56.2568 48.5832 56.6799 47.4044C57.103 46.2256 57.2543 45.3493 57.1338 44.7757C57.0492 44.3741 56.8448 44.2077 56.5207 44.2766C56.4587 44.2897 56.4 44.3156 56.3485 44.3526C56.297 44.3897 56.2538 44.437 56.2217 44.4917C56.1848 44.5535 56.1607 44.6221 56.1507 44.6934C56.1407 44.7647 56.1451 44.8373 56.1636 44.9069C56.3938 44.8574 56.5401 44.9628 56.5939 45.221C56.7201 45.8262 56.5638 46.6866 56.1249 47.8024H56.1055C55.9469 47.3777 55.7564 46.9656 55.5355 46.5697L54.5696 44.7541L53.5241 44.9693V45.2833L53.5973 45.2661C53.7088 45.2338 53.8279 45.2406 53.935 45.2855Z" fill="white"/>
</svg>
