<svg width="454" height="147" fill="none" xmlns="http://www.w3.org/2000/svg"><path d="M230 50a3 3 0 0 1 3-3h218a3 3 0 0 1 3 3v46a3 3 0 0 1-3 3H233a3 3 0 0 1-3-3V50z" fill="#262D33"/><path d="M287.523 77.75V79h-7.114V67.364h7.023v1.25h-5.614v3.931h5.023v1.25h-5.023v3.955h5.705zm8.562-4.227V79h-1.363v-5.704c0-.66-.144-1.131-.432-1.415-.284-.284-.671-.427-1.159-.427-.341 0-.665.097-.972.29a2.15 2.15 0 0 0-.744.813c-.19.348-.284.761-.284 1.239V79h-1.341v-8.727h1.341v1.477h.091c.083-.25.233-.496.448-.739a2.71 2.71 0 0 1 .796-.608 2.2 2.2 0 0 1 1.028-.244c.546 0 1.008.153 1.387.46.382.307.67.677.863 1.108h.091c.084-.242.243-.483.477-.721.239-.243.533-.444.881-.603a2.742 2.742 0 0 1 1.165-.244c.485 0 .926.114 1.324.341.401.224.72.568.954 1.034.239.462.358 1.05.358 1.761V79h-1.341v-5.75c0-.454-.092-.813-.278-1.074a1.523 1.523 0 0 0-.67-.557 1.953 1.953 0 0 0-.756-.165c-.591 0-1.049.192-1.375.574-.326.383-.489.881-.489 1.495zm8.02-4.5c-.295 0-.528-.09-.699-.267a.916.916 0 0 1 0-1.267c.171-.19.404-.285.699-.285.296 0 .529.095.699.285.17.189.256.397.256.625 0 .25-.086.464-.256.642s-.403.267-.699.267zm.682 1.25V79h-1.341v-8.727h1.341zm8.479 1.954l-1.205.341a4.128 4.128 0 0 0-.256-.494c-.113-.2-.295-.38-.545-.54-.246-.159-.593-.239-1.04-.239-.534 0-.979.127-1.335.381-.352.25-.528.563-.528.938 0 .295.121.566.363.812.243.243.614.426 1.114.551l1.295.319c.796.193 1.37.5 1.722.92.352.417.528.875.528 1.375 0 .447-.127.867-.38 1.261-.254.394-.627.714-1.12.96-.492.247-1.098.37-1.818.37-.697 0-1.276-.108-1.739-.324-.462-.216-.831-.493-1.108-.83a3.967 3.967 0 0 1-.63-1.05l1.227-.455c.159.398.407.748.744 1.05.341.3.836.45 1.483.45.625 0 1.11-.14 1.455-.42.348-.281.523-.603.523-.967 0-.575-.417-.962-1.25-1.159l-1.455-.363c-.795-.205-1.377-.527-1.744-.966-.368-.444-.551-.932-.551-1.466 0-.493.138-.928.414-1.307a2.828 2.828 0 0 1 1.142-.892c.485-.216 1.035-.324 1.648-.324.807 0 1.459.186 1.955.557.5.371.863.875 1.091 1.511zm2.652-3.204c-.296 0-.529-.09-.699-.267a.913.913 0 0 1 0-1.267c.17-.19.403-.285.699-.285.295 0 .528.095.698.285a.913.913 0 0 1 0 1.267c-.17.178-.403.267-.698.267zm.681 1.25V79h-1.34v-8.727h1.34zm6.002 8.909c-.788 0-1.479-.188-2.074-.563-.591-.375-1.053-.9-1.386-1.573-.33-.675-.495-1.463-.495-2.364 0-.91.165-1.703.495-2.38.333-.679.795-1.205 1.386-1.58.595-.375 1.286-.563 2.074-.563.788 0 1.477.188 2.068.563.595.375 1.057.901 1.386 1.58.334.677.5 1.47.5 2.38 0 .901-.166 1.69-.5 2.364a3.763 3.763 0 0 1-1.386 1.573c-.591.375-1.28.563-2.068.563zm0-1.205c.598 0 1.091-.153 1.477-.46.386-.307.672-.71.858-1.21.186-.5.278-1.042.278-1.625 0-.584-.092-1.127-.278-1.63a2.755 2.755 0 0 0-.858-1.223c-.386-.31-.879-.465-1.477-.465-.599 0-1.091.155-1.477.465a2.74 2.74 0 0 0-.858 1.222 4.672 4.672 0 0 0-.279 1.63c0 .584.093 1.126.279 1.626.185.5.471.903.858 1.21.386.307.878.46 1.477.46zm7.342-4.136V79h-1.341v-8.727h1.341v1.477h.091c.205-.443.523-.818.955-1.125.431-.31.977-.466 1.636-.466.818 0 1.492.27 2.023.813.53.541.795 1.369.795 2.483V79h-1.341v-5.454c0-.637-.18-1.145-.54-1.523-.356-.38-.812-.569-1.369-.569a2.323 2.323 0 0 0-1.898 1.04c-.234.353-.352.802-.352 1.347zm13.979-1.614l-1.205.341a4.249 4.249 0 0 0-.255-.494c-.114-.2-.296-.38-.546-.54-.246-.159-.593-.239-1.04-.239-.534 0-.979.127-1.335.381-.352.25-.528.563-.528.938 0 .295.121.566.363.812.243.243.614.426 1.114.551l1.296.319c.795.193 1.369.5 1.721.92.352.417.529.875.529 1.375 0 .447-.127.867-.381 1.261-.254.394-.627.714-1.119.96-.493.247-1.099.37-1.819.37-.697 0-1.276-.108-1.738-.324-.462-.216-.832-.493-1.108-.83a3.945 3.945 0 0 1-.631-1.05l1.227-.455c.159.398.408.748.745 1.05.341.3.835.45 1.483.45.625 0 1.109-.14 1.454-.42.349-.281.523-.603.523-.967 0-.575-.417-.962-1.25-1.159l-1.455-.363c-.795-.205-1.377-.527-1.744-.966-.367-.444-.551-.932-.551-1.466 0-.493.138-.928.415-1.307.28-.379.661-.676 1.142-.892.485-.216 1.034-.324 1.647-.324.807 0 1.459.186 1.955.557.5.371.864.875 1.091 1.511z" fill="#fff"/><path d="M255.051 61.22c0-1.217-1.568-1.675-2.259-.667-6.336 9.258 2.668 9.675 2.668 14.175a3.273 3.273 0 0 1-3.317 3.273c-1.8-.023-3.231-1.523-3.231-3.321v-4.373c0-1.11-1.355-1.648-2.12-.844-1.37 1.438-2.792 3.902-2.792 6.902 0 5.414 4.407 9.819 9.823 9.819 5.417 0 9.824-4.405 9.824-9.82 0-8.708-8.596-9.87-8.596-15.144z" fill="#00FFC2"/><path d="M257.098 119.364v-5.728a1.637 1.637 0 0 1 3.274 0v5.728h-3.274zm5.73.818h-18.009a.819.819 0 0 0-.819.819v1.636c0 .452.366.818.819.818h.818v1.637c0 3.958 2.813 7.26 6.549 8.019v5.073h3.274v-5.073c3.737-.759 6.549-4.061 6.549-8.019v-1.637h.819a.819.819 0 0 0 .819-.818v-1.636a.82.82 0 0 0-.819-.819zm-12.279-.818v-5.728a1.637 1.637 0 0 0-3.275 0v5.728h3.275zM267.325 26.125h-.675V21.48c0-.546-.215-1.07-.595-1.457l-4.214-4.292a2.008 2.008 0 0 0-1.431-.606h-1.86v-2.063c0-1.138-.907-2.062-2.025-2.062h-13.5c-1.118 0-2.025.924-2.025 2.063v13.75c0 1.138.907 2.062 2.025 2.062h.675c0 2.277 1.814 4.125 4.05 4.125 2.236 0 4.05-1.848 4.05-4.125h5.4c0 2.277 1.814 4.125 4.05 4.125 2.236 0 4.05-1.848 4.05-4.125h2.025c.371 0 .675-.31.675-.688v-1.375a.684.684 0 0 0-.675-.687zm-19.575 4.813c-1.118 0-2.025-.924-2.025-2.063 0-1.139.907-2.063 2.025-2.063 1.118 0 2.025.924 2.025 2.063 0 1.139-.907 2.063-2.025 2.063zm13.5 0c-1.118 0-2.025-.924-2.025-2.063 0-1.139.907-2.063 2.025-2.063 1.118 0 2.025.924 2.025 2.063 0 1.139-.907 2.063-2.025 2.063zM264.625 22h-6.075v-4.813h1.86l4.215 4.293V22z" fill="#000"/><rect x="3" y="47" width="207" height="52" rx="3" fill="#262D33"/><path d="M179 71l5 5 5-5h-10z" fill="#00FFC2"/><path d="M18.886 79H17.41l4.273-11.636h1.454L27.41 79h-1.477l-1.097-3.114h-4.852L18.886 79zm3.455-9.796l-1.915 5.432h3.966l-1.915-5.431h-.136zm8.04-1.84V79H29.04V67.364h1.34zm3.61 0V79h-1.342V67.364h1.341zm10.5 11.818c-.787 0-1.479-.188-2.073-.563-.591-.375-1.053-.9-1.387-1.573-.33-.675-.494-1.463-.494-2.364 0-.91.165-1.703.494-2.38.334-.679.796-1.205 1.387-1.58.594-.375 1.286-.563 2.074-.563.787 0 1.477.188 2.068.563.594.375 1.056.901 1.386 1.58.333.677.5 1.47.5 2.38 0 .901-.167 1.69-.5 2.364a3.769 3.769 0 0 1-1.386 1.573c-.591.375-1.28.563-2.069.563zm0-1.205c.599 0 1.091-.153 1.478-.46.386-.307.672-.71.858-1.21.185-.5.278-1.042.278-1.625 0-.584-.093-1.127-.278-1.63a2.75 2.75 0 0 0-.858-1.223c-.387-.31-.879-.465-1.477-.465-.599 0-1.091.155-1.478.465a2.75 2.75 0 0 0-.858 1.222 4.681 4.681 0 0 0-.278 1.63c0 .584.093 1.126.278 1.626.186.5.472.903.858 1.21.387.307.879.46 1.477.46zM51.085 79v-7.477h-1.41v-1.25h1.41v-.819c0-.5.117-.916.352-1.25.235-.333.54-.583.915-.75.375-.166.77-.25 1.187-.25.33 0 .599.027.807.08.209.053.364.102.466.148l-.386 1.159a6.685 6.685 0 0 0-.284-.085 1.722 1.722 0 0 0-.466-.052c-.444 0-.764.112-.96.336-.194.223-.29.55-.29.983v.5h1.954v1.25h-1.954V79h-1.341zm10.189-11.636l2.431 9.477h.114l2.478-9.477h1.59l2.478 9.477h.113l2.432-9.477h1.432L71.159 79h-1.455l-2.568-9.273h-.09L64.477 79h-1.454L59.84 67.364h1.432zm17.52 11.818c-.841 0-1.567-.186-2.177-.557a3.737 3.737 0 0 1-1.403-1.568c-.326-.674-.489-1.459-.489-2.353 0-.893.163-1.681.49-2.363.329-.686.787-1.22 1.374-1.602.591-.387 1.28-.58 2.068-.58.455 0 .904.076 1.347.227.443.152.846.398 1.21.739.364.337.654.786.87 1.347.215.556.323 1.24.323 2.05v.569h-6.324c.069.943.34 1.66.813 2.153.473.489 1.106.733 1.898.733.534 0 .988-.113 1.363-.34.375-.228.648-.569.818-1.023l1.296.363c-.205.66-.614 1.192-1.227 1.597-.614.405-1.364.608-2.25.608zm-.137-7.818c-.67 0-1.235.223-1.693.67-.458.447-.742 1.08-.852 1.898h4.932c0-.739-.216-1.35-.648-1.835-.432-.489-1.011-.733-1.739-.733zm7.162-4V79h-1.34V67.364h1.34zm3.61 0V79h-1.341V67.364h1.34zm3.115 1.659c-.296 0-.529-.09-.7-.267a.915.915 0 0 1 0-1.267c.171-.19.404-.285.7-.285.295 0 .528.095.698.285a.915.915 0 0 1 0 1.267c-.17.178-.403.267-.698.267zm.681 1.25V79h-1.34v-8.727h1.34zm3.797 3.568V79h-1.34v-8.727h1.34v1.477h.091c.205-.443.523-.818.955-1.125.432-.31.977-.466 1.636-.466.818 0 1.493.27 2.023.813.53.541.795 1.369.795 2.483V79h-1.341v-5.454c0-.637-.18-1.145-.539-1.523-.356-.38-.813-.569-1.37-.569a2.319 2.319 0 0 0-1.897 1.04c-.235.353-.353.802-.353 1.347zm13.909-3.568h1.296v8.795c0 .75-.178 1.36-.534 1.83a3.08 3.08 0 0 1-1.404 1.04 5.178 5.178 0 0 1-1.88.335c-.932 0-1.684-.176-2.256-.529-.572-.348-.994-.755-1.267-1.221l1.068-.75c.114.144.265.318.455.523.193.204.449.384.767.54.322.154.733.232 1.233.232.447 0 .86-.078 1.238-.233.379-.151.682-.386.909-.704.228-.315.338-.714.33-1.2v-1.545h-.114c-.098.16-.238.356-.42.591-.178.231-.436.438-.773.62-.333.178-.784.267-1.352.267-.705 0-1.337-.167-1.898-.5-.557-.334-.998-.819-1.324-1.455-.322-.636-.483-1.409-.483-2.318 0-.894.158-1.672.472-2.335.314-.667.752-1.182 1.312-1.546.561-.367 1.209-.55 1.944-.55.568 0 1.019.094 1.352.283.337.186.595.398.773.636.181.235.322.429.42.58h.136v-1.386zm-5.068 4.295c0 .91.214 1.652.642 2.228.428.575 1.063.863 1.904.863.806 0 1.424-.273 1.852-.818.432-.55.648-1.307.648-2.273 0-.943-.212-1.712-.637-2.307-.424-.598-1.045-.897-1.863-.897-.569 0-1.042.144-1.421.431a2.625 2.625 0 0 0-.846 1.16 4.473 4.473 0 0 0-.279 1.613zm12.477-4.295v1.25h-1.863V76.5c0 .379.055.663.165.852a.85.85 0 0 0 .431.375c.178.06.366.091.563.091.148 0 .269-.007.364-.022l.227-.046.273 1.204a2.733 2.733 0 0 1-.381.103 2.8 2.8 0 0 1-.619.057 2.7 2.7 0 0 1-1.114-.245 2.215 2.215 0 0 1-.898-.744c-.235-.333-.352-.754-.352-1.261v-5.341h-1.318v-1.25h1.318v-1.864h1.341v1.864h1.863zm5.465 8.909c-.788 0-1.479-.188-2.074-.563-.591-.375-1.053-.9-1.386-1.573-.33-.675-.495-1.463-.495-2.364 0-.91.165-1.703.495-2.38.333-.679.795-1.205 1.386-1.58.595-.375 1.286-.563 2.074-.563.788 0 1.477.188 2.068.563.595.375 1.057.901 1.387 1.58.333.677.5 1.47.5 2.38 0 .901-.167 1.69-.5 2.364-.33.674-.792 1.198-1.387 1.573-.591.375-1.28.563-2.068.563zm0-1.205c.598 0 1.091-.153 1.477-.46.387-.307.673-.71.858-1.21.186-.5.279-1.042.279-1.625 0-.584-.093-1.127-.279-1.63a2.74 2.74 0 0 0-.858-1.223c-.386-.31-.879-.465-1.477-.465-.599 0-1.091.155-1.477.465a2.74 2.74 0 0 0-.858 1.222 4.672 4.672 0 0 0-.279 1.63c0 .584.093 1.126.279 1.626.185.5.471.903.858 1.21.386.307.878.46 1.477.46zm7.342-4.136V79h-1.341v-8.727h1.341v1.477h.091c.205-.443.523-.818.955-1.125.432-.31.977-.466 1.636-.466.818 0 1.493.27 2.023.813.53.541.795 1.369.795 2.483V79h-1.341v-5.454c0-.637-.18-1.145-.539-1.523-.356-.38-.813-.569-1.37-.569-.333 0-.674.086-1.022.256-.345.17-.637.432-.875.784-.235.353-.353.802-.353 1.347z" fill="#fff"/><path d="M287.523 26.75V28h-7.114V16.364h7.023v1.25h-5.614v3.931h5.023v1.25h-5.023v3.955h5.705zm3.608-3.91V28h-1.341v-8.727h1.341v1.477h.091c.204-.443.522-.818.954-1.125.432-.31.977-.466 1.636-.466.819 0 1.493.27 2.023.813.531.541.796 1.369.796 2.482V28h-1.341v-5.454c0-.637-.18-1.145-.54-1.523-.356-.38-.812-.569-1.369-.569-.334 0-.675.086-1.023.256a2.27 2.27 0 0 0-.875.784c-.235.353-.352.802-.352 1.347zm11.568 5.342c-.841 0-1.566-.186-2.176-.557a3.742 3.742 0 0 1-1.404-1.568c-.325-.674-.488-1.458-.488-2.352 0-.894.163-1.682.488-2.364.33-.686.788-1.22 1.375-1.602.591-.387 1.281-.58 2.068-.58.455 0 .904.076 1.347.227.443.152.847.398 1.21.739.364.337.654.786.87 1.347.216.556.323 1.24.323 2.05v.569h-6.323c.068.943.339 1.66.812 2.153.474.489 1.106.733 1.898.733.534 0 .989-.113 1.363-.34.376-.228.648-.569.819-1.023l1.295.363c-.204.66-.614 1.192-1.227 1.597-.614.405-1.364.608-2.25.608zm-.137-7.818c-.67 0-1.234.223-1.693.67-.458.447-.742 1.08-.852 1.898h4.932c0-.739-.216-1.35-.648-1.835-.432-.489-1.011-.733-1.739-.733zm10.64-.91l-.455 1.25a2.45 2.45 0 0 0-.284-.113 1.317 1.317 0 0 0-.466-.068c-.477 0-.884.13-1.221.392a2.577 2.577 0 0 0-.773.977c-.178.39-.271.782-.279 1.176V28h-1.34v-8.727h1.34v1.5h.091c.084-.28.235-.546.455-.796a2.68 2.68 0 0 1 .795-.608 2.162 2.162 0 0 1 1.625-.13c.205.064.375.136.512.215zm7.01-.181h1.295v8.795c0 .75-.178 1.36-.534 1.83-.356.473-.824.82-1.403 1.04a5.187 5.187 0 0 1-1.881.335c-.932 0-1.684-.176-2.256-.529-.572-.348-.994-.755-1.267-1.221l1.068-.75c.114.144.266.318.455.523.193.204.449.384.767.54.322.155.733.232 1.233.232.447 0 .86-.078 1.239-.233.378-.151.681-.386.909-.704.227-.315.337-.714.329-1.2v-1.545h-.113a7.34 7.34 0 0 1-.421.591c-.178.231-.436.438-.773.62-.333.178-.784.267-1.352.267-.704 0-1.337-.167-1.898-.5-.556-.334-.998-.819-1.323-1.455-.322-.636-.483-1.409-.483-2.318 0-.894.157-1.672.471-2.335.315-.667.752-1.182 1.313-1.546.56-.367 1.208-.55 1.943-.55.568 0 1.019.094 1.352.283.337.186.595.398.773.636.182.235.322.429.42.58h.137v-1.386zm-5.069 4.295c0 .91.214 1.652.643 2.227.428.576 1.062.864 1.903.864.807 0 1.424-.273 1.852-.818.432-.55.648-1.307.648-2.273 0-.943-.212-1.712-.636-2.307-.425-.598-1.046-.897-1.864-.897-.568 0-1.042.144-1.421.431a2.625 2.625 0 0 0-.846 1.16 4.473 4.473 0 0 0-.279 1.613zm11.069 5.296l.306-.807-3.238-8.784h1.454l2.404 6.954h.096l2.409-6.954h1.455l-3.75 10.136c-.492 1.318-1.348 1.977-2.568 1.977-.227 0-.43-.019-.608-.056a1.593 1.593 0 0 1-.369-.103l.34-1.181c.319.075.601.102.847.079.25-.023.474-.13.671-.324.2-.193.384-.505.551-.937zM341.141 28h-3.591V16.364h3.75c1.129 0 2.094.233 2.897.698.803.463 1.419 1.127 1.847 1.995.428.864.642 1.898.642 3.102 0 1.212-.216 2.256-.648 3.13a4.608 4.608 0 0 1-1.886 2.012c-.826.466-1.83.699-3.011.699zm.068-10.386h-2.25v9.136h2.091c1.443 0 2.515-.41 3.216-1.227.704-.822 1.056-1.944 1.056-3.364 0-1.409-.344-2.519-1.034-3.33-.689-.81-1.716-1.215-3.079-1.215zm11.318 10.568c-.841 0-1.566-.186-2.176-.557a3.742 3.742 0 0 1-1.404-1.568c-.325-.674-.488-1.458-.488-2.352 0-.894.163-1.682.488-2.364.33-.686.788-1.22 1.375-1.602.591-.387 1.281-.58 2.069-.58.454 0 .903.076 1.346.227.443.152.847.398 1.21.739.364.337.654.786.87 1.347.216.556.324 1.24.324 2.05v.569h-6.324c.068.943.339 1.66.812 2.153.474.489 1.106.733 1.898.733.534 0 .989-.113 1.364-.34.375-.228.647-.569.818-1.023l1.295.363c-.204.66-.613 1.192-1.227 1.597-.614.405-1.364.608-2.25.608zm-.136-7.818c-.671 0-1.235.223-1.694.67-.458.447-.742 1.08-.852 1.898h4.932c0-.739-.216-1.35-.648-1.835-.432-.489-1.011-.733-1.738-.733zm12.116 2.159V28h-1.364v-5.704c0-.66-.143-1.131-.431-1.415-.284-.284-.671-.427-1.159-.427-.341 0-.665.097-.972.29a2.15 2.15 0 0 0-.744.813c-.19.348-.284.761-.284 1.239V28h-1.341v-8.727h1.341v1.477h.09a2.15 2.15 0 0 1 .449-.739 2.71 2.71 0 0 1 .796-.608 2.2 2.2 0 0 1 1.028-.244c.546 0 1.008.154 1.387.46.382.307.67.677.863 1.108h.091c.083-.242.243-.483.477-.721.239-.243.533-.444.881-.603a2.742 2.742 0 0 1 1.165-.244c.485 0 .926.114 1.324.341.401.224.719.568.954 1.034.239.462.358 1.05.358 1.762V28h-1.341v-5.75c0-.454-.093-.813-.278-1.074a1.52 1.52 0 0 0-.671-.557 1.945 1.945 0 0 0-.755-.165c-.591 0-1.05.192-1.375.574-.326.383-.489.881-.489 1.495zM377.095 28v-1.182h-.068c-.091.19-.242.392-.455.608-.212.216-.494.4-.846.551-.352.152-.782.227-1.29.227a3.548 3.548 0 0 1-1.506-.312 2.585 2.585 0 0 1-1.073-.915c-.266-.401-.398-.886-.398-1.454 0-.493.098-.896.295-1.21.197-.315.459-.561.784-.74.326-.177.69-.312 1.091-.402a13.2 13.2 0 0 1 1.216-.216 26.54 26.54 0 0 1 1.114-.125c.341-.03.615-.084.824-.16.208-.075.312-.208.312-.397v-.023c0-.727-.172-1.227-.517-1.5-.345-.273-.778-.41-1.301-.41-.648 0-1.155.141-1.523.421-.367.28-.625.58-.772.898l-1.273-.454c.227-.53.53-.944.909-1.24.382-.298.799-.507 1.25-.624a5.184 5.184 0 0 1 1.341-.182c.28 0 .602.034.966.102.367.065.721.2 1.062.404.345.204.631.513.858.926.227.413.341.966.341 1.659V28h-1.341zm0-3.16v-1.226c-.057.068-.182.13-.375.187a6.29 6.29 0 0 1-.659.142 29.629 29.629 0 0 1-1.284.17c-.348.046-.674.12-.977.222-.3.099-.542.248-.728.45-.181.196-.272.465-.272.806 0 .466.172.818.517 1.057.348.235.79.352 1.324.352.53 0 .977-.104 1.341-.313a2.131 2.131 0 0 0 1.113-1.846zm5.129-2V28h-1.34v-8.727h1.34v1.477h.091c.205-.443.523-.818.955-1.125.432-.31.977-.466 1.636-.466.818 0 1.493.27 2.023.813.53.541.795 1.369.795 2.482V28h-1.34v-5.454c0-.637-.18-1.145-.54-1.523-.356-.38-.813-.569-1.37-.569-.333 0-.674.086-1.022.256-.345.17-.637.432-.875.784-.235.353-.353.802-.353 1.347zM397.429 28h-1.295v-1.34h-.137c-.098.158-.24.359-.426.601-.186.239-.449.453-.79.642-.341.186-.791.279-1.352.279-.727 0-1.369-.184-1.926-.551-.557-.372-.993-.894-1.307-1.569-.314-.678-.472-1.479-.472-2.403 0-.917.158-1.712.472-2.386.314-.674.752-1.195 1.313-1.563.56-.367 1.208-.55 1.943-.55.568 0 1.019.094 1.352.283.337.186.595.398.773.636.182.235.322.429.42.58h.091v-4.295h1.341V28zm-6.364-4.364c0 .622.095 1.186.284 1.694.194.503.478.905.853 1.204.378.296.848.443 1.409.443.807 0 1.424-.308 1.852-.926.432-.621.648-1.426.648-2.415 0-.977-.212-1.767-.637-2.369-.424-.602-1.045-.903-1.863-.903-.568 0-1.042.145-1.421.437-.375.288-.657.68-.846 1.176a4.666 4.666 0 0 0-.279 1.66zM287.523 129.75V131h-7.114v-11.636h7.023v1.25h-5.614v3.931h5.023v1.25h-5.023v3.955h5.705zm3.608-10.386V131h-1.341v-11.636h1.341zm6.115 11.818c-.841 0-1.567-.186-2.176-.557a3.744 3.744 0 0 1-1.404-1.568c-.326-.674-.488-1.459-.488-2.352 0-.894.162-1.682.488-2.364.33-.686.788-1.22 1.375-1.602.591-.387 1.28-.58 2.068-.58.455 0 .904.076 1.347.227.443.152.847.398 1.21.739.364.337.654.786.87 1.347.215.556.323 1.24.323 2.051v.568h-6.323c.068.943.339 1.661.812 2.153.473.489 1.106.733 1.898.733.534 0 .988-.113 1.363-.341.375-.227.648-.568.819-1.022l1.295.363c-.205.659-.614 1.192-1.227 1.597-.614.405-1.364.608-2.25.608zm-.137-7.818c-.67 0-1.234.223-1.693.67-.458.447-.742 1.08-.852 1.898h4.932c0-.739-.216-1.351-.648-1.835-.432-.489-1.011-.733-1.739-.733zm12.799 1.522h-1.341c-.103-.397-.33-.75-.682-1.056-.349-.311-.818-.466-1.409-.466-.784 0-1.417.299-1.898.897-.477.595-.716 1.387-.716 2.375 0 1.012.237 1.822.71 2.432.474.606 1.108.909 1.904.909.523 0 .97-.134 1.341-.403a1.93 1.93 0 0 0 .75-1.119h1.341a3.114 3.114 0 0 1-.563 1.392 3.142 3.142 0 0 1-1.176.977c-.485.238-1.049.358-1.693.358-.811 0-1.512-.191-2.102-.574-.591-.386-1.048-.921-1.37-1.602-.322-.686-.483-1.476-.483-2.37 0-.871.163-1.644.489-2.318a3.877 3.877 0 0 1 1.375-1.585c.591-.383 1.28-.574 2.068-.574.614 0 1.167.114 1.659.341.493.227.896.545 1.21.955.315.409.51.886.586 1.431zm5.744-2.613v1.25h-1.864v4.977c0 .379.055.663.165.852a.853.853 0 0 0 .432.375c.178.061.365.091.562.091.148 0 .269-.007.364-.023l.227-.045.273 1.205a2.74 2.74 0 0 1-.381.102 2.785 2.785 0 0 1-.619.057 2.7 2.7 0 0 1-1.114-.245 2.214 2.214 0 0 1-.897-.744c-.235-.333-.353-.754-.353-1.261v-5.341h-1.318v-1.25h1.318v-1.864h1.341v1.864h1.864zm6.847.182l-.455 1.25a2.321 2.321 0 0 0-.284-.114 1.304 1.304 0 0 0-.466-.068c-.477 0-.884.13-1.222.392-.333.257-.59.583-.772.977-.178.39-.271.782-.279 1.176V131h-1.341v-8.727h1.341v1.5h.091c.084-.281.235-.546.455-.796a2.68 2.68 0 0 1 .795-.608c.311-.155.637-.233.977-.233.228 0 .444.034.648.103.205.064.375.136.512.216zm2.184-1.432c-.295 0-.528-.089-.699-.267a.914.914 0 0 1 0-1.267c.171-.19.404-.284.699-.284.296 0 .529.094.699.284a.91.91 0 0 1 0 1.267c-.17.178-.403.267-.699.267zm.682 1.25V131h-1.341v-8.727h1.341zm9.433 2.613h-1.341c-.102-.397-.329-.75-.681-1.056-.349-.311-.819-.466-1.41-.466-.784 0-1.416.299-1.897.897-.478.595-.716 1.387-.716 2.375 0 1.012.237 1.822.71 2.432.474.606 1.108.909 1.903.909.523 0 .97-.134 1.341-.403a1.93 1.93 0 0 0 .75-1.119h1.341a3.1 3.1 0 0 1-.562 1.392 3.158 3.158 0 0 1-1.176.977c-.485.238-1.05.358-1.694.358-.81 0-1.511-.191-2.102-.574-.591-.386-1.047-.921-1.369-1.602-.322-.686-.483-1.476-.483-2.37 0-.871.163-1.644.489-2.318a3.87 3.87 0 0 1 1.375-1.585c.59-.383 1.28-.574 2.068-.574.613 0 1.166.114 1.659.341.492.227.896.545 1.21.955.314.409.51.886.585 1.431zm2.62-3.863c-.296 0-.529-.089-.699-.267a.91.91 0 0 1 0-1.267c.17-.19.403-.284.699-.284.295 0 .528.094.698.284a.91.91 0 0 1 0 1.267c-.17.178-.403.267-.698.267zm.681 1.25V131h-1.34v-8.727h1.34zm6.115 0v1.25h-1.863v4.977c0 .379.055.663.165.852a.847.847 0 0 0 .431.375c.178.061.366.091.563.091.148 0 .269-.007.364-.023l.227-.045.273 1.205a2.74 2.74 0 0 1-.381.102 2.792 2.792 0 0 1-.619.057 2.7 2.7 0 0 1-1.114-.245 2.217 2.217 0 0 1-.898-.744c-.235-.333-.352-.754-.352-1.261v-5.341h-1.318v-1.25h1.318v-1.864h1.341v1.864h1.863zm4.279 9.591l.307-.807-3.239-8.784h1.455l2.403 6.954h.097l2.409-6.954h1.454l-3.75 10.136c-.492 1.318-1.348 1.977-2.568 1.977-.227 0-.43-.019-.608-.056a1.642 1.642 0 0 1-.369-.103l.341-1.182c.318.076.6.103.846.08.25-.023.474-.131.671-.324.201-.193.384-.506.551-.937zm14.929-.864h-3.591v-11.636h3.75c1.129 0 2.095.233 2.898.698.803.463 1.418 1.127 1.846 1.995.428.863.642 1.898.642 3.102 0 1.212-.216 2.256-.647 3.131a4.618 4.618 0 0 1-1.887 2.011c-.826.466-1.829.699-3.011.699zm.068-10.386h-2.25v9.136h2.091c1.443 0 2.515-.409 3.216-1.227.704-.822 1.057-1.943 1.057-3.364 0-1.409-.345-2.519-1.034-3.329-.69-.811-1.716-1.216-3.08-1.216zm11.318 10.568c-.841 0-1.566-.186-2.176-.557a3.736 3.736 0 0 1-1.403-1.568c-.326-.674-.489-1.459-.489-2.352 0-.894.163-1.682.489-2.364.329-.686.788-1.22 1.375-1.602.591-.387 1.28-.58 2.068-.58.454 0 .903.076 1.346.227.444.152.847.398 1.211.739.363.337.653.786.869 1.347.216.556.324 1.24.324 2.051v.568h-6.324c.068.943.339 1.661.813 2.153.473.489 1.106.733 1.897.733.534 0 .989-.113 1.364-.341.375-.227.648-.568.818-1.022l1.296.363c-.205.659-.614 1.192-1.228 1.597-.613.405-1.363.608-2.25.608zm-.136-7.818c-.671 0-1.235.223-1.693.67-.459.447-.743 1.08-.853 1.898h4.932c0-.739-.216-1.351-.647-1.835-.432-.489-1.012-.733-1.739-.733zm12.116 2.159V131h-1.363v-5.705c0-.659-.144-1.13-.432-1.414-.284-.284-.671-.426-1.159-.426-.341 0-.665.096-.972.289-.303.19-.551.461-.744.813-.189.348-.284.761-.284 1.238V131h-1.341v-8.727h1.341v1.477h.091a2.14 2.14 0 0 1 .449-.739c.219-.246.484-.449.795-.608a2.21 2.21 0 0 1 1.028-.244c.546 0 1.008.153 1.387.46.382.307.67.676.863 1.108h.091c.084-.242.243-.483.478-.721.238-.243.532-.444.88-.603a2.76 2.76 0 0 1 1.165-.244c.485 0 .926.114 1.324.341.401.223.72.568.954 1.034.239.462.358 1.049.358 1.761V131h-1.34v-5.75c0-.455-.093-.813-.279-1.074a1.526 1.526 0 0 0-.67-.557 1.948 1.948 0 0 0-.756-.164c-.591 0-1.049.191-1.375.573-.326.383-.489.881-.489 1.495zM399.376 131v-1.182h-.068c-.091.19-.242.392-.454.608-.212.216-.495.4-.847.551-.352.152-.782.228-1.29.228a3.546 3.546 0 0 1-1.505-.313 2.58 2.58 0 0 1-1.074-.915c-.265-.401-.398-.886-.398-1.454 0-.493.099-.896.296-1.211a2.09 2.09 0 0 1 .784-.738 4.182 4.182 0 0 1 1.091-.404c.401-.09.806-.162 1.215-.215.402-.053.773-.095 1.114-.125.341-.031.616-.084.824-.16.208-.075.312-.208.312-.397v-.023c0-.727-.172-1.227-.517-1.5-.344-.273-.778-.409-1.301-.409-.647 0-1.155.14-1.522.42-.368.281-.625.58-.773.898l-1.273-.454c.227-.531.53-.944.909-1.239a3.406 3.406 0 0 1 1.25-.625 5.205 5.205 0 0 1 1.341-.182c.28 0 .602.034.966.102a3.09 3.09 0 0 1 1.062.404c.345.204.631.513.858.926.228.413.341.966.341 1.659V131h-1.341zm0-3.159v-1.227c-.056.068-.181.13-.375.187a6.143 6.143 0 0 1-.659.142 27.7 27.7 0 0 1-.721.102c-.231.031-.419.053-.563.069a5.114 5.114 0 0 0-.977.221 1.684 1.684 0 0 0-.727.449c-.182.197-.273.466-.273.807 0 .466.172.818.517 1.057.348.235.79.352 1.324.352.53 0 .977-.104 1.341-.312a2.133 2.133 0 0 0 1.113-1.847zm5.13-2V131h-1.341v-8.727h1.341v1.477h.091c.204-.443.522-.818.954-1.125.432-.311.977-.466 1.637-.466.818 0 1.492.271 2.022.813.531.541.796 1.369.796 2.483V131h-1.341v-5.455c0-.636-.18-1.143-.54-1.522-.356-.379-.812-.568-1.369-.568a2.32 2.32 0 0 0-1.898 1.039c-.235.353-.352.801-.352 1.347zM419.71 131h-1.295v-1.341h-.137c-.098.159-.24.36-.426.602-.185.239-.449.453-.79.642-.34.186-.791.279-1.352.279-.727 0-1.369-.184-1.926-.551-.557-.372-.992-.894-1.307-1.569-.314-.678-.471-1.479-.471-2.403 0-.917.157-1.712.471-2.386.315-.675.752-1.195 1.313-1.563.56-.367 1.208-.551 1.943-.551.568 0 1.019.095 1.352.284.337.186.595.398.773.637.182.234.322.428.42.579h.091v-4.295h1.341V131zm-6.363-4.364c0 .622.094 1.186.284 1.694.193.503.477.905.852 1.204.379.296.848.443 1.409.443.807 0 1.424-.308 1.852-.926.432-.621.648-1.426.648-2.415 0-.977-.212-1.767-.636-2.369-.425-.602-1.046-.903-1.864-.903-.568 0-1.042.145-1.42.437-.375.288-.658.68-.847 1.176a4.671 4.671 0 0 0-.278 1.659zM18.773 16.364l2.431 9.477h.114l2.477-9.477h1.591l2.478 9.477h.113l2.432-9.477h1.432L28.659 28h-1.454l-2.569-9.273h-.09L21.977 28h-1.454L17.34 16.364h1.432zM37.86 28v-1.182h-.068a2.36 2.36 0 0 1-.455.608c-.212.216-.494.4-.846.551-.353.152-.783.227-1.29.227a3.546 3.546 0 0 1-1.506-.312 2.584 2.584 0 0 1-1.074-.915c-.265-.401-.398-.886-.398-1.454 0-.493.099-.896.296-1.21.197-.315.458-.561.784-.74a4.19 4.19 0 0 1 1.09-.402c.402-.091.808-.163 1.217-.216a26.45 26.45 0 0 1 1.113-.125c.341-.03.616-.084.824-.16.209-.075.313-.208.313-.397v-.023c0-.727-.173-1.227-.517-1.5-.345-.273-.779-.41-1.301-.41-.648 0-1.156.141-1.523.421s-.625.58-.773.898l-1.273-.454c.228-.53.53-.944.91-1.24.382-.298.799-.507 1.25-.624a5.19 5.19 0 0 1 1.34-.182c.28 0 .603.034.966.102a3.09 3.09 0 0 1 1.063.404c.344.204.63.513.858.926.227.413.34.966.34 1.659V28h-1.34zm0-3.16v-1.226c-.057.068-.182.13-.375.187-.19.053-.41.1-.66.142a29.81 29.81 0 0 1-1.283.17c-.349.046-.675.12-.978.222-.299.099-.541.248-.727.45-.182.196-.273.465-.273.806 0 .466.173.818.517 1.057.349.235.79.352 1.324.352.53 0 .977-.104 1.341-.313a2.127 2.127 0 0 0 1.114-1.846zm4.447-6.817c-.295 0-.528-.09-.699-.267a.915.915 0 0 1 0-1.267c.17-.19.404-.285.7-.285.295 0 .528.095.698.285a.915.915 0 0 1 0 1.267c-.17.178-.403.267-.699.267zm.682 1.25V28h-1.34v-8.727h1.34zm7.274.181l-.454 1.25a2.453 2.453 0 0 0-.284-.113 1.318 1.318 0 0 0-.466-.068c-.478 0-.885.13-1.222.392-.333.257-.59.583-.773.977-.178.39-.27.782-.278 1.176V28h-1.341v-8.727h1.34v1.5h.092a2.12 2.12 0 0 1 .454-.796c.224-.25.489-.452.796-.608a2.158 2.158 0 0 1 1.625-.13c.204.064.375.136.511.215zM56.861 28v-1.182h-.068a2.36 2.36 0 0 1-.455.608c-.212.216-.494.4-.846.551-.353.152-.783.227-1.29.227a3.546 3.546 0 0 1-1.506-.312 2.584 2.584 0 0 1-1.074-.915c-.265-.401-.398-.886-.398-1.454 0-.493.099-.896.296-1.21.197-.315.458-.561.784-.74a4.19 4.19 0 0 1 1.09-.402c.402-.091.808-.163 1.217-.216a26.45 26.45 0 0 1 1.113-.125c.341-.03.616-.084.824-.16.209-.075.313-.208.313-.397v-.023c0-.727-.173-1.227-.517-1.5-.345-.273-.779-.41-1.301-.41-.648 0-1.156.141-1.523.421s-.625.58-.773.898l-1.273-.454c.228-.53.53-.944.91-1.24.382-.298.799-.507 1.25-.624a5.19 5.19 0 0 1 1.34-.182c.28 0 .603.034.966.102a3.09 3.09 0 0 1 1.063.404c.344.204.63.513.858.926.227.413.34.966.34 1.659V28h-1.34zm0-3.16v-1.226c-.057.068-.182.13-.375.187-.19.053-.41.1-.66.142a29.81 29.81 0 0 1-1.283.17c-.349.046-.675.12-.978.222-.299.099-.541.248-.727.45-.182.196-.273.465-.273.806 0 .466.173.818.517 1.057.349.235.79.352 1.324.352.53 0 .977-.104 1.341-.313a2.127 2.127 0 0 0 1.114-1.846zm8.606-5.386l-.454 1.25a2.453 2.453 0 0 0-.284-.113 1.317 1.317 0 0 0-.466-.068c-.478 0-.885.13-1.222.392a2.58 2.58 0 0 0-.772.977c-.179.39-.271.782-.279 1.176V28h-1.34v-8.727h1.34v1.5h.091c.083-.28.235-.546.454-.796.224-.25.49-.452.796-.608a2.157 2.157 0 0 1 1.625-.13c.204.064.375.136.511.215zM72.064 28v-1.182h-.068a2.36 2.36 0 0 1-.455.608c-.212.216-.494.4-.846.551-.353.152-.783.227-1.29.227a3.546 3.546 0 0 1-1.506-.312 2.584 2.584 0 0 1-1.074-.915c-.265-.401-.397-.886-.397-1.454 0-.493.098-.896.295-1.21.197-.315.458-.561.784-.74.326-.177.69-.312 1.091-.402.401-.091.807-.163 1.216-.216.401-.053.773-.095 1.114-.125.34-.03.615-.084.823-.16.209-.075.313-.208.313-.397v-.023c0-.727-.172-1.227-.517-1.5-.345-.273-.778-.41-1.301-.41-.648 0-1.156.141-1.523.421s-.625.58-.773.898l-1.272-.454c.227-.53.53-.944.909-1.24.382-.298.799-.507 1.25-.624a5.191 5.191 0 0 1 1.34-.182c.28 0 .603.034.966.102a3.09 3.09 0 0 1 1.063.404c.345.204.63.513.858.926.227.413.34.966.34 1.659V28h-1.34zm0-3.16v-1.226c-.057.068-.182.13-.375.187-.19.053-.41.1-.66.142a29.81 29.81 0 0 1-1.283.17c-.349.046-.674.12-.977.222-.3.099-.542.248-.728.45-.182.196-.272.465-.272.806 0 .466.172.818.516 1.057.349.235.79.352 1.324.352.53 0 .978-.104 1.341-.313a2.127 2.127 0 0 0 1.114-1.846zm3.788 6.433v-12h1.296v1.386h.159c.098-.151.235-.345.409-.58.178-.238.432-.45.761-.636.334-.19.784-.284 1.352-.284.735 0 1.383.184 1.944.551.56.368.998.889 1.312 1.563.315.674.472 1.47.472 2.386 0 .924-.157 1.726-.472 2.404-.314.674-.75 1.197-1.307 1.568-.556.367-1.199.55-1.926.55-.56 0-1.01-.092-1.346-.278-.337-.189-.597-.403-.779-.642a8.63 8.63 0 0 1-.42-.602h-.114v4.614h-1.34zm6.364-7.637c0-.613-.095-1.166-.284-1.659-.186-.496-.468-.888-.847-1.176-.375-.291-.846-.437-1.414-.437-.819 0-1.44.3-1.864.903-.424.602-.636 1.392-.636 2.37 0 .988.213 1.793.641 2.414.432.618 1.052.926 1.859.926.56 0 1.028-.148 1.403-.443.379-.3.663-.7.852-1.204.193-.508.29-1.072.29-1.694zM90.83 28v-1.182h-.069a2.36 2.36 0 0 1-.454.608c-.212.216-.495.4-.847.551-.352.152-.782.227-1.29.227a3.545 3.545 0 0 1-1.505-.312 2.584 2.584 0 0 1-1.074-.915c-.265-.401-.398-.886-.398-1.454 0-.493.099-.896.296-1.21.197-.315.458-.561.784-.74.326-.177.69-.312 1.09-.402.402-.091.808-.163 1.216-.216.402-.053.773-.095 1.114-.125.341-.03.616-.084.824-.16.208-.075.313-.208.313-.397v-.023c0-.727-.173-1.227-.517-1.5-.345-.273-.779-.41-1.302-.41-.647 0-1.155.141-1.522.421-.368.28-.625.58-.773.898l-1.273-.454c.228-.53.53-.944.91-1.24.382-.298.799-.507 1.25-.624a5.19 5.19 0 0 1 1.34-.182c.28 0 .603.034.966.102a3.09 3.09 0 0 1 1.063.404c.344.204.63.513.858.926.227.413.34.966.34 1.659V28h-1.34zm0-3.16v-1.226c-.057.068-.182.13-.376.187-.189.053-.408.1-.658.142a29.952 29.952 0 0 1-1.285.17c-.348.046-.674.12-.977.222-.3.099-.542.248-.727.45-.182.196-.273.465-.273.806 0 .466.172.818.517 1.057.349.235.79.352 1.324.352.53 0 .977-.104 1.34-.313a2.128 2.128 0 0 0 1.114-1.846zM25.227 129.75V131H18.41v-11.636h1.41v10.386h5.408zm5.155 1.432c-.788 0-1.48-.188-2.074-.563-.59-.375-1.053-.899-1.386-1.574-.33-.674-.494-1.462-.494-2.363 0-.909.164-1.703.494-2.381.333-.678.795-1.204 1.386-1.579.595-.375 1.286-.563 2.074-.563.788 0 1.477.188 2.068.563.595.375 1.057.901 1.387 1.579.333.678.5 1.472.5 2.381 0 .901-.167 1.689-.5 2.363a3.764 3.764 0 0 1-1.387 1.574c-.59.375-1.28.563-2.068.563zm0-1.205c.599 0 1.091-.153 1.477-.46.387-.307.673-.71.858-1.21.186-.5.279-1.042.279-1.625a4.68 4.68 0 0 0-.279-1.631 2.742 2.742 0 0 0-.858-1.221c-.386-.311-.878-.466-1.477-.466-.598 0-1.09.155-1.477.466-.387.31-.672.717-.858 1.221a4.68 4.68 0 0 0-.279 1.631c0 .583.093 1.125.279 1.625.186.5.471.903.858 1.21.386.307.879.46 1.477.46zm16.916-7.704L44.64 131h-1.318l-1.91-6.705h-.135L39.366 131h-1.318l-2.659-8.727h1.41l1.886 6.682h.09l1.864-6.682h1.432l1.84 6.659h.092l1.886-6.659h1.41zm5.12 8.909c-.841 0-1.567-.186-2.176-.557a3.74 3.74 0 0 1-1.404-1.568c-.326-.674-.489-1.459-.489-2.352 0-.894.163-1.682.49-2.364.329-.686.787-1.22 1.374-1.602.591-.387 1.28-.58 2.068-.58.455 0 .904.076 1.347.227.443.152.846.398 1.21.739.364.337.654.786.87 1.347.215.556.323 1.24.323 2.051v.568h-6.324c.069.943.34 1.661.813 2.153.473.489 1.106.733 1.898.733.534 0 .988-.113 1.363-.341.375-.227.648-.568.818-1.022l1.296.363c-.205.659-.614 1.192-1.227 1.597-.614.405-1.364.608-2.25.608zm-.137-7.818c-.67 0-1.235.223-1.693.67-.458.447-.742 1.08-.852 1.898h4.932c0-.739-.216-1.351-.648-1.835-.432-.489-1.012-.733-1.739-.733zm10.64-.909l-.455 1.25a2.324 2.324 0 0 0-.284-.114 1.304 1.304 0 0 0-.466-.068c-.477 0-.885.13-1.222.392-.333.257-.59.583-.772.977a2.95 2.95 0 0 0-.279 1.176V131h-1.34v-8.727h1.34v1.5h.091c.083-.281.235-.546.455-.796a2.69 2.69 0 0 1 .795-.608c.31-.155.636-.233.977-.233.228 0 .444.034.648.103.205.064.375.136.511.216zm7.46-3.091v5.181h6.204v-5.181h1.41V131h-1.41v-5.205h-6.204V131h-1.41v-11.636h1.41zm15.752 8.181v-5.272h1.341V131h-1.34v-1.227h-.091c-.216.329-.538.636-.966.92-.424.28-.966.421-1.625.421-.424 0-.855-.116-1.29-.347-.432-.231-.796-.589-1.091-1.074-.292-.485-.438-1.11-.438-1.875v-5.545h1.341v5.545c0 .637.178 1.129.534 1.477.36.349.819.523 1.376.523.333 0 .672-.076 1.017-.227.348-.152.64-.394.875-.727.238-.334.358-.773.358-1.319zm7.457-5.272v1.25h-1.864v4.977c0 .379.055.663.165.852a.85.85 0 0 0 .431.375c.178.061.366.091.563.091.148 0 .269-.007.364-.023l.227-.045.273 1.205c-.091.034-.218.068-.381.102-.163.038-.37.057-.62.057-.378 0-.75-.082-1.113-.245a2.216 2.216 0 0 1-.898-.744c-.235-.333-.352-.754-.352-1.261v-5.341h-1.318v-1.25h1.318v-1.864h1.34v1.864h1.865zm5.687 0v1.25h-1.864v4.977c0 .379.055.663.165.852a.85.85 0 0 0 .432.375c.178.061.365.091.562.091.148 0 .27-.007.364-.023l.227-.045.273 1.205c-.09.034-.218.068-.38.102-.163.038-.37.057-.62.057-.379 0-.75-.082-1.114-.245a2.216 2.216 0 0 1-.897-.744c-.235-.333-.353-.754-.353-1.261v-5.341h-1.318v-1.25h1.318v-1.864h1.341v1.864h1.864z" fill="#000"/><path fill="url(#paint0_linear)" d="M0 2h444v41H0z"/><path transform="rotate(-180 444 144)" fill="url(#paint1_linear)" d="M444 144h444v41H444z"/><defs><linearGradient id="paint0_linear" x1="222" y1="2" x2="222" y2="43" gradientUnits="userSpaceOnUse"><stop stop-color="#fff"/><stop offset="1" stop-color="#fff" stop-opacity=".5"/></linearGradient><linearGradient id="paint1_linear" x1="666" y1="144" x2="666" y2="185" gradientUnits="userSpaceOnUse"><stop stop-color="#fff"/><stop offset="1" stop-color="#fff" stop-opacity=".5"/></linearGradient></defs></svg>