<svg width="453" height="92" fill="none" xmlns="http://www.w3.org/2000/svg"><path opacity=".3" stroke="#000" stroke-width="4" stroke-linecap="round" stroke-linejoin="round" d="M2 46h449"/><path stroke="#FF5252" stroke-width="4" stroke-linecap="round" stroke-linejoin="round" d="M225 46h-96"/><path fill-rule="evenodd" clip-rule="evenodd" d="M60 0a3 3 0 0 0-3 3v22a3 3 0 0 0 3 3h62.071l-.071.071 7.071 7.071 7.071-7.071-.071-.071H204a3 3 0 0 0 3-3V3a3 3 0 0 0-3-3H60z" fill="#FF5252"/><path d="M71.897 11.413a3.394 3.394 0 0 0-.284-.67 1.499 1.499 0 0 0-.492-.538c-.209-.139-.486-.209-.83-.209-.342 0-.658.098-.95.294-.291.192-.532.535-.72 1.029-.19.49-.297 1.183-.324 2.078.265-.298.584-.522.955-.671a3.12 3.12 0 0 1 1.188-.229c.643 0 1.193.156 1.65.467.461.312.814.72 1.06 1.223.245.504.367 1.045.367 1.621 0 .597-.13 1.149-.392 1.656-.259.504-.633.91-1.124 1.218-.49.305-1.082.457-1.775.457-1.097 0-1.942-.414-2.535-1.243-.59-.828-.885-2.025-.885-3.59v-.357c0-1.077.116-2.012.348-2.804.232-.792.601-1.405 1.108-1.84.507-.434 1.175-.65 2.004-.65.865 0 1.556.241 2.073.725.52.48.868 1.158 1.044 2.033h-1.486zm-1.636 2.392c-.57 0-1.03.175-1.377.527-.348.351-.522.798-.522 1.342.003.487.093.892.268 1.213.176.318.406.557.691.716.285.156.595.234.93.234.53 0 .956-.183 1.278-.547.321-.365.482-.859.482-1.482a2.63 2.63 0 0 0-.184-1 1.575 1.575 0 0 0-.567-.73c-.255-.182-.588-.273-1-.273zm6.549.532l-1.362-.314.596-5.205h5.494v1.407h-4.162l-.362 2.839h.054c.156-.146.385-.28.686-.403a2.582 2.582 0 0 1 1.005-.189c.63 0 1.183.138 1.66.413.48.272.855.655 1.124 1.148.271.494.407 1.073.407 1.736 0 .632-.132 1.204-.397 1.715-.262.507-.65.91-1.164 1.208-.513.298-1.143.447-1.889.447-.891 0-1.63-.247-2.217-.74-.587-.494-.91-1.205-.97-2.133h1.517c.076.484.257.87.541 1.158.289.285.682.428 1.179.428.543 0 .996-.193 1.357-.577.365-.388.547-.888.547-1.502 0-.696-.19-1.208-.572-1.536a2 2 0 0 0-1.357-.497c-.424 0-.77.058-1.04.174-.264.116-.49.257-.675.423zm7.153-3.073v-.537c0-.384.08-.739.238-1.064.163-.324.396-.583.701-.775.308-.196.685-.294 1.129-.294.447 0 .822.098 1.123.294.305.192.536.45.691.775.156.325.234.68.234 1.064v.537c0 .385-.08.74-.238 1.064a1.847 1.847 0 0 1-.692.77c-.305.193-.677.29-1.118.29-.451 0-.83-.097-1.139-.29a1.88 1.88 0 0 1-.696-.77 2.427 2.427 0 0 1-.233-1.064zm8.76-2.53l-7.105 10.35h-1.352l7.11-10.35h1.347zm-7.587 1.993v.537c0 .285.066.542.199.77.132.226.364.339.696.339.325 0 .552-.113.68-.338.13-.229.195-.486.195-.77v-.538c0-.285-.063-.542-.19-.77-.122-.232-.35-.348-.685-.348-.325 0-.555.116-.691.348a1.48 1.48 0 0 0-.204.77zm3.898 6.364v-.537c0-.384.08-.74.238-1.064.163-.325.396-.583.701-.776.308-.195.685-.293 1.129-.293.447 0 .822.098 1.123.293.305.193.536.451.692.776.155.325.233.68.233 1.064v.537c0 .384-.08.739-.239 1.064a1.873 1.873 0 0 1-.69.78c-.306.193-.678.289-1.12.289-.45 0-.83-.096-1.138-.289a1.908 1.908 0 0 1-.696-.78 2.427 2.427 0 0 1-.233-1.064zm1.173-.537v.537c0 .285.066.542.199.77.132.226.364.339.696.339.325 0 .552-.113.68-.338.13-.23.195-.486.195-.771v-.537a1.57 1.57 0 0 0-.19-.77c-.122-.233-.35-.349-.685-.349-.325 0-.555.116-.691.348a1.48 1.48 0 0 0-.204.771zm17.358-4.549l-1.551.104c-.149-.65-.466-1.141-.949-1.476a2.784 2.784 0 0 0-1.641-.507c-.56 0-1.062.14-1.506.422-.441.282-.791.705-1.049 1.268-.256.56-.383 1.26-.383 2.098 0 .839.127 1.538.383 2.098.258.56.608.981 1.049 1.263.444.278.946.418 1.506.418a2.8 2.8 0 0 0 1.636-.498c.477-.331.79-.82.939-1.466l1.556.104c-.146.7-.416 1.296-.81 1.79-.391.49-.873.867-1.447 1.128a4.485 4.485 0 0 1-1.874.388c-.865 0-1.637-.209-2.317-.626-.676-.421-1.208-1.021-1.596-1.8-.387-.782-.581-1.715-.581-2.799 0-1.084.194-2.017.581-2.799.388-.782.92-1.384 1.596-1.805.68-.42 1.452-.631 2.317-.631.679 0 1.306.13 1.879.393a3.894 3.894 0 0 1 1.452 1.138c.394.494.664 1.092.81 1.795zm10.36 1.91c0 1.086-.194 2.02-.582 2.803-.388.779-.92 1.377-1.596 1.795-.676.417-1.443.626-2.302.626-.865 0-1.635-.209-2.311-.626-.677-.418-1.21-1.016-1.601-1.795-.388-.782-.582-1.717-.582-2.804 0-1.09.194-2.025.582-2.804.391-.782.924-1.382 1.601-1.8.676-.42 1.446-.631 2.311-.631.859 0 1.626.21 2.302.631.676.418 1.208 1.018 1.596 1.8.388.779.582 1.714.582 2.804zm-1.556 0c0-.846-.13-1.549-.388-2.109-.255-.56-.603-.98-1.044-1.258a2.712 2.712 0 0 0-1.492-.422c-.553 0-1.052.14-1.496.422-.444.279-.796.698-1.054 1.258-.259.56-.388 1.263-.388 2.108 0 .845.129 1.548.388 2.108.258.557.61.974 1.054 1.253.444.278.943.418 1.496.418.554 0 1.051-.14 1.492-.418.441-.279.789-.696 1.044-1.253.258-.56.388-1.263.388-2.108zm7.501 6.557v1.019h-4.182v-.85l1.964-1.815c.285-.245.486-.466.602-.661.116-.196.174-.358.174-.487a.607.607 0 0 0-.194-.468c-.126-.122-.305-.184-.537-.184-.298 0-.517.08-.656.239a.847.847 0 0 0-.209.577h-1.263c0-.494.184-.92.552-1.278.371-.361.878-.542 1.521-.542.647 0 1.149.146 1.507.438.361.288.542.694.542 1.218 0 .377-.12.714-.358 1.009-.239.295-.584.628-1.034 1l-.98.785h2.551zm7.624-11.654V19h-1.576V8.818h1.576zm3.564 5.812V19h-1.531v-7.636h1.471v1.138h.08c.192-.354.472-.65.84-.885.371-.235.824-.353 1.357-.353.461 0 .88.101 1.258.304.378.202.678.517.9.944.226.428.338.981.338 1.66V19h-1.526v-4.748c0-.51-.141-.91-.423-1.198-.278-.292-.633-.438-1.064-.438-.288 0-.563.077-.825.23a1.71 1.71 0 0 0-.631.675c-.163.299-.244.668-.244 1.109zm12.885-.91l-1.466.13a1.829 1.829 0 0 0-.542-.91c-.272-.252-.643-.378-1.114-.378-.633 0-1.127.238-1.481.716-.355.477-.532 1.112-.532 1.904 0 .805.175 1.452.527 1.939.351.487.846.73 1.486.73.424 0 .777-.109 1.059-.328.285-.222.479-.525.582-.91l1.476.12a2.84 2.84 0 0 1-1.019 1.74c-.55.454-1.249.681-2.098.681-.722 0-1.346-.169-1.869-.507a3.34 3.34 0 0 1-1.213-1.402c-.282-.6-.423-1.288-.423-2.063 0-.763.143-1.439.428-2.029a3.36 3.36 0 0 1 1.213-1.387c.523-.334 1.14-.502 1.849-.502.832 0 1.533.224 2.103.671.57.448.915 1.043 1.034 1.785zm6.015-2.202l-.493 1.367a1.605 1.605 0 0 0-.263-.1 1.293 1.293 0 0 0-.418-.06c-.364 0-.679.099-.944.294-.265.192-.471.44-.617.74-.146.3-.22.606-.223.92V19h-1.532v-7.636h1.512v1.203h.089c.11-.378.343-.691.701-.94a1.968 1.968 0 0 1 1.73-.293c.186.053.338.114.458.184zm4.075 7.636c-.746 0-1.39-.159-1.934-.477a3.216 3.216 0 0 1-1.248-1.357c-.291-.584-.437-1.27-.437-2.059 0-.782.142-1.473.427-2.073.285-.6.691-1.07 1.218-1.412.527-.341 1.152-.512 1.875-.512.586 0 1.133.128 1.64.383.511.255.922.658 1.233 1.208.315.55.473 1.27.473 2.158v.641h-5.365c.06.706.27 1.25.632 1.63.361.379.855.568 1.481.568.464 0 .839-.102 1.124-.304.285-.205.49-.48.616-.825l1.412.388a2.666 2.666 0 0 1-.567 1.014 2.928 2.928 0 0 1-1.054.75c-.43.186-.939.28-1.526.28zm-.104-6.592c-.521 0-.955.169-1.303.507-.348.338-.573.814-.676 1.427h3.838c0-.554-.166-1.014-.497-1.382-.332-.368-.786-.552-1.362-.552zM167.314 19v-.95h-.07a2.182 2.182 0 0 1-1.089.94c-.285.116-.629.174-1.034.174a3 3 0 0 1-1.282-.268 2.21 2.21 0 0 1-.92-.796c-.229-.348-.343-.769-.343-1.263 0-.533.134-.96.403-1.277.271-.319.636-.556 1.093-.711a6.85 6.85 0 0 1 1.517-.328c.291-.037.565-.067.82-.09a2.4 2.4 0 0 0 .626-.134c.163-.066.244-.176.244-.328v-.065c0-.494-.128-.847-.383-1.059-.252-.215-.578-.323-.979-.323-.471 0-.849.108-1.134.323-.285.212-.477.453-.576.721l-1.447-.333c.159-.464.398-.84.716-1.129a2.964 2.964 0 0 1 1.108-.636 4.28 4.28 0 0 1 1.323-.204c.308 0 .63.037.964.11.338.072.655.205.95.397.295.19.534.458.716.806.185.348.278.797.278 1.347V19h-1.501zm-.035-2.665v-1.039c-.056.067-.189.125-.398.174-.209.05-.432.091-.671.124-.235.03-.424.055-.567.075-.457.056-.833.17-1.128.343-.292.172-.438.456-.438.85 0 .345.126.608.378.79.255.18.582.27.98.27.57 0 1.019-.162 1.347-.483.331-.325.497-.693.497-1.104zm9.047-3.087l-1.387.239a1.578 1.578 0 0 0-.224-.443 1.302 1.302 0 0 0-.462-.408c-.202-.112-.464-.169-.786-.169-.401 0-.74.095-1.019.284-.278.185-.417.422-.417.71 0 .243.099.45.298.622.199.172.481.302.845.388l1.268.293c.646.15 1.142.396 1.486.741.348.341.522.772.522 1.293 0 .454-.129.858-.387 1.213-.256.354-.617.634-1.084.84-.468.202-1.018.303-1.651.303-.931 0-1.647-.202-2.148-.606a2.955 2.955 0 0 1-.999-1.502l1.437-.308c.116.348.315.636.597.865.285.225.667.338 1.148.338.464 0 .834-.101 1.109-.303.278-.206.417-.446.417-.721 0-.255-.093-.45-.278-.587-.182-.136-.429-.242-.741-.318l-1.302-.313c-.66-.162-1.169-.426-1.527-.79a1.865 1.865 0 0 1-.537-1.353c0-.46.128-.862.383-1.203.259-.345.613-.611 1.064-.8.451-.193.97-.289 1.556-.289.796 0 1.422.176 1.879.527.461.351.774.837.94 1.457zm5.045 5.906c-.746 0-1.39-.159-1.934-.477a3.216 3.216 0 0 1-1.248-1.357c-.291-.584-.437-1.27-.437-2.059 0-.782.142-1.473.427-2.073.285-.6.691-1.07 1.218-1.412.527-.341 1.152-.512 1.875-.512.586 0 1.133.128 1.64.383.511.255.922.658 1.233 1.208.315.55.472 1.27.472 2.158v.641h-5.364c.06.706.27 1.25.631 1.63.362.379.856.568 1.482.568.464 0 .839-.102 1.124-.304.285-.205.49-.48.616-.825l1.412.388a2.666 2.666 0 0 1-.567 1.014 2.937 2.937 0 0 1-1.054.75c-.431.186-.939.28-1.526.28zm-.104-6.592c-.521 0-.955.169-1.303.507-.348.338-.573.814-.676 1.427h3.838c0-.554-.166-1.014-.497-1.382-.332-.368-.786-.552-1.362-.552zm9.851 1.044a.967.967 0 0 1-.711-.293.972.972 0 0 1-.293-.716c0-.279.099-.512.298-.701a.982.982 0 0 1 .706-.289c.275 0 .51.098.706.294a.932.932 0 0 1 .298.696c0 .281-.099.52-.298.716a.964.964 0 0 1-.706.293zm0 5.493a.966.966 0 0 1-.711-.293.972.972 0 0 1-.293-.716c0-.278.099-.512.298-.7a.982.982 0 0 1 .706-.29c.275 0 .51.099.706.294a.932.932 0 0 1 .298.696c0 .282-.099.52-.298.716a.963.963 0 0 1-.706.293zm6.322 1.81h-1.372a9.127 9.127 0 0 1-.924-1.7 11.422 11.422 0 0 1-.637-2.063 11.3 11.3 0 0 1-.229-2.282c0-1.174.171-2.29.513-3.351.344-1.06.793-1.959 1.347-2.695h1.322c-.596 1.014-1.027 2-1.292 2.958a11.502 11.502 0 0 0-.398 3.088c0 1.064.131 2.084.393 3.062.265.975.691 1.969 1.277 2.983z" fill="#fff"/><circle cx="380" cy="46" r="5" fill="#1B1F24"/><path fill-rule="evenodd" clip-rule="evenodd" d="M387.071 64H430a3 3 0 0 1 3 3v22a3 3 0 0 1-3 3h-94a3 3 0 0 1-3-3V67a3 3 0 0 1 3-3h37.071l7-7 7 7z" fill="#262D33"/><path d="M356.186 64.818h-1.213v8.014h-.1l-5.568-8.014h-1.193V75h1.233v-7.994h.099L354.993 75h1.193V64.818zm5.509 10.341c1.552 0 2.685-.776 3.043-1.929l-1.133-.318c-.299.795-.99 1.193-1.91 1.193-1.377 0-2.326-.89-2.381-2.526h5.543v-.497c0-2.843-1.69-3.818-3.281-3.818-2.068 0-3.44 1.63-3.44 3.978 0 2.346 1.352 3.917 3.559 3.917zm-2.381-4.594c.08-1.188.92-2.247 2.262-2.247 1.273 0 2.088.955 2.088 2.247h-4.35zm10.649-3.201h-1.63v-1.83h-1.174v1.83h-1.153v.994h1.153v4.773c0 1.332 1.074 1.968 2.068 1.968.438 0 .716-.08.875-.139l-.238-1.054c-.1.02-.259.06-.517.06-.517 0-1.014-.16-1.014-1.153v-4.455h1.63v-.994zM375.529 75h5.926v-1.094h-4.295v-.08l4.216-5.528v-.934h-5.907v1.093h4.395v.08l-4.335 5.568V75zm10.776.16c1.551 0 2.685-.776 3.042-1.93l-1.133-.318c-.298.795-.989 1.193-1.909 1.193-1.377 0-2.327-.89-2.382-2.526h5.544v-.497c0-2.843-1.691-3.818-3.281-3.818-2.069 0-3.441 1.63-3.441 3.978 0 2.346 1.352 3.917 3.56 3.917zm-2.382-4.595c.08-1.188.92-2.247 2.263-2.247 1.272 0 2.088.955 2.088 2.247h-4.351zM391.252 75h1.173v-4.832c0-1.03.815-1.79 1.929-1.79.293 0 .512.055.676.139l.398-.994c-.239-.17-.552-.279-.975-.279-.924 0-1.715.517-1.988 1.273h-.08v-1.153h-1.133V75zm8.242.16c2.069 0 3.461-1.572 3.461-3.938 0-2.387-1.392-3.958-3.461-3.958-2.068 0-3.46 1.571-3.46 3.958 0 2.366 1.392 3.937 3.46 3.937zm0-1.055c-1.571 0-2.286-1.352-2.286-2.883 0-1.532.715-2.904 2.286-2.904 1.572 0 2.287 1.372 2.287 2.904 0 1.53-.715 2.883-2.287 2.883zm9.189.895h1.174v-7.636h-1.174V75zm.597-8.89c.457 0 .835-.357.835-.795 0-.437-.378-.795-.835-.795-.458 0-.835.358-.835.795 0 .438.377.796.835.796zm3.899 4.296c0-1.332.825-2.088 1.949-2.088 1.088 0 1.75.711 1.75 1.91V75h1.173v-4.852c0-1.95-1.039-2.884-2.585-2.884-1.154 0-1.87.517-2.228 1.293h-.099v-1.193h-1.133V75h1.173v-4.594zM366.725 91h6.423v-1.094h-4.733v-.08l2.287-2.445c1.75-1.875 2.267-2.75 2.267-3.878 0-1.571-1.273-2.824-3.062-2.824-1.785 0-3.142 1.213-3.142 3.003h1.173c0-1.159.751-1.93 1.929-1.93 1.104 0 1.949.677 1.949 1.75 0 .94-.552 1.636-1.73 2.924l-3.361 3.68V91zm11.837.14c2.148 0 3.5-2.01 3.5-5.23 0-3.203-1.352-5.231-3.5-5.231-2.147 0-3.5 2.028-3.5 5.23 0 3.222 1.353 5.23 3.5 5.23zm0-1.094c-1.382 0-2.287-1.592-2.287-4.137 0-2.545.895-4.156 2.287-4.156s2.287 1.61 2.287 4.156c0 2.545-.905 4.136-2.287 4.136zm8.653 1.093c1.939 0 3.361-1.432 3.361-3.38 0-1.974-1.372-3.42-3.241-3.42-.686 0-1.353.243-1.77.576h-.06l.358-3.003h4.256v-1.094h-5.29l-.617 5.011 1.154.14c.422-.303 1.143-.522 1.77-.517 1.297.01 2.247.994 2.247 2.326 0 1.308-.915 2.267-2.168 2.267-1.044 0-1.874-.67-1.968-1.59h-1.194c.075 1.55 1.412 2.684 3.162 2.684zm8.697 0c2.148 0 3.5-2.008 3.5-5.23 0-3.202-1.352-5.23-3.5-5.23-2.148 0-3.5 2.028-3.5 5.23 0 3.222 1.352 5.23 3.5 5.23zm0-1.093c-1.382 0-2.287-1.592-2.287-4.137 0-2.545.895-4.156 2.287-4.156s2.287 1.61 2.287 4.156c0 2.545-.905 4.136-2.287 4.136z" fill="#fff"/></svg>