<svg width="323" height="56" viewBox="0 0 323 56" fill="none" xmlns="http://www.w3.org/2000/svg">
<path d="M4.95455 21H1.00568V9.36364H5.00568C6.13826 9.36364 7.11364 9.59659 7.93182 10.0625C8.75379 10.5246 9.38447 11.1913 9.82386 12.0625C10.2633 12.9299 10.483 13.9678 10.483 15.1761C10.483 16.3883 10.2614 17.4299 9.81818 18.3011C9.37879 19.1686 8.74621 19.8352 7.92045 20.3011C7.0947 20.767 6.10606 21 4.95455 21ZM4.88068 11.3068H3.25V19.0568H4.84659C5.96402 19.0568 6.80871 18.7405 7.38068 18.108C7.95265 17.4716 8.23864 16.4943 8.23864 15.1761C8.23864 13.858 7.95455 12.8845 7.38636 12.2557C6.81818 11.6231 5.98295 11.3068 4.88068 11.3068ZM15.7557 21.1648C14.9223 21.1648 14.2008 20.9735 13.5909 20.5909C12.9848 20.2083 12.517 19.678 12.1875 19C11.858 18.3182 11.6932 17.536 11.6932 16.6534C11.6932 15.7633 11.858 14.9811 12.1875 14.3068C12.517 13.6326 12.9848 13.1061 13.5909 12.7273C14.2008 12.3485 14.9223 12.1591 15.7557 12.1591C16.589 12.1591 17.3087 12.3485 17.9148 12.7273C18.5246 13.1061 18.9943 13.6326 19.3239 14.3068C19.6534 14.9811 19.8182 15.7633 19.8182 16.6534C19.8182 17.536 19.6534 18.3182 19.3239 19C18.9943 19.678 18.5246 20.2083 17.9148 20.5909C17.3087 20.9735 16.589 21.1648 15.7557 21.1648ZM15.7557 19.358C16.4451 19.358 16.9413 19.1004 17.2443 18.5852C17.5511 18.0701 17.7045 17.4261 17.7045 16.6534C17.7045 15.8769 17.5511 15.233 17.2443 14.7216C16.9413 14.2064 16.4451 13.9489 15.7557 13.9489C15.0663 13.9489 14.5682 14.2064 14.2614 14.7216C13.9583 15.233 13.8068 15.8769 13.8068 16.6534C13.8068 17.4261 13.9583 18.0701 14.2614 18.5852C14.5682 19.1004 15.0663 19.358 15.7557 19.358ZM28.3793 15.5682V21H26.2259V15.4659C26.2259 14.9356 26.1009 14.5549 25.8509 14.3239C25.6046 14.0928 25.2921 13.9773 24.9134 13.9773C24.5497 13.9773 24.2296 14.1098 23.9531 14.375C23.6804 14.6402 23.544 15.0473 23.544 15.5966V21H21.3395V12.2727H23.4986V13.3807H23.5724C23.7846 13.0511 24.0819 12.7652 24.4645 12.5227C24.8471 12.2803 25.3073 12.1591 25.8452 12.1591C26.3755 12.1591 26.8243 12.2784 27.1918 12.517C27.5592 12.7557 27.8357 13.0758 28.0213 13.4773H28.1122C28.313 13.1212 28.6293 12.8125 29.0611 12.5511C29.4967 12.2898 30.0062 12.1591 30.5895 12.1591C31.0781 12.1591 31.5213 12.2689 31.919 12.4886C32.3205 12.7045 32.6406 13.0549 32.8793 13.5398C33.1179 14.0246 33.2372 14.6667 33.2372 15.4659V21H31.0327V15.4489C31.0327 14.892 30.8982 14.5076 30.6293 14.2955C30.3641 14.0833 30.0705 13.9773 29.7486 13.9773C29.3205 13.9773 28.9853 14.1136 28.7429 14.3864C28.5005 14.6553 28.3793 15.0492 28.3793 15.5682ZM38.9673 21.1648C38.0923 21.1648 37.3385 20.9867 36.706 20.6307C36.0772 20.2708 35.5923 19.7614 35.2514 19.1023C34.9105 18.4432 34.7401 17.6591 34.7401 16.75C34.7401 15.8636 34.9029 15.0758 35.2287 14.3864C35.5545 13.6932 36.026 13.1496 36.6435 12.7557C37.2609 12.358 38.0052 12.1591 38.8764 12.1591C39.6151 12.1591 40.2779 12.3144 40.8651 12.625C41.456 12.9356 41.9219 13.4015 42.2628 14.0227C42.6075 14.6439 42.7798 15.4205 42.7798 16.3523V17.2784H36.8707C36.9427 17.9261 37.1491 18.4356 37.4901 18.8068C37.8348 19.1742 38.3215 19.358 38.9503 19.358C39.4768 19.358 39.8726 19.2386 40.1378 19C40.4029 18.7576 40.5942 18.4735 40.7116 18.1477L42.6889 18.6818C42.5829 19.0833 42.3802 19.4735 42.081 19.8523C41.7855 20.2311 41.3802 20.5455 40.8651 20.7955C40.3537 21.0417 39.7211 21.1648 38.9673 21.1648ZM38.8594 13.9489C38.3518 13.9489 37.9332 14.108 37.6037 14.4261C37.2741 14.7443 37.0507 15.1894 36.9332 15.7614H40.6889C40.6889 15.2462 40.5279 14.8163 40.206 14.4716C39.8878 14.1231 39.4389 13.9489 38.8594 13.9489ZM51.3196 14.642L49.3139 14.8466C49.2571 14.5587 49.098 14.3144 48.8366 14.1136C48.5791 13.9091 48.2382 13.8068 47.8139 13.8068C47.4427 13.8068 47.1151 13.892 46.831 14.0625C46.5507 14.2292 46.4105 14.4545 46.4105 14.7386C46.4105 14.9848 46.5166 15.1818 46.7287 15.3295C46.9408 15.4735 47.2098 15.5814 47.5355 15.6534L49.1548 16C49.8253 16.1477 50.3821 16.4034 50.8253 16.767C51.2723 17.1269 51.4957 17.6572 51.4957 18.358C51.4957 18.9602 51.3253 19.4697 50.9844 19.8864C50.6473 20.303 50.1889 20.6212 49.6094 20.8409C49.0298 21.0568 48.3783 21.1648 47.6548 21.1648C46.5601 21.1648 45.7041 20.9318 45.0866 20.4659C44.473 19.9962 44.081 19.3504 43.9105 18.5284L46.0185 18.2898C46.1245 18.6875 46.3329 18.9943 46.6435 19.2102C46.9541 19.4223 47.3234 19.5284 47.7514 19.5284C48.1757 19.5284 48.5279 19.4394 48.8082 19.2614C49.0923 19.0795 49.2344 18.8617 49.2344 18.608C49.2344 18.3087 49.1264 18.1004 48.9105 17.983C48.6984 17.8655 48.4522 17.7746 48.1719 17.7102L46.6378 17.3636C45.937 17.197 45.3594 16.9167 44.9048 16.5227C44.4503 16.125 44.223 15.5777 44.223 14.8807C44.223 14.036 44.562 13.3712 45.2401 12.8864C45.9181 12.4015 46.8063 12.1591 47.9048 12.1591C48.9276 12.1591 49.7154 12.375 50.2685 12.8068C50.8253 13.2386 51.1757 13.8504 51.3196 14.642ZM57.2088 12.2727V13.9091H55.6861V18.3295C55.6861 18.7348 55.7713 18.9924 55.9418 19.1023C56.116 19.2083 56.3243 19.2614 56.5668 19.2614C56.7713 19.2614 56.9588 19.2386 57.1293 19.1932L57.4759 20.892C57.3925 20.9261 57.2183 20.9716 56.9531 21.0284C56.6918 21.0852 56.3584 21.1136 55.9531 21.1136C55.5099 21.1136 55.1009 21.017 54.7259 20.8239C54.3509 20.6269 54.0497 20.3466 53.8224 19.983C53.5952 19.6155 53.4815 19.1761 53.4815 18.6648V13.9091H52.3963V12.2727H53.4815V10.4091H55.6861V12.2727H57.2088ZM60.0099 11.5455C59.6501 11.5455 59.349 11.4318 59.1065 11.2045C58.8641 10.9735 58.7429 10.697 58.7429 10.375C58.7429 10.0644 58.8641 9.79167 59.1065 9.55682C59.349 9.32197 59.6501 9.20455 60.0099 9.20455C60.3698 9.20455 60.6671 9.32197 60.902 9.55682C61.1368 9.79167 61.2543 10.0644 61.2543 10.375C61.2543 10.697 61.1368 10.9735 60.902 11.2045C60.6671 11.4318 60.3698 11.5455 60.0099 11.5455ZM61.1065 12.2727V21H58.902V12.2727H61.1065ZM70.483 15.0568L68.4318 15.3636C68.3295 14.9508 68.1458 14.6117 67.8807 14.3466C67.6155 14.0814 67.2405 13.9489 66.7557 13.9489C66.1042 13.9489 65.6155 14.1951 65.2898 14.6875C64.9678 15.1761 64.8068 15.8258 64.8068 16.6364C64.8068 17.4545 64.9678 18.1136 65.2898 18.6136C65.6117 19.1098 66.1004 19.358 66.7557 19.358C67.1951 19.358 67.5511 19.2424 67.8239 19.0114C68.1004 18.7765 68.2936 18.4621 68.4034 18.0682L70.4659 18.3636C70.2917 19.197 69.875 19.8731 69.2159 20.392C68.5606 20.9072 67.7405 21.1648 66.7557 21.1648C65.9148 21.1648 65.1913 20.9716 64.5852 20.5852C63.9792 20.1989 63.5114 19.6667 63.1818 18.9886C62.8561 18.3068 62.6932 17.5227 62.6932 16.6364C62.6932 15.7576 62.858 14.983 63.1875 14.3125C63.517 13.6383 63.9848 13.1117 64.5909 12.733C65.197 12.3504 65.9167 12.1591 66.75 12.1591C67.7424 12.1591 68.572 12.4223 69.2386 12.9489C69.9091 13.4754 70.3239 14.178 70.483 15.0568ZM78.3153 21H75.9062L80.196 9.36364H82.5767L86.8665 21H84.4631L83.6165 18.5227H79.1619L78.3153 21ZM81.321 12.1932L79.7869 16.6818H82.9915L81.4574 12.1932H81.321ZM95.1847 12.2727L91.9744 21H89.8665L86.6733 12.2727H88.9631L90.8892 18.1932H90.9801L92.8949 12.2727H95.1847ZM97.6974 11.5455C97.3376 11.5455 97.0365 11.4318 96.794 11.2045C96.5516 10.9735 96.4304 10.697 96.4304 10.375C96.4304 10.0644 96.5516 9.79167 96.794 9.55682C97.0365 9.32197 97.3376 9.20455 97.6974 9.20455C98.0573 9.20455 98.3546 9.32197 98.5895 9.55682C98.8243 9.79167 98.9418 10.0644 98.9418 10.375C98.9418 10.697 98.8243 10.9735 98.5895 11.2045C98.3546 11.4318 98.0573 11.5455 97.6974 11.5455ZM98.794 12.2727V21H96.5895V12.2727H98.794ZM105.619 21V20.017H105.517C105.366 20.2936 105.108 20.5568 104.744 20.8068C104.384 21.053 103.898 21.1761 103.284 21.1761C102.765 21.1761 102.29 21.0739 101.858 20.8693C101.43 20.6648 101.087 20.3674 100.83 19.9773C100.572 19.5833 100.443 19.1042 100.443 18.5398C100.443 17.6951 100.752 17.053 101.369 16.6136C101.987 16.1742 102.848 15.9034 103.955 15.8011C104.212 15.7746 104.46 15.7462 104.699 15.7159C104.941 15.6856 105.138 15.6345 105.29 15.5625C105.445 15.4905 105.523 15.3788 105.523 15.2273V15.0966C105.523 14.7064 105.407 14.4072 105.176 14.1989C104.949 13.9867 104.644 13.8807 104.261 13.8807C103.856 13.8807 103.513 13.983 103.233 14.1875C102.953 14.392 102.773 14.642 102.693 14.9375L100.619 14.6364C100.82 13.8333 101.254 13.2197 101.92 12.7955C102.591 12.3712 103.39 12.1591 104.318 12.1591C104.898 12.1591 105.449 12.2538 105.972 12.4432C106.494 12.6326 106.92 12.9451 107.25 13.3807C107.58 13.8163 107.744 14.4034 107.744 15.142V21H105.619ZM105.523 18.0909V16.9375C105.466 16.9981 105.354 17.0511 105.188 17.0966C105.025 17.142 104.847 17.1818 104.653 17.2159C104.46 17.2462 104.297 17.2689 104.165 17.2841C103.642 17.3447 103.248 17.4697 102.983 17.6591C102.722 17.8485 102.591 18.1326 102.591 18.5114C102.591 18.822 102.703 19.0663 102.926 19.2443C103.153 19.4186 103.449 19.5057 103.812 19.5057C104.297 19.5057 104.703 19.3655 105.028 19.0852C105.358 18.8011 105.523 18.4697 105.523 18.0909ZM113.678 12.2727V13.9091H112.155V18.3295C112.155 18.7348 112.24 18.9924 112.411 19.1023C112.585 19.2083 112.793 19.2614 113.036 19.2614C113.24 19.2614 113.428 19.2386 113.598 19.1932L113.945 20.892C113.861 20.9261 113.687 20.9716 113.422 21.0284C113.161 21.0852 112.827 21.1136 112.422 21.1136C111.979 21.1136 111.57 21.017 111.195 20.8239C110.82 20.6269 110.518 20.3466 110.291 19.983C110.064 19.6155 109.95 19.1761 109.95 18.6648V13.9091H108.865V12.2727H109.95V10.4091H112.155V12.2727H113.678ZM116.479 11.5455C116.119 11.5455 115.818 11.4318 115.575 11.2045C115.333 10.9735 115.212 10.697 115.212 10.375C115.212 10.0644 115.333 9.79167 115.575 9.55682C115.818 9.32197 116.119 9.20455 116.479 9.20455C116.839 9.20455 117.136 9.32197 117.371 9.55682C117.606 9.79167 117.723 10.0644 117.723 10.375C117.723 10.697 117.606 10.9735 117.371 11.2045C117.136 11.4318 116.839 11.5455 116.479 11.5455ZM117.575 12.2727V21H115.371V12.2727H117.575ZM123.224 21.1648C122.391 21.1648 121.67 20.9735 121.06 20.5909C120.454 20.2083 119.986 19.678 119.656 19C119.327 18.3182 119.162 17.536 119.162 16.6534C119.162 15.7633 119.327 14.9811 119.656 14.3068C119.986 13.6326 120.454 13.1061 121.06 12.7273C121.67 12.3485 122.391 12.1591 123.224 12.1591C124.058 12.1591 124.777 12.3485 125.384 12.7273C125.993 13.1061 126.463 13.6326 126.793 14.3068C127.122 14.9811 127.287 15.7633 127.287 16.6534C127.287 17.536 127.122 18.3182 126.793 19C126.463 19.678 125.993 20.2083 125.384 20.5909C124.777 20.9735 124.058 21.1648 123.224 21.1648ZM123.224 19.358C123.914 19.358 124.41 19.1004 124.713 18.5852C125.02 18.0701 125.173 17.4261 125.173 16.6534C125.173 15.8769 125.02 15.233 124.713 14.7216C124.41 14.2064 123.914 13.9489 123.224 13.9489C122.535 13.9489 122.037 14.2064 121.73 14.7216C121.427 15.233 121.276 15.8769 121.276 16.6534C121.276 17.4261 121.427 18.0701 121.73 18.5852C122.037 19.1004 122.535 19.358 123.224 19.358ZM131.013 16.1989V21H128.808V12.2727H130.876V13.3807H130.967C131.202 13.0208 131.526 12.7273 131.939 12.5C132.356 12.2727 132.839 12.1591 133.388 12.1591C133.899 12.1591 134.375 12.2708 134.814 12.4943C135.253 12.7178 135.607 13.0758 135.876 13.5682C136.149 14.0606 136.286 14.7102 136.286 15.517V21H134.075V15.608C134.075 15.089 133.935 14.6875 133.655 14.4034C133.378 14.1193 133.032 13.9773 132.615 13.9773C132.123 13.9773 131.732 14.178 131.445 14.5795C131.157 14.9811 131.013 15.5208 131.013 16.1989Z" fill="black"/>
<line opacity="0.3" x1="2" y1="48" x2="321" y2="48" stroke="black" stroke-width="4" stroke-linecap="round" stroke-linejoin="round"/>
<circle cx="217" cy="48" r="8" fill="#00CC9B"/>
<g opacity="0.5">
<path d="M312 10H310V12H312V10Z" fill="black"/>
<path d="M312 14H310V20H312V14Z" fill="black"/>
<path d="M311 5C305.48 5 301 9.48 301 15C301 20.52 305.48 25 311 25C316.52 25 321 20.52 321 15C321 9.48 316.52 5 311 5ZM311 23C306.59 23 303 19.41 303 15C303 10.59 306.59 7 311 7C315.41 7 319 10.59 319 15C319 19.41 315.41 23 311 23Z" fill="black"/>
</g>
</svg>
