<svg width="454" height="147" viewBox="0 0 454 147" fill="none" xmlns="http://www.w3.org/2000/svg">
<path d="M230 50C230 48.3431 231.343 47 233 47H451C452.657 47 454 48.3431 454 50V73V96C454 97.6569 452.657 99 451 99H233C231.343 99 230 97.6569 230 96V50Z" fill="#262D33"/>
<path d="M280.409 79H287.523V77.75H281.818V73.7955H287.068V72.5455H281.818V68.6136H287.432V67.3636H280.409V79ZM289.79 79H291.131V73.5455C291.131 72.267 292.062 71.3636 293.108 71.3636C294.125 71.3636 294.835 72.0284 294.835 73.0227V79H296.199V73.3182C296.199 72.1932 296.903 71.3636 298.131 71.3636C299.085 71.3636 299.903 71.8693 299.903 73.1591V79H301.244V73.1591C301.244 71.108 300.142 70.1591 298.585 70.1591C297.335 70.1591 296.42 70.733 295.972 71.6364H295.881C295.449 70.7045 294.688 70.1591 293.54 70.1591C292.403 70.1591 291.562 70.7045 291.199 71.6364H291.085V70.2727H289.79V79ZM303.696 79H305.037V70.2727H303.696V79ZM304.378 68.8409C304.901 68.8409 305.332 68.4318 305.332 67.9318C305.332 67.4318 304.901 67.0227 304.378 67.0227C303.855 67.0227 303.423 67.4318 303.423 67.9318C303.423 68.4318 303.855 68.8409 304.378 68.8409ZM313.675 72.2273C313.254 70.9886 312.311 70.1591 310.584 70.1591C308.743 70.1591 307.379 71.2045 307.379 72.6818C307.379 73.8864 308.095 74.6932 309.697 75.0682L311.152 75.4091C312.033 75.6136 312.447 76.0341 312.447 76.6364C312.447 77.3864 311.652 78 310.402 78C309.305 78 308.618 77.5284 308.379 76.5909L307.107 76.9091C307.419 78.392 308.641 79.1818 310.425 79.1818C312.453 79.1818 313.834 78.0739 313.834 76.5682C313.834 75.3523 313.072 74.5852 311.516 74.2045L310.22 73.8864C309.186 73.6307 308.72 73.2841 308.72 72.6136C308.72 71.8636 309.516 71.3182 310.584 71.3182C311.754 71.3182 312.237 71.9659 312.47 72.5682L313.675 72.2273ZM322.034 72.2273C321.614 70.9886 320.67 70.1591 318.943 70.1591C317.102 70.1591 315.739 71.2045 315.739 72.6818C315.739 73.8864 316.455 74.6932 318.057 75.0682L319.511 75.4091C320.392 75.6136 320.807 76.0341 320.807 76.6364C320.807 77.3864 320.011 78 318.761 78C317.665 78 316.977 77.5284 316.739 76.5909L315.466 76.9091C315.778 78.392 317 79.1818 318.784 79.1818C320.812 79.1818 322.193 78.0739 322.193 76.5682C322.193 75.3523 321.432 74.5852 319.875 74.2045L318.58 73.8864C317.545 73.6307 317.08 73.2841 317.08 72.6136C317.08 71.8636 317.875 71.3182 318.943 71.3182C320.114 71.3182 320.597 71.9659 320.83 72.5682L322.034 72.2273ZM324.212 79H325.553V70.2727H324.212V79ZM324.893 68.8409C325.416 68.8409 325.848 68.4318 325.848 67.9318C325.848 67.4318 325.416 67.0227 324.893 67.0227C324.371 67.0227 323.939 67.4318 323.939 67.9318C323.939 68.4318 324.371 68.8409 324.893 68.8409ZM331.554 79.1818C333.918 79.1818 335.509 77.3864 335.509 74.6818C335.509 71.9545 333.918 70.1591 331.554 70.1591C329.19 70.1591 327.599 71.9545 327.599 74.6818C327.599 77.3864 329.19 79.1818 331.554 79.1818ZM331.554 77.9773C329.759 77.9773 328.94 76.4318 328.94 74.6818C328.94 72.9318 329.759 71.3636 331.554 71.3636C333.349 71.3636 334.168 72.9318 334.168 74.6818C334.168 76.4318 333.349 77.9773 331.554 77.9773ZM338.896 73.75C338.896 72.2273 339.839 71.3636 341.124 71.3636C342.368 71.3636 343.124 72.1761 343.124 73.5455V79H344.464V73.4545C344.464 71.2273 343.277 70.1591 341.51 70.1591C340.192 70.1591 339.374 70.75 338.964 71.6364H338.851V70.2727H337.555V79H338.896V73.75ZM353.097 72.2273C352.676 70.9886 351.733 70.1591 350.006 70.1591C348.165 70.1591 346.801 71.2045 346.801 72.6818C346.801 73.8864 347.517 74.6932 349.119 75.0682L350.574 75.4091C351.455 75.6136 351.869 76.0341 351.869 76.6364C351.869 77.3864 351.074 78 349.824 78C348.727 78 348.04 77.5284 347.801 76.5909L346.528 76.9091C346.841 78.392 348.062 79.1818 349.847 79.1818C351.875 79.1818 353.256 78.0739 353.256 76.5682C353.256 75.3523 352.494 74.5852 350.938 74.2045L349.642 73.8864C348.608 73.6307 348.142 73.2841 348.142 72.6136C348.142 71.8636 348.938 71.3182 350.006 71.3182C351.176 71.3182 351.659 71.9659 351.892 72.5682L353.097 72.2273Z" fill="white"/>
<path d="M255.051 61.2201C255.051 60.0029 253.483 59.5445 252.792 60.5534C246.456 69.8113 255.46 70.2281 255.46 74.7284C255.46 76.5505 253.971 78.0248 252.143 78.0011C250.343 77.9778 248.912 76.4785 248.912 74.6797V70.3066C248.912 69.1967 247.557 68.6586 246.792 69.4626C245.422 70.901 244 73.3646 244 76.3649C244 81.7791 248.407 86.1839 253.823 86.1839C259.24 86.1839 263.647 81.7791 263.647 76.3649C263.647 67.6562 255.051 66.4947 255.051 61.2201Z" fill="#00FFC2"/>
<path d="M257.098 119.364V113.636C257.098 112.733 257.831 112 258.735 112C259.639 112 260.372 112.733 260.372 113.636V119.364H257.098ZM262.828 120.182H244.819C244.366 120.182 244 120.549 244 121.001V122.637C244 123.089 244.366 123.455 244.819 123.455H245.637V125.092C245.637 129.05 248.45 132.352 252.186 133.111V138.184H255.46V133.111C259.197 132.352 262.009 129.05 262.009 125.092V123.455H262.828C263.28 123.455 263.647 123.089 263.647 122.637V121.001C263.647 120.549 263.28 120.182 262.828 120.182ZM250.549 119.364V113.636C250.549 112.733 249.816 112 248.912 112C248.007 112 247.274 112.733 247.274 113.636V119.364H250.549Z" fill="black"/>
<path d="M267.325 26.125H266.65V21.4801C266.65 20.9344 266.435 20.4102 266.055 20.0234L261.841 15.7309C261.461 15.3441 260.946 15.125 260.41 15.125H258.55V13.0625C258.55 11.9238 257.643 11 256.525 11H243.025C241.907 11 241 11.9238 241 13.0625V26.8125C241 27.9512 241.907 28.875 243.025 28.875H243.7C243.7 31.1523 245.514 33 247.75 33C249.986 33 251.8 31.1523 251.8 28.875H257.2C257.2 31.1523 259.014 33 261.25 33C263.486 33 265.3 31.1523 265.3 28.875H267.325C267.696 28.875 268 28.5656 268 28.1875V26.8125C268 26.4344 267.696 26.125 267.325 26.125ZM247.75 30.9375C246.632 30.9375 245.725 30.0137 245.725 28.875C245.725 27.7363 246.632 26.8125 247.75 26.8125C248.868 26.8125 249.775 27.7363 249.775 28.875C249.775 30.0137 248.868 30.9375 247.75 30.9375ZM261.25 30.9375C260.132 30.9375 259.225 30.0137 259.225 28.875C259.225 27.7363 260.132 26.8125 261.25 26.8125C262.368 26.8125 263.275 27.7363 263.275 28.875C263.275 30.0137 262.368 30.9375 261.25 30.9375ZM264.625 22H258.55V17.1875H260.41L264.625 21.4801V22Z" fill="black"/>
<rect x="3" y="47" width="207" height="52" rx="3" fill="#262D33"/>
<path d="M179 71L184 76L189 71H179Z" fill="#00FFC2"/>
<path d="M18.8864 79H17.4091L21.6818 67.3636H23.1364L27.4091 79H25.9318L24.8352 75.8864H19.983L18.8864 79ZM22.3409 69.2045L20.4261 74.6364H24.392L22.4773 69.2045H22.3409ZM30.3807 67.3636V79H29.0398V67.3636H30.3807ZM33.9901 67.3636V79H32.6491V67.3636H33.9901ZM44.4915 79.1818C43.7036 79.1818 43.0123 78.9943 42.4176 78.6193C41.8267 78.2443 41.3646 77.7197 41.0312 77.0455C40.7017 76.3712 40.5369 75.5833 40.5369 74.6818C40.5369 73.7727 40.7017 72.9792 41.0312 72.3011C41.3646 71.6231 41.8267 71.0966 42.4176 70.7216C43.0123 70.3466 43.7036 70.1591 44.4915 70.1591C45.2794 70.1591 45.9688 70.3466 46.5597 70.7216C47.1544 71.0966 47.6165 71.6231 47.946 72.3011C48.2794 72.9792 48.446 73.7727 48.446 74.6818C48.446 75.5833 48.2794 76.3712 47.946 77.0455C47.6165 77.7197 47.1544 78.2443 46.5597 78.6193C45.9688 78.9943 45.2794 79.1818 44.4915 79.1818ZM44.4915 77.9773C45.09 77.9773 45.5824 77.8239 45.9688 77.517C46.3551 77.2102 46.6411 76.8068 46.8267 76.3068C47.0123 75.8068 47.1051 75.2652 47.1051 74.6818C47.1051 74.0985 47.0123 73.5549 46.8267 73.0511C46.6411 72.5473 46.3551 72.1402 45.9688 71.8295C45.5824 71.5189 45.09 71.3636 44.4915 71.3636C43.893 71.3636 43.4006 71.5189 43.0142 71.8295C42.6278 72.1402 42.3419 72.5473 42.1562 73.0511C41.9706 73.5549 41.8778 74.0985 41.8778 74.6818C41.8778 75.2652 41.9706 75.8068 42.1562 76.3068C42.3419 76.8068 42.6278 77.2102 43.0142 77.517C43.4006 77.8239 43.893 77.9773 44.4915 77.9773ZM51.0838 79V71.5227H49.6747V70.2727H51.0838V69.4545C51.0838 68.9545 51.2012 68.5379 51.4361 68.2045C51.6709 67.8712 51.9759 67.6212 52.3509 67.4545C52.7259 67.2879 53.1217 67.2045 53.5384 67.2045C53.8679 67.2045 54.1368 67.2311 54.3452 67.2841C54.5535 67.3371 54.7088 67.3864 54.8111 67.4318L54.4247 68.5909C54.3565 68.5682 54.2618 68.5398 54.1406 68.5057C54.0232 68.4716 53.8679 68.4545 53.6747 68.4545C53.2315 68.4545 52.9115 68.5663 52.7145 68.7898C52.5213 69.0133 52.4247 69.3409 52.4247 69.7727V70.2727H54.3793V71.5227H52.4247V79H51.0838ZM61.2727 67.3636L63.7045 76.8409H63.8182L66.2955 67.3636H67.8864L70.3636 76.8409H70.4773L72.9091 67.3636H74.3409L71.1591 79H69.7045L67.1364 69.7273H67.0455L64.4773 79H63.0227L59.8409 67.3636H61.2727ZM78.7926 79.1818C77.9517 79.1818 77.2263 78.9962 76.6165 78.625C76.0104 78.25 75.5426 77.7273 75.2131 77.0568C74.8873 76.3826 74.7244 75.5985 74.7244 74.7045C74.7244 73.8106 74.8873 73.0227 75.2131 72.3409C75.5426 71.6553 76.0009 71.1212 76.5881 70.7386C77.179 70.3523 77.8684 70.1591 78.6562 70.1591C79.1108 70.1591 79.5597 70.2348 80.0028 70.3864C80.446 70.5379 80.8494 70.7841 81.2131 71.125C81.5767 71.4621 81.8665 71.911 82.0824 72.4716C82.2983 73.0284 82.4062 73.7121 82.4062 74.5227V75.0909H76.0824C76.1506 76.0341 76.4214 76.7519 76.8949 77.2443C77.3684 77.733 78.0009 77.9773 78.7926 77.9773C79.3267 77.9773 79.7812 77.8636 80.1562 77.6364C80.5312 77.4091 80.804 77.0682 80.9744 76.6136L82.2699 76.9773C82.0653 77.6364 81.6562 78.1686 81.0426 78.5739C80.429 78.9792 79.679 79.1818 78.7926 79.1818ZM78.6562 71.3636C77.9858 71.3636 77.4214 71.5871 76.9631 72.0341C76.5047 72.4811 76.2206 73.1136 76.1108 73.9318H81.0426C81.0426 73.1932 80.8267 72.5814 80.3949 72.0966C79.9631 71.608 79.3835 71.3636 78.6562 71.3636ZM85.8182 67.3636V79H84.4773V67.3636H85.8182ZM89.4276 67.3636V79H88.0866V67.3636H89.4276ZM92.5426 69.0227C92.2472 69.0227 92.0142 68.9337 91.8438 68.7557C91.6733 68.5777 91.5881 68.3636 91.5881 68.1136C91.5881 67.8864 91.6733 67.678 91.8438 67.4886C92.0142 67.2992 92.2472 67.2045 92.5426 67.2045C92.8381 67.2045 93.071 67.2992 93.2415 67.4886C93.4119 67.678 93.4972 67.8864 93.4972 68.1136C93.4972 68.3636 93.4119 68.5777 93.2415 68.7557C93.071 68.9337 92.8381 69.0227 92.5426 69.0227ZM93.2244 70.2727V79H91.8835V70.2727H93.2244ZM97.0213 73.8409V79H95.6804V70.2727H97.0213V71.75H97.1122C97.3168 71.3068 97.6349 70.9318 98.0668 70.625C98.4986 70.3144 99.044 70.1591 99.7031 70.1591C100.521 70.1591 101.196 70.4299 101.726 70.9716C102.256 71.5133 102.521 72.3409 102.521 73.4545V79H101.18V73.5455C101.18 72.9091 101 72.4015 100.641 72.0227C100.285 71.6439 99.8281 71.4545 99.2713 71.4545C98.938 71.4545 98.5971 71.5398 98.2486 71.7102C97.9039 71.8807 97.6122 72.142 97.3736 72.4943C97.1387 72.8466 97.0213 73.2955 97.0213 73.8409ZM110.93 70.2727H112.226V79.0682C112.226 79.8182 112.048 80.428 111.692 80.8977C111.336 81.3712 110.868 81.7178 110.288 81.9375C109.709 82.161 109.082 82.2727 108.408 82.2727C107.476 82.2727 106.724 82.0966 106.152 81.7443C105.58 81.3958 105.158 80.9886 104.885 80.5227L105.953 79.7727C106.067 79.9167 106.218 80.0909 106.408 80.2955C106.601 80.5 106.857 80.6799 107.175 80.8352C107.497 80.9905 107.908 81.0682 108.408 81.0682C108.855 81.0682 109.268 80.9905 109.646 80.8352C110.025 80.6837 110.328 80.4489 110.555 80.1307C110.783 79.8163 110.893 79.4167 110.885 78.9318V77.3864H110.771C110.673 77.5455 110.533 77.7424 110.351 77.9773C110.173 78.2083 109.915 78.4148 109.578 78.5966C109.245 78.7746 108.794 78.8636 108.226 78.8636C107.521 78.8636 106.889 78.697 106.328 78.3636C105.771 78.0303 105.33 77.5455 105.004 76.9091C104.682 76.2727 104.521 75.5 104.521 74.5909C104.521 73.697 104.679 72.9186 104.993 72.2557C105.307 71.589 105.745 71.0739 106.305 70.7102C106.866 70.3428 107.514 70.1591 108.249 70.1591C108.817 70.1591 109.268 70.2538 109.601 70.4432C109.938 70.6288 110.196 70.8409 110.374 71.0795C110.555 71.3144 110.696 71.5076 110.794 71.6591H110.93V70.2727ZM105.862 74.5682C105.862 75.4773 106.076 76.2197 106.504 76.7955C106.932 77.3712 107.567 77.6591 108.408 77.6591C109.214 77.6591 109.832 77.3864 110.26 76.8409C110.692 76.2917 110.908 75.5341 110.908 74.5682C110.908 73.625 110.696 72.8561 110.271 72.2614C109.847 71.6629 109.226 71.3636 108.408 71.3636C107.839 71.3636 107.366 71.5076 106.987 71.7955C106.612 72.0833 106.33 72.4697 106.141 72.9545C105.955 73.4394 105.862 73.9773 105.862 74.5682ZM118.339 70.2727V71.5227H116.476V76.5C116.476 76.8788 116.531 77.1629 116.641 77.3523C116.754 77.5379 116.898 77.6629 117.072 77.7273C117.25 77.7879 117.438 77.8182 117.635 77.8182C117.783 77.8182 117.904 77.8106 117.999 77.7955C118.093 77.7765 118.169 77.7614 118.226 77.75L118.499 78.9545C118.408 78.9886 118.281 79.0227 118.118 79.0568C117.955 79.0947 117.749 79.1136 117.499 79.1136C117.12 79.1136 116.749 79.0322 116.385 78.8693C116.025 78.7064 115.726 78.4583 115.487 78.125C115.252 77.7917 115.135 77.3712 115.135 76.8636V71.5227H113.817V70.2727H115.135V68.4091H116.476V70.2727H118.339ZM123.804 79.1818C123.016 79.1818 122.325 78.9943 121.73 78.6193C121.139 78.2443 120.677 77.7197 120.344 77.0455C120.014 76.3712 119.849 75.5833 119.849 74.6818C119.849 73.7727 120.014 72.9792 120.344 72.3011C120.677 71.6231 121.139 71.0966 121.73 70.7216C122.325 70.3466 123.016 70.1591 123.804 70.1591C124.592 70.1591 125.281 70.3466 125.872 70.7216C126.467 71.0966 126.929 71.6231 127.259 72.3011C127.592 72.9792 127.759 73.7727 127.759 74.6818C127.759 75.5833 127.592 76.3712 127.259 77.0455C126.929 77.7197 126.467 78.2443 125.872 78.6193C125.281 78.9943 124.592 79.1818 123.804 79.1818ZM123.804 77.9773C124.402 77.9773 124.895 77.8239 125.281 77.517C125.668 77.2102 125.954 76.8068 126.139 76.3068C126.325 75.8068 126.418 75.2652 126.418 74.6818C126.418 74.0985 126.325 73.5549 126.139 73.0511C125.954 72.5473 125.668 72.1402 125.281 71.8295C124.895 71.5189 124.402 71.3636 123.804 71.3636C123.205 71.3636 122.713 71.5189 122.327 71.8295C121.94 72.1402 121.654 72.5473 121.469 73.0511C121.283 73.5549 121.19 74.0985 121.19 74.6818C121.19 75.2652 121.283 75.8068 121.469 76.3068C121.654 76.8068 121.94 77.2102 122.327 77.517C122.713 77.8239 123.205 77.9773 123.804 77.9773ZM131.146 73.8409V79H129.805V70.2727H131.146V71.75H131.237C131.442 71.3068 131.76 70.9318 132.192 70.625C132.624 70.3144 133.169 70.1591 133.828 70.1591C134.646 70.1591 135.321 70.4299 135.851 70.9716C136.381 71.5133 136.646 72.3409 136.646 73.4545V79H135.305V73.5455C135.305 72.9091 135.125 72.4015 134.766 72.0227C134.41 71.6439 133.953 71.4545 133.396 71.4545C133.063 71.4545 132.722 71.5398 132.374 71.7102C132.029 71.8807 131.737 72.142 131.499 72.4943C131.264 72.8466 131.146 73.2955 131.146 73.8409Z" fill="white"/>
<path d="M287.523 26.75V28H280.409V16.3636H287.432V17.6136H281.818V21.5455H286.841V22.7955H281.818V26.75H287.523ZM291.131 22.8409V28H289.79V19.2727H291.131V20.75H291.222C291.426 20.3068 291.744 19.9318 292.176 19.625C292.608 19.3144 293.153 19.1591 293.812 19.1591C294.631 19.1591 295.305 19.4299 295.835 19.9716C296.366 20.5133 296.631 21.3409 296.631 22.4545V28H295.29V22.5455C295.29 21.9091 295.11 21.4015 294.75 21.0227C294.394 20.6439 293.938 20.4545 293.381 20.4545C293.047 20.4545 292.706 20.5398 292.358 20.7102C292.013 20.8807 291.722 21.142 291.483 21.4943C291.248 21.8466 291.131 22.2955 291.131 22.8409ZM302.699 28.1818C301.858 28.1818 301.133 27.9962 300.523 27.625C299.917 27.25 299.449 26.7273 299.119 26.0568C298.794 25.3826 298.631 24.5985 298.631 23.7045C298.631 22.8106 298.794 22.0227 299.119 21.3409C299.449 20.6553 299.907 20.1212 300.494 19.7386C301.085 19.3523 301.775 19.1591 302.562 19.1591C303.017 19.1591 303.466 19.2348 303.909 19.3864C304.352 19.5379 304.756 19.7841 305.119 20.125C305.483 20.4621 305.773 20.911 305.989 21.4716C306.205 22.0284 306.312 22.7121 306.312 23.5227V24.0909H299.989C300.057 25.0341 300.328 25.7519 300.801 26.2443C301.275 26.733 301.907 26.9773 302.699 26.9773C303.233 26.9773 303.688 26.8636 304.062 26.6364C304.438 26.4091 304.71 26.0682 304.881 25.6136L306.176 25.9773C305.972 26.6364 305.562 27.1686 304.949 27.5739C304.335 27.9792 303.585 28.1818 302.699 28.1818ZM302.562 20.3636C301.892 20.3636 301.328 20.5871 300.869 21.0341C300.411 21.4811 300.127 22.1136 300.017 22.9318H304.949C304.949 22.1932 304.733 21.5814 304.301 21.0966C303.869 20.608 303.29 20.3636 302.562 20.3636ZM313.202 19.4545L312.747 20.7045C312.679 20.6705 312.584 20.6326 312.463 20.5909C312.346 20.5455 312.19 20.5227 311.997 20.5227C311.52 20.5227 311.113 20.6534 310.776 20.9148C310.442 21.1723 310.185 21.4981 310.003 21.892C309.825 22.2822 309.732 22.6742 309.724 23.0682V28H308.384V19.2727H309.724V20.7727H309.815C309.899 20.4924 310.05 20.2273 310.27 19.9773C310.493 19.7273 310.759 19.5246 311.065 19.3693C311.376 19.214 311.702 19.1364 312.043 19.1364C312.27 19.1364 312.486 19.1705 312.69 19.2386C312.895 19.303 313.065 19.375 313.202 19.4545ZM320.212 19.2727H321.507V28.0682C321.507 28.8182 321.329 29.428 320.973 29.8977C320.617 30.3712 320.149 30.7178 319.57 30.9375C318.99 31.161 318.363 31.2727 317.689 31.2727C316.757 31.2727 316.005 31.0966 315.433 30.7443C314.861 30.3958 314.439 29.9886 314.166 29.5227L315.234 28.7727C315.348 28.9167 315.5 29.0909 315.689 29.2955C315.882 29.5 316.138 29.6799 316.456 29.8352C316.778 29.9905 317.189 30.0682 317.689 30.0682C318.136 30.0682 318.549 29.9905 318.928 29.8352C319.306 29.6837 319.609 29.4489 319.837 29.1307C320.064 28.8163 320.174 28.4167 320.166 27.9318V26.3864H320.053C319.954 26.5455 319.814 26.7424 319.632 26.9773C319.454 27.2083 319.196 27.4148 318.859 27.5966C318.526 27.7746 318.075 27.8636 317.507 27.8636C316.803 27.8636 316.17 27.697 315.609 27.3636C315.053 27.0303 314.611 26.5455 314.286 25.9091C313.964 25.2727 313.803 24.5 313.803 23.5909C313.803 22.697 313.96 21.9186 314.274 21.2557C314.589 20.589 315.026 20.0739 315.587 19.7102C316.147 19.3428 316.795 19.1591 317.53 19.1591C318.098 19.1591 318.549 19.2538 318.882 19.4432C319.219 19.6288 319.477 19.8409 319.655 20.0795C319.837 20.3144 319.977 20.5076 320.075 20.6591H320.212V19.2727ZM315.143 23.5682C315.143 24.4773 315.357 25.2197 315.786 25.7955C316.214 26.3712 316.848 26.6591 317.689 26.6591C318.496 26.6591 319.113 26.3864 319.541 25.8409C319.973 25.2917 320.189 24.5341 320.189 23.5682C320.189 22.625 319.977 21.8561 319.553 21.2614C319.128 20.6629 318.507 20.3636 317.689 20.3636C317.121 20.3636 316.647 20.5076 316.268 20.7955C315.893 21.0833 315.611 21.4697 315.422 21.9545C315.236 22.4394 315.143 22.9773 315.143 23.5682ZM326.212 28.8636L326.518 28.0568L323.28 19.2727H324.734L327.138 26.2273H327.234L329.643 19.2727H331.098L327.348 29.4091C326.856 30.7273 326 31.3864 324.78 31.3864C324.553 31.3864 324.35 31.3674 324.172 31.3295C323.994 31.2955 323.871 31.2614 323.803 31.2273L324.143 30.0455C324.462 30.1212 324.744 30.1477 324.99 30.125C325.24 30.1023 325.464 29.9943 325.661 29.8011C325.861 29.608 326.045 29.2955 326.212 28.8636ZM341.141 28H337.55V16.3636H341.3C342.429 16.3636 343.394 16.5966 344.197 17.0625C345 17.5246 345.616 18.1894 346.044 19.0568C346.472 19.9205 346.686 20.9545 346.686 22.1591C346.686 23.3712 346.47 24.4148 346.038 25.2898C345.607 26.161 344.978 26.8314 344.152 27.3011C343.326 27.767 342.322 28 341.141 28ZM341.209 17.6136H338.959V26.75H341.05C342.493 26.75 343.565 26.3409 344.266 25.5227C344.97 24.7008 345.322 23.5795 345.322 22.1591C345.322 20.75 344.978 19.6402 344.288 18.8295C343.599 18.0189 342.572 17.6136 341.209 17.6136ZM352.527 28.1818C351.686 28.1818 350.961 27.9962 350.351 27.625C349.745 27.25 349.277 26.7273 348.947 26.0568C348.622 25.3826 348.459 24.5985 348.459 23.7045C348.459 22.8106 348.622 22.0227 348.947 21.3409C349.277 20.6553 349.735 20.1212 350.322 19.7386C350.913 19.3523 351.603 19.1591 352.391 19.1591C352.845 19.1591 353.294 19.2348 353.737 19.3864C354.18 19.5379 354.584 19.7841 354.947 20.125C355.311 20.4621 355.601 20.911 355.817 21.4716C356.033 22.0284 356.141 22.7121 356.141 23.5227V24.0909H349.817C349.885 25.0341 350.156 25.7519 350.629 26.2443C351.103 26.733 351.735 26.9773 352.527 26.9773C353.061 26.9773 353.516 26.8636 353.891 26.6364C354.266 26.4091 354.538 26.0682 354.709 25.6136L356.004 25.9773C355.8 26.6364 355.391 27.1686 354.777 27.5739C354.163 27.9792 353.413 28.1818 352.527 28.1818ZM352.391 20.3636C351.72 20.3636 351.156 20.5871 350.697 21.0341C350.239 21.4811 349.955 22.1136 349.845 22.9318H354.777C354.777 22.1932 354.561 21.5814 354.129 21.0966C353.697 20.608 353.118 20.3636 352.391 20.3636ZM364.507 22.5227V28H363.143V22.2955C363.143 21.6364 363 21.1648 362.712 20.8807C362.428 20.5966 362.041 20.4545 361.553 20.4545C361.212 20.4545 360.888 20.5511 360.581 20.7443C360.278 20.9337 360.03 21.2045 359.837 21.5568C359.647 21.9053 359.553 22.3182 359.553 22.7955V28H358.212V19.2727H359.553V20.75H359.643C359.727 20.5 359.876 20.2538 360.092 20.0114C360.312 19.7652 360.577 19.5625 360.888 19.4034C361.202 19.2405 361.545 19.1591 361.916 19.1591C362.462 19.1591 362.924 19.3125 363.303 19.6193C363.685 19.9261 363.973 20.2955 364.166 20.7273H364.257C364.34 20.4848 364.5 20.2443 364.734 20.0057C364.973 19.7633 365.267 19.5625 365.615 19.4034C365.967 19.2405 366.356 19.1591 366.78 19.1591C367.265 19.1591 367.706 19.2727 368.104 19.5C368.505 19.7235 368.823 20.0682 369.058 20.5341C369.297 20.9962 369.416 21.5833 369.416 22.2955V28H368.075V22.25C368.075 21.7955 367.982 21.4375 367.797 21.1761C367.615 20.9148 367.392 20.7292 367.126 20.6193C366.865 20.5095 366.613 20.4545 366.371 20.4545C365.78 20.4545 365.321 20.6458 364.996 21.0284C364.67 21.411 364.507 21.9091 364.507 22.5227ZM377.095 28V26.8182H377.027C376.936 27.0076 376.785 27.2102 376.572 27.4261C376.36 27.642 376.078 27.8258 375.726 27.9773C375.374 28.1288 374.944 28.2045 374.436 28.2045C373.883 28.2045 373.381 28.1004 372.93 27.892C372.48 27.6799 372.122 27.375 371.857 26.9773C371.591 26.5758 371.459 26.0909 371.459 25.5227C371.459 25.0303 371.557 24.6269 371.754 24.3125C371.951 23.9981 372.213 23.7519 372.538 23.5739C372.864 23.3958 373.228 23.2614 373.629 23.1705C374.031 23.0795 374.436 23.0076 374.845 22.9545C375.247 22.9015 375.618 22.8598 375.959 22.8295C376.3 22.7992 376.574 22.7462 376.783 22.6705C376.991 22.5947 377.095 22.4621 377.095 22.2727V22.25C377.095 21.5227 376.923 21.0227 376.578 20.75C376.233 20.4773 375.8 20.3409 375.277 20.3409C374.629 20.3409 374.122 20.4811 373.754 20.7614C373.387 21.0417 373.129 21.3409 372.982 21.6591L371.709 21.2045C371.936 20.6742 372.239 20.2614 372.618 19.9659C373 19.6667 373.417 19.4583 373.868 19.3409C374.322 19.2197 374.769 19.1591 375.209 19.1591C375.489 19.1591 375.811 19.1932 376.175 19.2614C376.542 19.3258 376.896 19.4602 377.237 19.6648C377.582 19.8693 377.868 20.178 378.095 20.5909C378.322 21.0038 378.436 21.5568 378.436 22.25V28H377.095ZM377.095 24.8409V23.6136C377.038 23.6818 376.913 23.7443 376.72 23.8011C376.531 23.8542 376.311 23.9015 376.061 23.9432C375.815 23.9811 375.574 24.0152 375.339 24.0455C375.108 24.0758 374.921 24.0985 374.777 24.1136C374.429 24.1591 374.103 24.233 373.8 24.3352C373.5 24.4337 373.258 24.5833 373.072 24.7841C372.891 24.9811 372.8 25.25 372.8 25.5909C372.8 26.0568 372.972 26.4091 373.317 26.6477C373.665 26.8826 374.107 27 374.641 27C375.171 27 375.618 26.8958 375.982 26.6875C376.349 26.4792 376.625 26.2102 376.811 25.8807C377 25.5511 377.095 25.2045 377.095 24.8409ZM382.224 22.8409V28H380.884V19.2727H382.224V20.75H382.315C382.52 20.3068 382.838 19.9318 383.27 19.625C383.702 19.3144 384.247 19.1591 384.906 19.1591C385.724 19.1591 386.399 19.4299 386.929 19.9716C387.459 20.5133 387.724 21.3409 387.724 22.4545V28H386.384V22.5455C386.384 21.9091 386.204 21.4015 385.844 21.0227C385.488 20.6439 385.031 20.4545 384.474 20.4545C384.141 20.4545 383.8 20.5398 383.452 20.7102C383.107 20.8807 382.815 21.142 382.577 21.4943C382.342 21.8466 382.224 22.2955 382.224 22.8409ZM397.429 28H396.134V26.6591H395.997C395.899 26.8182 395.757 27.0189 395.571 27.2614C395.385 27.5 395.122 27.714 394.781 27.9034C394.44 28.089 393.99 28.1818 393.429 28.1818C392.702 28.1818 392.06 27.9981 391.503 27.6307C390.946 27.2595 390.51 26.7367 390.196 26.0625C389.882 25.3845 389.724 24.5833 389.724 23.6591C389.724 22.7424 389.882 21.947 390.196 21.2727C390.51 20.5985 390.948 20.0777 391.509 19.7102C392.069 19.3428 392.717 19.1591 393.452 19.1591C394.02 19.1591 394.471 19.2538 394.804 19.4432C395.141 19.6288 395.399 19.8409 395.577 20.0795C395.759 20.3144 395.899 20.5076 395.997 20.6591H396.088V16.3636H397.429V28ZM391.065 23.6364C391.065 24.2576 391.16 24.822 391.349 25.3295C391.543 25.8333 391.827 26.2348 392.202 26.5341C392.58 26.8295 393.05 26.9773 393.611 26.9773C394.418 26.9773 395.035 26.6686 395.463 26.0511C395.895 25.4299 396.111 24.625 396.111 23.6364C396.111 22.6591 395.899 21.8693 395.474 21.267C395.05 20.6648 394.429 20.3636 393.611 20.3636C393.043 20.3636 392.569 20.5095 392.19 20.8011C391.815 21.089 391.533 21.4811 391.344 21.9773C391.158 22.4697 391.065 23.0227 391.065 23.6364Z" fill="black"/>
<path d="M287.523 129.75V131H280.409V119.364H287.432V120.614H281.818V124.545H286.841V125.795H281.818V129.75H287.523ZM291.131 119.364V131H289.79V119.364H291.131ZM297.246 131.182C296.405 131.182 295.679 130.996 295.07 130.625C294.464 130.25 293.996 129.727 293.666 129.057C293.34 128.383 293.178 127.598 293.178 126.705C293.178 125.811 293.34 125.023 293.666 124.341C293.996 123.655 294.454 123.121 295.041 122.739C295.632 122.352 296.321 122.159 297.109 122.159C297.564 122.159 298.013 122.235 298.456 122.386C298.899 122.538 299.303 122.784 299.666 123.125C300.03 123.462 300.32 123.911 300.536 124.472C300.751 125.028 300.859 125.712 300.859 126.523V127.091H294.536C294.604 128.034 294.875 128.752 295.348 129.244C295.821 129.733 296.454 129.977 297.246 129.977C297.78 129.977 298.234 129.864 298.609 129.636C298.984 129.409 299.257 129.068 299.428 128.614L300.723 128.977C300.518 129.636 300.109 130.169 299.496 130.574C298.882 130.979 298.132 131.182 297.246 131.182ZM297.109 123.364C296.439 123.364 295.875 123.587 295.416 124.034C294.958 124.481 294.674 125.114 294.564 125.932H299.496C299.496 125.193 299.28 124.581 298.848 124.097C298.416 123.608 297.837 123.364 297.109 123.364ZM309.908 124.886H308.567C308.464 124.489 308.237 124.136 307.885 123.83C307.536 123.519 307.067 123.364 306.476 123.364C305.692 123.364 305.059 123.663 304.578 124.261C304.101 124.856 303.862 125.648 303.862 126.636C303.862 127.648 304.099 128.458 304.572 129.068C305.046 129.674 305.68 129.977 306.476 129.977C306.999 129.977 307.446 129.843 307.817 129.574C308.192 129.305 308.442 128.932 308.567 128.455H309.908C309.832 128.97 309.644 129.434 309.345 129.847C309.05 130.256 308.658 130.581 308.169 130.824C307.684 131.062 307.12 131.182 306.476 131.182C305.665 131.182 304.964 130.991 304.374 130.608C303.783 130.222 303.326 129.687 303.004 129.006C302.682 128.32 302.521 127.53 302.521 126.636C302.521 125.765 302.684 124.992 303.01 124.318C303.339 123.644 303.798 123.116 304.385 122.733C304.976 122.35 305.665 122.159 306.453 122.159C307.067 122.159 307.62 122.273 308.112 122.5C308.605 122.727 309.008 123.045 309.322 123.455C309.637 123.864 309.832 124.341 309.908 124.886ZM315.652 122.273V123.523H313.788V128.5C313.788 128.879 313.843 129.163 313.953 129.352C314.067 129.538 314.211 129.663 314.385 129.727C314.563 129.788 314.75 129.818 314.947 129.818C315.095 129.818 315.216 129.811 315.311 129.795C315.406 129.777 315.482 129.761 315.538 129.75L315.811 130.955C315.72 130.989 315.593 131.023 315.43 131.057C315.268 131.095 315.061 131.114 314.811 131.114C314.432 131.114 314.061 131.032 313.697 130.869C313.338 130.706 313.038 130.458 312.8 130.125C312.565 129.792 312.447 129.371 312.447 128.864V123.523H311.129V122.273H312.447V120.409H313.788V122.273H315.652ZM322.499 122.455L322.044 123.705C321.976 123.67 321.881 123.633 321.76 123.591C321.643 123.545 321.487 123.523 321.294 123.523C320.817 123.523 320.41 123.653 320.072 123.915C319.739 124.172 319.482 124.498 319.3 124.892C319.122 125.282 319.029 125.674 319.021 126.068V131H317.68V122.273H319.021V123.773H319.112C319.196 123.492 319.347 123.227 319.567 122.977C319.79 122.727 320.055 122.525 320.362 122.369C320.673 122.214 320.999 122.136 321.339 122.136C321.567 122.136 321.783 122.17 321.987 122.239C322.192 122.303 322.362 122.375 322.499 122.455ZM324.683 121.023C324.388 121.023 324.155 120.934 323.984 120.756C323.814 120.578 323.729 120.364 323.729 120.114C323.729 119.886 323.814 119.678 323.984 119.489C324.155 119.299 324.388 119.205 324.683 119.205C324.979 119.205 325.212 119.299 325.382 119.489C325.553 119.678 325.638 119.886 325.638 120.114C325.638 120.364 325.553 120.578 325.382 120.756C325.212 120.934 324.979 121.023 324.683 121.023ZM325.365 122.273V131H324.024V122.273H325.365ZM334.798 124.886H333.457C333.355 124.489 333.128 124.136 332.776 123.83C332.427 123.519 331.957 123.364 331.366 123.364C330.582 123.364 329.95 123.663 329.469 124.261C328.991 124.856 328.753 125.648 328.753 126.636C328.753 127.648 328.99 128.458 329.463 129.068C329.937 129.674 330.571 129.977 331.366 129.977C331.889 129.977 332.336 129.843 332.707 129.574C333.082 129.305 333.332 128.932 333.457 128.455H334.798C334.723 128.97 334.535 129.434 334.236 129.847C333.94 130.256 333.548 130.581 333.06 130.824C332.575 131.062 332.01 131.182 331.366 131.182C330.556 131.182 329.855 130.991 329.264 130.608C328.673 130.222 328.217 129.687 327.895 129.006C327.573 128.32 327.412 127.53 327.412 126.636C327.412 125.765 327.575 124.992 327.901 124.318C328.23 123.644 328.688 123.116 329.276 122.733C329.866 122.35 330.556 122.159 331.344 122.159C331.957 122.159 332.51 122.273 333.003 122.5C333.495 122.727 333.899 123.045 334.213 123.455C334.527 123.864 334.723 124.341 334.798 124.886ZM337.418 121.023C337.122 121.023 336.889 120.934 336.719 120.756C336.548 120.578 336.463 120.364 336.463 120.114C336.463 119.886 336.548 119.678 336.719 119.489C336.889 119.299 337.122 119.205 337.418 119.205C337.713 119.205 337.946 119.299 338.116 119.489C338.287 119.678 338.372 119.886 338.372 120.114C338.372 120.364 338.287 120.578 338.116 120.756C337.946 120.934 337.713 121.023 337.418 121.023ZM338.099 122.273V131H336.759V122.273H338.099ZM344.214 122.273V123.523H342.351V128.5C342.351 128.879 342.406 129.163 342.516 129.352C342.629 129.538 342.773 129.663 342.947 129.727C343.125 129.788 343.313 129.818 343.51 129.818C343.658 129.818 343.779 129.811 343.874 129.795C343.968 129.777 344.044 129.761 344.101 129.75L344.374 130.955C344.283 130.989 344.156 131.023 343.993 131.057C343.83 131.095 343.624 131.114 343.374 131.114C342.995 131.114 342.624 131.032 342.26 130.869C341.9 130.706 341.601 130.458 341.362 130.125C341.127 129.792 341.01 129.371 341.01 128.864V123.523H339.692V122.273H341.01V120.409H342.351V122.273H344.214ZM348.493 131.864L348.8 131.057L345.561 122.273H347.016L349.419 129.227H349.516L351.925 122.273H353.379L349.629 132.409C349.137 133.727 348.281 134.386 347.061 134.386C346.834 134.386 346.631 134.367 346.453 134.33C346.275 134.295 346.152 134.261 346.084 134.227L346.425 133.045C346.743 133.121 347.025 133.148 347.271 133.125C347.521 133.102 347.745 132.994 347.942 132.801C348.143 132.608 348.326 132.295 348.493 131.864ZM363.422 131H359.831V119.364H363.581C364.71 119.364 365.676 119.597 366.479 120.062C367.282 120.525 367.897 121.189 368.325 122.057C368.753 122.92 368.967 123.955 368.967 125.159C368.967 126.371 368.751 127.415 368.32 128.29C367.888 129.161 367.259 129.831 366.433 130.301C365.607 130.767 364.604 131 363.422 131ZM363.49 120.614H361.24V129.75H363.331C364.774 129.75 365.846 129.341 366.547 128.523C367.251 127.701 367.604 126.58 367.604 125.159C367.604 123.75 367.259 122.64 366.57 121.83C365.88 121.019 364.854 120.614 363.49 120.614ZM374.808 131.182C373.967 131.182 373.242 130.996 372.632 130.625C372.026 130.25 371.558 129.727 371.229 129.057C370.903 128.383 370.74 127.598 370.74 126.705C370.74 125.811 370.903 125.023 371.229 124.341C371.558 123.655 372.017 123.121 372.604 122.739C373.195 122.352 373.884 122.159 374.672 122.159C375.126 122.159 375.575 122.235 376.018 122.386C376.462 122.538 376.865 122.784 377.229 123.125C377.592 123.462 377.882 123.911 378.098 124.472C378.314 125.028 378.422 125.712 378.422 126.523V127.091H372.098C372.166 128.034 372.437 128.752 372.911 129.244C373.384 129.733 374.017 129.977 374.808 129.977C375.342 129.977 375.797 129.864 376.172 129.636C376.547 129.409 376.82 129.068 376.99 128.614L378.286 128.977C378.081 129.636 377.672 130.169 377.058 130.574C376.445 130.979 375.695 131.182 374.808 131.182ZM374.672 123.364C374.001 123.364 373.437 123.587 372.979 124.034C372.52 124.481 372.236 125.114 372.126 125.932H377.058C377.058 125.193 376.842 124.581 376.411 124.097C375.979 123.608 375.399 123.364 374.672 123.364ZM386.788 125.523V131H385.425V125.295C385.425 124.636 385.281 124.165 384.993 123.881C384.709 123.597 384.322 123.455 383.834 123.455C383.493 123.455 383.169 123.551 382.862 123.744C382.559 123.934 382.311 124.205 382.118 124.557C381.929 124.905 381.834 125.318 381.834 125.795V131H380.493V122.273H381.834V123.75H381.925C382.008 123.5 382.158 123.254 382.374 123.011C382.593 122.765 382.858 122.562 383.169 122.403C383.483 122.241 383.826 122.159 384.197 122.159C384.743 122.159 385.205 122.312 385.584 122.619C385.966 122.926 386.254 123.295 386.447 123.727H386.538C386.622 123.485 386.781 123.244 387.016 123.006C387.254 122.763 387.548 122.562 387.896 122.403C388.249 122.241 388.637 122.159 389.061 122.159C389.546 122.159 389.987 122.273 390.385 122.5C390.786 122.723 391.105 123.068 391.339 123.534C391.578 123.996 391.697 124.583 391.697 125.295V131H390.357V125.25C390.357 124.795 390.264 124.437 390.078 124.176C389.896 123.915 389.673 123.729 389.408 123.619C389.146 123.509 388.894 123.455 388.652 123.455C388.061 123.455 387.603 123.646 387.277 124.028C386.951 124.411 386.788 124.909 386.788 125.523ZM399.376 131V129.818H399.308C399.217 130.008 399.066 130.21 398.854 130.426C398.642 130.642 398.359 130.826 398.007 130.977C397.655 131.129 397.225 131.205 396.717 131.205C396.164 131.205 395.662 131.1 395.212 130.892C394.761 130.68 394.403 130.375 394.138 129.977C393.873 129.576 393.74 129.091 393.74 128.523C393.74 128.03 393.839 127.627 394.036 127.312C394.232 126.998 394.494 126.752 394.82 126.574C395.145 126.396 395.509 126.261 395.911 126.17C396.312 126.08 396.717 126.008 397.126 125.955C397.528 125.902 397.899 125.86 398.24 125.83C398.581 125.799 398.856 125.746 399.064 125.67C399.272 125.595 399.376 125.462 399.376 125.273V125.25C399.376 124.523 399.204 124.023 398.859 123.75C398.515 123.477 398.081 123.341 397.558 123.341C396.911 123.341 396.403 123.481 396.036 123.761C395.668 124.042 395.411 124.341 395.263 124.659L393.99 124.205C394.217 123.674 394.52 123.261 394.899 122.966C395.282 122.667 395.698 122.458 396.149 122.341C396.604 122.22 397.051 122.159 397.49 122.159C397.77 122.159 398.092 122.193 398.456 122.261C398.823 122.326 399.178 122.46 399.518 122.665C399.863 122.869 400.149 123.178 400.376 123.591C400.604 124.004 400.717 124.557 400.717 125.25V131H399.376ZM399.376 127.841V126.614C399.32 126.682 399.195 126.744 399.001 126.801C398.812 126.854 398.592 126.902 398.342 126.943C398.096 126.981 397.856 127.015 397.621 127.045C397.39 127.076 397.202 127.098 397.058 127.114C396.71 127.159 396.384 127.233 396.081 127.335C395.782 127.434 395.539 127.583 395.354 127.784C395.172 127.981 395.081 128.25 395.081 128.591C395.081 129.057 395.253 129.409 395.598 129.648C395.946 129.883 396.388 130 396.922 130C397.452 130 397.899 129.896 398.263 129.688C398.63 129.479 398.907 129.21 399.092 128.881C399.282 128.551 399.376 128.205 399.376 127.841ZM404.506 125.841V131H403.165V122.273H404.506V123.75H404.597C404.801 123.307 405.119 122.932 405.551 122.625C405.983 122.314 406.528 122.159 407.188 122.159C408.006 122.159 408.68 122.43 409.21 122.972C409.741 123.513 410.006 124.341 410.006 125.455V131H408.665V125.545C408.665 124.909 408.485 124.402 408.125 124.023C407.769 123.644 407.313 123.455 406.756 123.455C406.422 123.455 406.081 123.54 405.733 123.71C405.388 123.881 405.097 124.142 404.858 124.494C404.623 124.847 404.506 125.295 404.506 125.841ZM419.71 131H418.415V129.659H418.278C418.18 129.818 418.038 130.019 417.852 130.261C417.667 130.5 417.403 130.714 417.062 130.903C416.722 131.089 416.271 131.182 415.71 131.182C414.983 131.182 414.341 130.998 413.784 130.631C413.227 130.259 412.792 129.737 412.477 129.062C412.163 128.384 412.006 127.583 412.006 126.659C412.006 125.742 412.163 124.947 412.477 124.273C412.792 123.598 413.229 123.078 413.79 122.71C414.35 122.343 414.998 122.159 415.733 122.159C416.301 122.159 416.752 122.254 417.085 122.443C417.422 122.629 417.68 122.841 417.858 123.08C418.04 123.314 418.18 123.508 418.278 123.659H418.369V119.364H419.71V131ZM413.347 126.636C413.347 127.258 413.441 127.822 413.631 128.33C413.824 128.833 414.108 129.235 414.483 129.534C414.862 129.83 415.331 129.977 415.892 129.977C416.699 129.977 417.316 129.669 417.744 129.051C418.176 128.43 418.392 127.625 418.392 126.636C418.392 125.659 418.18 124.869 417.756 124.267C417.331 123.665 416.71 123.364 415.892 123.364C415.324 123.364 414.85 123.509 414.472 123.801C414.097 124.089 413.814 124.481 413.625 124.977C413.439 125.47 413.347 126.023 413.347 126.636Z" fill="black"/>
<path d="M18.7727 16.3636L21.2045 25.8409H21.3182L23.7955 16.3636H25.3864L27.8636 25.8409H27.9773L30.4091 16.3636H31.8409L28.6591 28H27.2045L24.6364 18.7273H24.5455L21.9773 28H20.5227L17.3409 16.3636H18.7727ZM37.8608 28V26.8182H37.7926C37.7017 27.0076 37.5502 27.2102 37.3381 27.4261C37.1259 27.642 36.8438 27.8258 36.4915 27.9773C36.1392 28.1288 35.7093 28.2045 35.2017 28.2045C34.6487 28.2045 34.1468 28.1004 33.696 27.892C33.2453 27.6799 32.8873 27.375 32.6222 26.9773C32.357 26.5758 32.2244 26.0909 32.2244 25.5227C32.2244 25.0303 32.3229 24.6269 32.5199 24.3125C32.7169 23.9981 32.9782 23.7519 33.304 23.5739C33.6297 23.3958 33.9934 23.2614 34.3949 23.1705C34.7964 23.0795 35.2017 23.0076 35.6108 22.9545C36.0123 22.9015 36.3835 22.8598 36.7244 22.8295C37.0653 22.7992 37.34 22.7462 37.5483 22.6705C37.7566 22.5947 37.8608 22.4621 37.8608 22.2727V22.25C37.8608 21.5227 37.6884 21.0227 37.3438 20.75C36.9991 20.4773 36.5653 20.3409 36.0426 20.3409C35.3949 20.3409 34.8873 20.4811 34.5199 20.7614C34.1525 21.0417 33.8949 21.3409 33.7472 21.6591L32.4744 21.2045C32.7017 20.6742 33.0047 20.2614 33.3835 19.9659C33.7661 19.6667 34.1828 19.4583 34.6335 19.3409C35.0881 19.2197 35.535 19.1591 35.9744 19.1591C36.2547 19.1591 36.5767 19.1932 36.9403 19.2614C37.3078 19.3258 37.6619 19.4602 38.0028 19.6648C38.3475 19.8693 38.6335 20.178 38.8608 20.5909C39.0881 21.0038 39.2017 21.5568 39.2017 22.25V28H37.8608ZM37.8608 24.8409V23.6136C37.804 23.6818 37.679 23.7443 37.4858 23.8011C37.2964 23.8542 37.0767 23.9015 36.8267 23.9432C36.5805 23.9811 36.34 24.0152 36.1051 24.0455C35.8741 24.0758 35.6866 24.0985 35.5426 24.1136C35.1941 24.1591 34.8684 24.233 34.5653 24.3352C34.2661 24.4337 34.0237 24.5833 33.8381 24.7841C33.6563 24.9811 33.5653 25.25 33.5653 25.5909C33.5653 26.0568 33.7377 26.4091 34.0824 26.6477C34.4309 26.8826 34.8722 27 35.4062 27C35.9366 27 36.3835 26.8958 36.7472 26.6875C37.1146 26.4792 37.3911 26.2102 37.5767 25.8807C37.7661 25.5511 37.8608 25.2045 37.8608 24.8409ZM42.3082 18.0227C42.0128 18.0227 41.7798 17.9337 41.6094 17.7557C41.4389 17.5777 41.3537 17.3636 41.3537 17.1136C41.3537 16.8864 41.4389 16.678 41.6094 16.4886C41.7798 16.2992 42.0128 16.2045 42.3082 16.2045C42.6037 16.2045 42.8366 16.2992 43.0071 16.4886C43.1776 16.678 43.2628 16.8864 43.2628 17.1136C43.2628 17.3636 43.1776 17.5777 43.0071 17.7557C42.8366 17.9337 42.6037 18.0227 42.3082 18.0227ZM42.9901 19.2727V28H41.6491V19.2727H42.9901ZM50.2642 19.4545L49.8097 20.7045C49.7415 20.6705 49.6468 20.6326 49.5256 20.5909C49.4081 20.5455 49.2528 20.5227 49.0597 20.5227C48.5824 20.5227 48.1752 20.6534 47.8381 20.9148C47.5047 21.1723 47.2472 21.4981 47.0653 21.892C46.8873 22.2822 46.7945 22.6742 46.7869 23.0682V28H45.446V19.2727H46.7869V20.7727H46.8778C46.9612 20.4924 47.1127 20.2273 47.3324 19.9773C47.5559 19.7273 47.821 19.5246 48.1278 19.3693C48.4384 19.214 48.7642 19.1364 49.1051 19.1364C49.3324 19.1364 49.5483 19.1705 49.7528 19.2386C49.9574 19.303 50.1278 19.375 50.2642 19.4545ZM56.8608 28V26.8182H56.7926C56.7017 27.0076 56.5502 27.2102 56.3381 27.4261C56.1259 27.642 55.8438 27.8258 55.4915 27.9773C55.1392 28.1288 54.7093 28.2045 54.2017 28.2045C53.6487 28.2045 53.1468 28.1004 52.696 27.892C52.2453 27.6799 51.8873 27.375 51.6222 26.9773C51.357 26.5758 51.2244 26.0909 51.2244 25.5227C51.2244 25.0303 51.3229 24.6269 51.5199 24.3125C51.7169 23.9981 51.9782 23.7519 52.304 23.5739C52.6297 23.3958 52.9934 23.2614 53.3949 23.1705C53.7964 23.0795 54.2017 23.0076 54.6108 22.9545C55.0123 22.9015 55.3835 22.8598 55.7244 22.8295C56.0653 22.7992 56.34 22.7462 56.5483 22.6705C56.7566 22.5947 56.8608 22.4621 56.8608 22.2727V22.25C56.8608 21.5227 56.6884 21.0227 56.3438 20.75C55.9991 20.4773 55.5653 20.3409 55.0426 20.3409C54.3949 20.3409 53.8873 20.4811 53.5199 20.7614C53.1525 21.0417 52.8949 21.3409 52.7472 21.6591L51.4744 21.2045C51.7017 20.6742 52.0047 20.2614 52.3835 19.9659C52.7661 19.6667 53.1828 19.4583 53.6335 19.3409C54.0881 19.2197 54.535 19.1591 54.9744 19.1591C55.2547 19.1591 55.5767 19.1932 55.9403 19.2614C56.3078 19.3258 56.6619 19.4602 57.0028 19.6648C57.3475 19.8693 57.6335 20.178 57.8608 20.5909C58.0881 21.0038 58.2017 21.5568 58.2017 22.25V28H56.8608ZM56.8608 24.8409V23.6136C56.804 23.6818 56.679 23.7443 56.4858 23.8011C56.2964 23.8542 56.0767 23.9015 55.8267 23.9432C55.5805 23.9811 55.34 24.0152 55.1051 24.0455C54.8741 24.0758 54.6866 24.0985 54.5426 24.1136C54.1941 24.1591 53.8684 24.233 53.5653 24.3352C53.2661 24.4337 53.0237 24.5833 52.8381 24.7841C52.6563 24.9811 52.5653 25.25 52.5653 25.5909C52.5653 26.0568 52.7377 26.4091 53.0824 26.6477C53.4309 26.8826 53.8722 27 54.4062 27C54.9366 27 55.3835 26.8958 55.7472 26.6875C56.1146 26.4792 56.3911 26.2102 56.5767 25.8807C56.7661 25.5511 56.8608 25.2045 56.8608 24.8409ZM65.4673 19.4545L65.0128 20.7045C64.9446 20.6705 64.8499 20.6326 64.7287 20.5909C64.6113 20.5455 64.456 20.5227 64.2628 20.5227C63.7855 20.5227 63.3783 20.6534 63.0412 20.9148C62.7079 21.1723 62.4503 21.4981 62.2685 21.892C62.0904 22.2822 61.9976 22.6742 61.9901 23.0682V28H60.6491V19.2727H61.9901V20.7727H62.081C62.1643 20.4924 62.3158 20.2273 62.5355 19.9773C62.759 19.7273 63.0241 19.5246 63.331 19.3693C63.6416 19.214 63.9673 19.1364 64.3082 19.1364C64.5355 19.1364 64.7514 19.1705 64.956 19.2386C65.1605 19.303 65.331 19.375 65.4673 19.4545ZM72.0639 28V26.8182H71.9957C71.9048 27.0076 71.7533 27.2102 71.5412 27.4261C71.3291 27.642 71.0469 27.8258 70.6946 27.9773C70.3423 28.1288 69.9124 28.2045 69.4048 28.2045C68.8518 28.2045 68.3499 28.1004 67.8991 27.892C67.4484 27.6799 67.0904 27.375 66.8253 26.9773C66.5601 26.5758 66.4276 26.0909 66.4276 25.5227C66.4276 25.0303 66.526 24.6269 66.723 24.3125C66.92 23.9981 67.1813 23.7519 67.5071 23.5739C67.8329 23.3958 68.1965 23.2614 68.598 23.1705C68.9995 23.0795 69.4048 23.0076 69.8139 22.9545C70.2154 22.9015 70.5866 22.8598 70.9276 22.8295C71.2685 22.7992 71.5431 22.7462 71.7514 22.6705C71.9598 22.5947 72.0639 22.4621 72.0639 22.2727V22.25C72.0639 21.5227 71.8916 21.0227 71.5469 20.75C71.2022 20.4773 70.7685 20.3409 70.2457 20.3409C69.598 20.3409 69.0904 20.4811 68.723 20.7614C68.3556 21.0417 68.098 21.3409 67.9503 21.6591L66.6776 21.2045C66.9048 20.6742 67.2079 20.2614 67.5866 19.9659C67.9692 19.6667 68.3859 19.4583 68.8366 19.3409C69.2912 19.2197 69.7382 19.1591 70.1776 19.1591C70.4579 19.1591 70.7798 19.1932 71.1435 19.2614C71.5109 19.3258 71.8651 19.4602 72.206 19.6648C72.5507 19.8693 72.8366 20.178 73.0639 20.5909C73.2912 21.0038 73.4048 21.5568 73.4048 22.25V28H72.0639ZM72.0639 24.8409V23.6136C72.0071 23.6818 71.8821 23.7443 71.6889 23.8011C71.4995 23.8542 71.2798 23.9015 71.0298 23.9432C70.7836 23.9811 70.5431 24.0152 70.3082 24.0455C70.0772 24.0758 69.8897 24.0985 69.7457 24.1136C69.3973 24.1591 69.0715 24.233 68.7685 24.3352C68.4692 24.4337 68.2268 24.5833 68.0412 24.7841C67.8594 24.9811 67.7685 25.25 67.7685 25.5909C67.7685 26.0568 67.9408 26.4091 68.2855 26.6477C68.634 26.8826 69.0753 27 69.6094 27C70.1397 27 70.5866 26.8958 70.9503 26.6875C71.3177 26.4792 71.5942 26.2102 71.7798 25.8807C71.9692 25.5511 72.0639 25.2045 72.0639 24.8409ZM75.8523 31.2727V19.2727H77.1477V20.6591H77.3068C77.4053 20.5076 77.5417 20.3144 77.7159 20.0795C77.8939 19.8409 78.1477 19.6288 78.4773 19.4432C78.8106 19.2538 79.2614 19.1591 79.8295 19.1591C80.5644 19.1591 81.2121 19.3428 81.7727 19.7102C82.3333 20.0777 82.7708 20.5985 83.0852 21.2727C83.3996 21.947 83.5568 22.7424 83.5568 23.6591C83.5568 24.5833 83.3996 25.3845 83.0852 26.0625C82.7708 26.7367 82.3352 27.2595 81.7784 27.6307C81.2216 27.9981 80.5795 28.1818 79.8523 28.1818C79.2917 28.1818 78.8428 28.089 78.5057 27.9034C78.1686 27.714 77.9091 27.5 77.7273 27.2614C77.5455 27.0189 77.4053 26.8182 77.3068 26.6591H77.1932V31.2727H75.8523ZM82.2159 23.6364C82.2159 23.0227 82.1212 22.4697 81.9318 21.9773C81.7462 21.4811 81.464 21.089 81.0852 20.8011C80.7102 20.5095 80.2386 20.3636 79.6705 20.3636C78.8523 20.3636 78.2311 20.6648 77.8068 21.267C77.3826 21.8693 77.1705 22.6591 77.1705 23.6364C77.1705 24.625 77.3845 25.4299 77.8125 26.0511C78.2443 26.6686 78.8636 26.9773 79.6705 26.9773C80.2311 26.9773 80.6989 26.8295 81.0739 26.5341C81.4527 26.2348 81.7367 25.8333 81.9261 25.3295C82.1193 24.822 82.2159 24.2576 82.2159 23.6364ZM90.8295 28V26.8182H90.7614C90.6705 27.0076 90.5189 27.2102 90.3068 27.4261C90.0947 27.642 89.8125 27.8258 89.4602 27.9773C89.108 28.1288 88.678 28.2045 88.1705 28.2045C87.6174 28.2045 87.1155 28.1004 86.6648 27.892C86.214 27.6799 85.8561 27.375 85.5909 26.9773C85.3258 26.5758 85.1932 26.0909 85.1932 25.5227C85.1932 25.0303 85.2917 24.6269 85.4886 24.3125C85.6856 23.9981 85.947 23.7519 86.2727 23.5739C86.5985 23.3958 86.9621 23.2614 87.3636 23.1705C87.7652 23.0795 88.1705 23.0076 88.5795 22.9545C88.9811 22.9015 89.3523 22.8598 89.6932 22.8295C90.0341 22.7992 90.3087 22.7462 90.517 22.6705C90.7254 22.5947 90.8295 22.4621 90.8295 22.2727V22.25C90.8295 21.5227 90.6572 21.0227 90.3125 20.75C89.9678 20.4773 89.5341 20.3409 89.0114 20.3409C88.3636 20.3409 87.8561 20.4811 87.4886 20.7614C87.1212 21.0417 86.8636 21.3409 86.7159 21.6591L85.4432 21.2045C85.6705 20.6742 85.9735 20.2614 86.3523 19.9659C86.7348 19.6667 87.1515 19.4583 87.6023 19.3409C88.0568 19.2197 88.5038 19.1591 88.9432 19.1591C89.2235 19.1591 89.5455 19.1932 89.9091 19.2614C90.2765 19.3258 90.6307 19.4602 90.9716 19.6648C91.3163 19.8693 91.6023 20.178 91.8295 20.5909C92.0568 21.0038 92.1705 21.5568 92.1705 22.25V28H90.8295ZM90.8295 24.8409V23.6136C90.7727 23.6818 90.6477 23.7443 90.4545 23.8011C90.2652 23.8542 90.0455 23.9015 89.7955 23.9432C89.5492 23.9811 89.3087 24.0152 89.0739 24.0455C88.8428 24.0758 88.6553 24.0985 88.5114 24.1136C88.1629 24.1591 87.8371 24.233 87.5341 24.3352C87.2348 24.4337 86.9924 24.5833 86.8068 24.7841C86.625 24.9811 86.5341 25.25 86.5341 25.5909C86.5341 26.0568 86.7064 26.4091 87.0511 26.6477C87.3996 26.8826 87.8409 27 88.375 27C88.9053 27 89.3523 26.8958 89.7159 26.6875C90.0833 26.4792 90.3598 26.2102 90.5455 25.8807C90.7348 25.5511 90.8295 25.2045 90.8295 24.8409Z" fill="black"/>
<path d="M25.2273 129.75V131H18.4091V119.364H19.8182V129.75H25.2273ZM30.3821 131.182C29.5942 131.182 28.9029 130.994 28.3082 130.619C27.7173 130.244 27.2552 129.72 26.9219 129.045C26.5923 128.371 26.4276 127.583 26.4276 126.682C26.4276 125.773 26.5923 124.979 26.9219 124.301C27.2552 123.623 27.7173 123.097 28.3082 122.722C28.9029 122.347 29.5942 122.159 30.3821 122.159C31.17 122.159 31.8594 122.347 32.4503 122.722C33.045 123.097 33.5071 123.623 33.8366 124.301C34.17 124.979 34.3366 125.773 34.3366 126.682C34.3366 127.583 34.17 128.371 33.8366 129.045C33.5071 129.72 33.045 130.244 32.4503 130.619C31.8594 130.994 31.17 131.182 30.3821 131.182ZM30.3821 129.977C30.9806 129.977 31.473 129.824 31.8594 129.517C32.2457 129.21 32.5317 128.807 32.7173 128.307C32.9029 127.807 32.9957 127.265 32.9957 126.682C32.9957 126.098 32.9029 125.555 32.7173 125.051C32.5317 124.547 32.2457 124.14 31.8594 123.83C31.473 123.519 30.9806 123.364 30.3821 123.364C29.7836 123.364 29.2912 123.519 28.9048 123.83C28.5185 124.14 28.2325 124.547 28.0469 125.051C27.8613 125.555 27.7685 126.098 27.7685 126.682C27.7685 127.265 27.8613 127.807 28.0469 128.307C28.2325 128.807 28.5185 129.21 28.9048 129.517C29.2912 129.824 29.7836 129.977 30.3821 129.977ZM47.2983 122.273L44.6392 131H43.321L41.4119 124.295H41.2756L39.3665 131H38.0483L35.3892 122.273H36.7983L38.6847 128.955H38.7756L40.6392 122.273H42.071L43.9119 128.932H44.0028L45.8892 122.273H47.2983ZM52.4176 131.182C51.5767 131.182 50.8513 130.996 50.2415 130.625C49.6354 130.25 49.1676 129.727 48.8381 129.057C48.5123 128.383 48.3494 127.598 48.3494 126.705C48.3494 125.811 48.5123 125.023 48.8381 124.341C49.1676 123.655 49.6259 123.121 50.2131 122.739C50.804 122.352 51.4934 122.159 52.2812 122.159C52.7358 122.159 53.1847 122.235 53.6278 122.386C54.071 122.538 54.4744 122.784 54.8381 123.125C55.2017 123.462 55.4915 123.911 55.7074 124.472C55.9233 125.028 56.0312 125.712 56.0312 126.523V127.091H49.7074C49.7756 128.034 50.0464 128.752 50.5199 129.244C50.9934 129.733 51.6259 129.977 52.4176 129.977C52.9517 129.977 53.4062 129.864 53.7812 129.636C54.1562 129.409 54.429 129.068 54.5994 128.614L55.8949 128.977C55.6903 129.636 55.2812 130.169 54.6676 130.574C54.054 130.979 53.304 131.182 52.4176 131.182ZM52.2812 123.364C51.6108 123.364 51.0464 123.587 50.5881 124.034C50.1297 124.481 49.8456 125.114 49.7358 125.932H54.6676C54.6676 125.193 54.4517 124.581 54.0199 124.097C53.5881 123.608 53.0085 123.364 52.2812 123.364ZM62.9205 122.455L62.4659 123.705C62.3977 123.67 62.303 123.633 62.1818 123.591C62.0644 123.545 61.9091 123.523 61.7159 123.523C61.2386 123.523 60.8314 123.653 60.4943 123.915C60.161 124.172 59.9034 124.498 59.7216 124.892C59.5436 125.282 59.4508 125.674 59.4432 126.068V131H58.1023V122.273H59.4432V123.773H59.5341C59.6174 123.492 59.7689 123.227 59.9886 122.977C60.2121 122.727 60.4773 122.525 60.7841 122.369C61.0947 122.214 61.4205 122.136 61.7614 122.136C61.9886 122.136 62.2045 122.17 62.4091 122.239C62.6136 122.303 62.7841 122.375 62.9205 122.455ZM70.3807 119.364V124.545H76.5852V119.364H77.9943V131H76.5852V125.795H70.3807V131H68.9716V119.364H70.3807ZM86.1335 127.545V122.273H87.4744V131H86.1335V129.773H86.0426C85.8267 130.102 85.5047 130.409 85.0767 130.693C84.6525 130.973 84.1108 131.114 83.4517 131.114C83.0275 131.114 82.5975 130.998 82.1619 130.767C81.7301 130.536 81.3665 130.178 81.071 129.693C80.7794 129.208 80.6335 128.583 80.6335 127.818V122.273H81.9744V127.818C81.9744 128.455 82.1525 128.947 82.5085 129.295C82.8684 129.644 83.3267 129.818 83.8835 129.818C84.2169 129.818 84.5559 129.742 84.9006 129.591C85.2491 129.439 85.5407 129.197 85.7756 128.864C86.0142 128.53 86.1335 128.091 86.1335 127.545ZM93.5895 122.273V123.523H91.7259V128.5C91.7259 128.879 91.7808 129.163 91.8906 129.352C92.0043 129.538 92.1482 129.663 92.3224 129.727C92.5005 129.788 92.688 129.818 92.8849 129.818C93.0327 129.818 93.1539 129.811 93.2486 129.795C93.3433 129.777 93.419 129.761 93.4759 129.75L93.7486 130.955C93.6577 130.989 93.5308 131.023 93.3679 131.057C93.205 131.095 92.9986 131.114 92.7486 131.114C92.3698 131.114 91.9986 131.032 91.6349 130.869C91.2751 130.706 90.9759 130.458 90.7372 130.125C90.5024 129.792 90.3849 129.371 90.3849 128.864V123.523H89.0668V122.273H90.3849V120.409H91.7259V122.273H93.5895ZM99.277 122.273V123.523H97.4134V128.5C97.4134 128.879 97.4683 129.163 97.5781 129.352C97.6918 129.538 97.8357 129.663 98.0099 129.727C98.188 129.788 98.3755 129.818 98.5724 129.818C98.7202 129.818 98.8414 129.811 98.9361 129.795C99.0308 129.777 99.1065 129.761 99.1634 129.75L99.4361 130.955C99.3452 130.989 99.2183 131.023 99.0554 131.057C98.8925 131.095 98.6861 131.114 98.4361 131.114C98.0573 131.114 97.6861 131.032 97.3224 130.869C96.9626 130.706 96.6634 130.458 96.4247 130.125C96.1899 129.792 96.0724 129.371 96.0724 128.864V123.523H94.7543V122.273H96.0724V120.409H97.4134V122.273H99.277Z" fill="black"/>
<rect y="2" width="444" height="41" fill="url(#paint0_linear)"/>
<rect x="444" y="144" width="444" height="41" transform="rotate(-180 444 144)" fill="url(#paint1_linear)"/>
<defs>
<linearGradient id="paint0_linear" x1="222" y1="2" x2="222" y2="43" gradientUnits="userSpaceOnUse">
<stop stop-color="white"/>
<stop offset="1" stop-color="white" stop-opacity="0.5"/>
</linearGradient>
<linearGradient id="paint1_linear" x1="666" y1="144" x2="666" y2="185" gradientUnits="userSpaceOnUse">
<stop stop-color="white"/>
<stop offset="1" stop-color="white" stop-opacity="0.5"/>
</linearGradient>
</defs>
</svg>
