<svg width="121" height="121" fill="none" xmlns="http://www.w3.org/2000/svg"><g opacity=".8" filter="url(#filter0_d)" fill="#262D33"><path d="M60.5 0a56.5 56.5 0 1 0 0 113 56.5 56.5 0 0 0 0-113zm49.927 39.55h-12.26a1.883 1.883 0 0 1-1.884-1.883 5.65 5.65 0 0 0-5.65-5.65h-11.3a1.884 1.884 0 0 1 0-3.767h1.884a5.65 5.65 0 0 0 0-11.3H68.033a1.883 1.883 0 0 1 0-3.767H90.52a53.052 53.052 0 0 1 19.907 26.367zM21.91 20.717h25.407a1.883 1.883 0 1 1 0 3.766H34.133a5.65 5.65 0 0 0 0 11.3H37.9a1.883 1.883 0 1 1 0 3.767H19.067a5.65 5.65 0 0 0 0 11.3 1.883 1.883 0 1 1 0 3.767h-11.3a52.432 52.432 0 0 1 14.05-33.9h.093zM11.25 75.333H26.6a1.883 1.883 0 1 1 0 3.767H12.87a51.498 51.498 0 0 1-1.62-3.767zm49.25 33.9a52.58 52.58 0 0 1-36.857-15.066h21.79a3.767 3.767 0 0 1 3.767 3.766 7.533 7.533 0 0 0 7.533 7.534H80.03a52.25 52.25 0 0 1-19.53 3.766zm27.064-7.533h-30.83a3.768 3.768 0 0 1-3.767-3.767 7.533 7.533 0 0 0-7.534-7.533H20.14a53.995 53.995 0 0 1-5.273-7.533H26.6a5.65 5.65 0 0 0 0-11.3H9.97a51.735 51.735 0 0 1-2.203-13.184h11.3a5.65 5.65 0 1 0 0-11.3 1.883 1.883 0 1 1 0-3.766H37.9a5.65 5.65 0 0 0 0-11.3h-3.767a1.884 1.884 0 0 1 0-3.767h13.184a5.65 5.65 0 1 0 0-11.3h-21.64a52.583 52.583 0 0 1 58.534-7.533H68.033a5.65 5.65 0 0 0 0 11.3h13.184a1.883 1.883 0 1 1 0 3.766h-1.884a5.65 5.65 0 0 0 0 11.3h11.3a1.883 1.883 0 0 1 1.884 1.884 5.65 5.65 0 0 0 5.65 5.65h13.39a51.735 51.735 0 0 1 1.526 9.416h-16.8a5.65 5.65 0 0 0 0 11.3h1.884a1.883 1.883 0 1 1 0 3.767h-16.95a5.65 5.65 0 0 0 0 11.3h11.3a1.883 1.883 0 1 1 0 3.767h-5.65a5.65 5.65 0 1 0 0 11.3h10.49a52.316 52.316 0 0 1-9.793 7.533zm-.697-11.3a1.883 1.883 0 1 1 0-3.767h5.65a5.65 5.65 0 0 0 0-11.3h-11.3a1.883 1.883 0 1 1 0-3.766h16.95a5.651 5.651 0 0 0 0-11.3h-1.884a1.883 1.883 0 0 1 0-3.767h16.95a52.558 52.558 0 0 1-12.373 33.9H86.867z"/><path d="M47.317 37.667a5.65 5.65 0 0 0 5.65 5.65h3.766a5.65 5.65 0 0 0 0-11.3h-3.766a5.65 5.65 0 0 0-5.65 5.65zm11.3 0a1.883 1.883 0 0 1-1.884 1.883h-3.766a1.883 1.883 0 0 1 0-3.767h3.766a1.883 1.883 0 0 1 1.884 1.884zM60.5 63.205l-1.375 1.375a1.883 1.883 0 0 0-.508 1.337v12.41l-3.767-3.766c.113-2.994.132-12.41-5.65-18.06-6.742-6.762-18.457-5.65-18.965-5.52a1.883 1.883 0 0 0-1.657 1.658c0 .509-1.225 12.223 5.518 18.965 4.915 4.935 12.505 5.65 16.422 5.65h1.62l6.479 6.385v2.994H54.85V90.4h11.3v-3.767h-3.767V66.69l.81-.81h1.62c3.917 0 11.507-.697 16.422-5.65 6.743-6.742 5.65-18.457 5.519-18.965a1.883 1.883 0 0 0-1.658-1.657c-.508-.057-12.222-1.187-18.946 5.593-5.782 5.65-5.763 15.067-5.65 18.005zm-23.768 5.65c-4.124-4.106-4.482-11.112-4.482-14.238 3.164 0 10.132.339 14.313 4.52a18.381 18.381 0 0 1 4.52 11.563l-9.868-9.887-2.675 2.674 9.775 9.963a18.4 18.4 0 0 1-11.545-4.52l-.038-.075zM83.1 43.317c0 3.126-.339 10.132-4.52 14.313a18.363 18.363 0 0 1-11.545 4.52l9.869-9.869-2.674-2.674-9.87 9.888a18.344 18.344 0 0 1 4.427-11.658c4.18-4.162 11.187-4.52 14.313-4.52z"/></g><defs><filter id="filter0_d" x="0" y="0" width="121" height="121" filterUnits="userSpaceOnUse" color-interpolation-filters="sRGB"><feFlood flood-opacity="0" result="BackgroundImageFix"/><feColorMatrix in="SourceAlpha" values="0 0 0 0 0 0 0 0 0 0 0 0 0 0 0 0 0 0 127 0"/><feOffset dy="4"/><feGaussianBlur stdDeviation="2"/><feColorMatrix values="0 0 0 0 0 0 0 0 0 0 0 0 0 0 0 0 0 0 0.25 0"/><feBlend in2="BackgroundImageFix" result="effect1_dropShadow"/><feBlend in="SourceGraphic" in2="effect1_dropShadow" result="shape"/></filter></defs></svg>