<?xml version="1.0" standalone="no"?>
<!DOCTYPE svg PUBLIC "-//W3C//DTD SVG 20010904//EN"
 "http://www.w3.org/TR/2001/REC-SVG-20010904/DTD/svg10.dtd">
<svg version="1.0" xmlns="http://www.w3.org/2000/svg"
 width="1218.000000pt" height="1256.000000pt" viewBox="0 0 1218.000000 1256.000000"
 preserveAspectRatio="xMidYMid meet">
<metadata>
Created by potrace 1.13, written by Peter Selinger 2001-2015
</metadata>
<g transform="translate(0.000000,1256.000000) scale(0.100000,-0.100000)"
fill="#000000" stroke="none">
<path d="M7684 12193 c-66 -121 -85 -153 -90 -153 -3 0 -52 28 -107 63 -56 35
-138 83 -181 107 l-80 43 -43 -48 c-55 -60 -166 -227 -214 -320 -34 -66 -38
-70 -95 -93 -32 -13 -67 -31 -77 -41 -9 -9 -28 -56 -40 -103 -19 -71 -29 -91
-56 -114 -36 -30 -149 -196 -176 -259 -10 -22 -23 -77 -30 -123 -7 -46 -20
-91 -29 -101 -9 -10 -16 -22 -16 -27 0 -14 -108 -71 -160 -84 -52 -13 -166
-99 -180 -135 -16 -42 -60 -56 -180 -57 -74 -1 -114 2 -122 10 -18 18 -46 14
-69 -9 -17 -17 -28 -19 -60 -14 -31 5 -40 3 -45 -9 -3 -9 -12 -16 -19 -16 -8
0 -19 -17 -26 -37 -6 -21 -18 -47 -25 -58 -19 -27 -18 -40 11 -85 29 -45 31
-86 11 -162 -35 -130 -47 -150 -130 -234 -70 -69 -92 -85 -165 -115 -51 -21
-90 -43 -100 -58 -9 -13 -29 -37 -44 -52 -23 -23 -32 -45 -43 -111 -9 -46 -19
-99 -24 -118 -5 -19 -15 -60 -22 -90 -13 -62 -29 -87 -91 -153 -24 -26 -52
-64 -63 -84 -10 -21 -29 -51 -41 -68 -36 -50 -103 -299 -103 -382 0 -21 -6
-47 -14 -58 -29 -42 -75 -138 -96 -197 -12 -35 -28 -73 -36 -86 -11 -16 -12
-27 -4 -41 5 -11 10 -29 10 -40 0 -17 -6 -21 -29 -21 -33 0 -68 -36 -77 -79
-10 -50 -58 -196 -72 -218 -7 -12 -11 -26 -8 -31 7 -11 -89 -32 -115 -25 -10
3 -19 13 -19 23 0 36 -36 50 -126 50 -18 0 -38 7 -45 16 -7 9 -24 20 -37 25
-19 8 -23 14 -17 32 16 51 17 83 1 97 -26 20 -61 -2 -84 -52 -36 -81 -111
-128 -302 -190 -52 -17 -106 -42 -120 -55 -27 -25 -29 -45 -15 -190 6 -63 4
-80 -18 -140 -14 -37 -37 -98 -50 -135 -34 -92 -84 -167 -116 -174 -28 -5 -78
-28 -151 -68 -128 -69 -224 -90 -279 -61 -38 19 -95 11 -115 -16 -8 -13 -11
-37 -8 -69 3 -31 0 -55 -8 -65 -6 -8 -9 -19 -5 -25 4 -6 -5 -10 -24 -10 -48 0
-60 -10 -91 -71 -34 -66 -42 -73 -90 -74 -30 0 -36 -4 -44 -30 -17 -59 -30
-75 -73 -96 -24 -12 -56 -34 -72 -50 -25 -25 -28 -34 -24 -68 5 -33 2 -41 -16
-51 -28 -14 -72 -5 -131 27 -73 40 -76 46 -74 113 0 34 6 66 13 73 6 6 11 19
11 29 0 28 -28 78 -44 78 -21 0 -36 24 -44 70 -4 24 -14 46 -22 50 -8 4 -25
12 -37 18 -34 18 -63 15 -63 -6 0 -10 -6 -38 -14 -63 -8 -24 -17 -60 -20 -80
-5 -28 -12 -38 -31 -43 -17 -4 -32 -21 -47 -54 -12 -26 -30 -53 -40 -60 -10
-7 -18 -20 -18 -28 0 -22 -11 -17 -52 21 -34 30 -38 39 -38 82 -1 76 -42 209
-77 249 -29 32 -82 32 -120 0 -28 -23 -63 -107 -79 -185 -3 -20 -23 -53 -44
-75 -21 -23 -49 -54 -61 -71 -34 -44 -125 -151 -147 -173 -10 -10 -33 -44 -52
-76 -18 -32 -51 -75 -74 -96 -173 -160 -178 -166 -212 -235 -24 -51 -57 -94
-121 -160 -49 -49 -100 -99 -115 -111 -28 -22 -53 -109 -68 -242 -4 -40 -12
-78 -18 -85 -5 -6 -14 -28 -20 -47 -45 -155 -58 -187 -82 -210 -15 -14 -39
-44 -55 -67 -15 -24 -52 -59 -82 -79 -41 -27 -53 -40 -48 -52 17 -40 15 -52
-9 -98 -31 -59 -33 -80 -6 -96 25 -16 25 -43 0 -93 -11 -22 -20 -48 -20 -59 0
-11 -8 -28 -18 -39 -11 -13 -17 -37 -18 -76 -1 -31 -6 -67 -11 -81 -15 -37
-13 -122 3 -147 7 -12 11 -28 8 -36 -3 -8 2 -22 11 -31 23 -23 35 -71 35 -143
0 -78 36 -168 74 -183 31 -11 46 -39 46 -83 0 -37 28 -77 54 -77 9 0 16 -4 16
-10 0 -15 42 -12 65 4 11 7 32 16 48 20 15 3 36 15 47 26 15 15 34 20 78 20
36 0 66 6 80 16 21 14 26 14 66 -5 55 -27 70 -44 95 -109 38 -95 25 -146 -50
-192 -43 -26 -48 -33 -59 -84 -12 -58 -7 -73 52 -141 14 -16 18 -47 23 -145 7
-164 7 -325 -1 -376 -7 -48 3 -70 58 -134 22 -25 62 -74 90 -109 33 -41 64
-69 87 -78 26 -10 43 -27 60 -59 13 -24 30 -44 37 -44 7 0 27 -19 43 -43 38
-52 119 -107 185 -124 118 -31 166 -100 137 -199 -6 -23 -4 -46 8 -85 15 -45
23 -55 47 -60 115 -27 177 -50 201 -73 14 -14 30 -26 34 -26 5 0 9 -11 9 -24
0 -27 33 -91 62 -119 18 -18 18 -19 -2 -52 -17 -27 -19 -38 -10 -54 17 -32 50
-50 80 -44 23 4 31 0 48 -29 12 -20 18 -43 15 -59 -3 -16 1 -30 11 -38 14 -12
14 -15 0 -37 -9 -13 -14 -31 -10 -39 6 -17 66 -21 66 -4 0 20 70 39 146 39 69
0 82 -3 145 -37 l68 -38 48 19 c28 10 95 22 158 27 100 8 111 7 122 -8 7 -10
17 -24 23 -31 6 -6 10 -28 8 -48 -3 -34 -1 -37 57 -68 79 -43 107 -85 103
-149 -3 -49 -3 -49 42 -73 37 -20 53 -23 95 -18 27 3 64 14 80 23 17 10 53 26
82 36 50 18 55 18 123 1 81 -19 148 -59 154 -90 32 -158 39 -176 75 -176 9 0
35 -18 56 -40 23 -23 49 -40 61 -40 19 0 24 -7 29 -47 8 -52 48 -149 65 -155
6 -2 12 -11 14 -20 1 -10 13 -26 26 -38 20 -17 37 -20 121 -20 95 0 113 -4
189 -39 49 -22 70 -41 70 -63 0 -29 48 -159 67 -180 31 -35 123 -18 123 23 0
12 19 40 44 63 24 22 47 54 50 69 8 33 58 66 126 84 42 11 46 10 61 -10 16
-20 19 -20 60 -7 69 23 81 41 94 145 5 41 15 69 31 88 13 16 24 35 24 43 0 26
53 95 97 125 24 17 46 41 49 55 3 13 14 29 24 34 26 14 196 13 219 -1 14 -9
30 -8 74 6 44 14 58 23 68 47 22 53 47 62 142 49 121 -18 131 -22 135 -54 4
-35 34 -54 99 -63 55 -7 99 3 131 31 49 42 92 89 92 99 0 3 6 14 14 23 8 10
27 33 41 51 15 17 33 32 41 32 13 0 54 -68 54 -90 0 -5 -9 -19 -20 -30 -27
-27 -35 -66 -19 -86 10 -13 24 -15 61 -11 27 4 50 2 54 -4 3 -6 19 -7 34 -4
18 4 42 0 65 -11 37 -17 107 -14 113 6 2 5 11 10 20 10 30 0 82 24 82 39 0 8
11 28 24 45 13 17 35 54 49 82 23 46 77 104 95 104 19 -1 32 -19 30 -41 -3
-22 0 -24 31 -21 25 2 38 -3 48 -18 8 -11 22 -20 31 -20 9 0 28 -9 42 -20 34
-27 50 -25 98 10 23 17 52 30 64 30 16 0 27 9 37 30 7 17 25 38 40 47 14 9 36
27 47 41 17 19 28 23 47 18 34 -8 80 -96 81 -151 1 -36 3 -40 28 -40 14 0 30
-3 34 -8 4 -4 22 -7 40 -7 26 0 33 -4 36 -22 2 -13 10 -24 18 -26 65 -12 94
151 44 249 -14 28 -23 57 -21 64 3 7 23 15 44 19 59 10 68 18 55 56 -8 21 -8
38 -2 50 14 26 12 56 -4 69 -7 6 -16 29 -20 51 -4 24 -14 43 -25 49 -15 8 -20
25 -23 78 -3 38 -8 76 -13 86 -10 23 96 128 180 179 104 63 185 73 298 38 79
-25 81 -28 71 -191 -5 -88 -10 -119 -20 -119 -7 0 -25 -11 -40 -23 -29 -26
-26 -47 7 -47 11 0 32 -13 46 -30 20 -24 33 -30 65 -30 21 0 48 5 58 10 28 15
70 -8 77 -41 3 -16 13 -35 23 -44 17 -16 17 -19 -2 -73 -11 -31 -25 -68 -32
-82 -20 -39 -41 -198 -31 -238 4 -16 13 -22 34 -22 16 0 31 6 35 15 3 8 12 15
21 15 23 0 19 41 -11 100 -25 50 -25 52 -7 65 26 20 33 18 30 -7 -1 -15 4 -23
18 -26 11 -2 32 -17 47 -33 28 -30 73 -39 81 -16 3 7 9 0 16 -15 12 -31 19
-33 90 -17 44 9 52 15 63 45 21 58 37 39 34 -40 -2 -51 12 -76 42 -76 25 0 40
12 51 43 6 15 16 27 23 28 28 1 63 61 63 109 0 36 6 54 28 79 31 37 33 49 12
77 -20 27 -18 58 5 79 21 19 27 60 10 70 -23 14 -9 44 25 56 33 12 35 16 35
56 0 55 18 96 39 87 62 -27 117 1 165 82 l30 50 55 -3 c85 -6 98 -10 136 -49
28 -27 42 -34 59 -30 20 5 24 14 29 58 3 29 11 73 17 98 6 25 16 83 21 130 9
85 9 85 -17 106 -15 12 -23 27 -20 33 15 23 -7 51 -67 87 -34 20 -80 53 -102
74 -22 20 -64 56 -92 79 -43 35 -52 47 -47 66 7 29 -15 44 -31 22 -14 -20 -25
-12 -25 18 0 13 -10 29 -21 37 -17 11 -22 27 -26 83 -4 67 -3 72 27 108 20 23
40 37 55 37 30 0 33 11 27 88 -4 59 -3 65 33 118 20 31 45 59 56 61 28 8 26
69 -3 101 -18 18 -23 36 -24 80 -1 31 -4 65 -9 75 -4 9 -3 30 3 45 6 15 14 55
17 89 4 34 13 67 21 74 9 7 14 31 14 63 0 67 26 96 88 96 33 0 42 4 42 17 0
10 12 27 28 40 27 22 27 22 10 53 -10 17 -18 40 -18 50 0 23 -51 63 -102 81
-22 7 -34 17 -30 23 4 6 5 36 3 68 -3 53 -1 57 29 79 20 15 30 30 28 44 -3 18
-13 21 -91 28 -95 8 -116 21 -159 93 -10 16 -22 36 -27 44 -5 8 -14 33 -21 55
-7 23 -20 52 -30 65 l-19 25 -30 -29 c-32 -30 -54 -86 -45 -111 3 -7 -8 -32
-25 -56 -17 -23 -31 -49 -31 -58 -1 -28 -70 -155 -98 -178 l-27 -23 28 -21
c35 -27 34 -50 -3 -71 -27 -15 -30 -22 -30 -63 0 -42 3 -47 30 -56 43 -15 39
-43 -9 -62 -43 -17 -58 -42 -39 -64 17 -21 -6 -33 -64 -33 -42 0 -48 -3 -66
-34 -24 -40 -20 -70 14 -107 24 -25 24 -26 7 -66 -13 -31 -25 -43 -45 -47 -31
-6 -68 -57 -68 -92 0 -12 -15 -50 -34 -86 -19 -36 -37 -80 -41 -99 -10 -54
-26 -89 -41 -89 -21 0 -32 -31 -36 -97 -2 -42 -6 -59 -15 -56 -17 7 -33 -30
-33 -79 0 -24 -6 -50 -13 -59 -19 -25 -68 -46 -134 -58 -105 -20 -126 -11
-238 95 -64 59 -94 93 -82 94 9 0 17 7 17 15 0 8 5 15 10 15 6 0 10 7 10 15 0
8 7 15 15 15 22 0 18 34 -5 55 -11 10 -20 26 -20 36 0 10 -8 23 -17 29 -13 8
-14 13 -5 16 6 3 12 14 12 25 0 10 7 19 15 19 17 0 20 21 6 36 -6 5 -7 28 -4
52 5 38 8 42 34 42 16 0 29 5 29 10 0 6 16 10 36 10 35 0 36 1 31 29 -7 33 5
42 46 34 22 -4 27 -2 27 16 0 18 6 21 41 21 l41 0 -6 98 c-8 129 -8 151 -1
193 6 31 3 39 -20 57 l-27 21 21 27 c34 43 28 77 -19 108 -35 23 -39 29 -34
55 5 21 0 38 -15 59 -27 38 -26 42 4 42 23 0 25 4 25 40 0 22 -6 49 -12 61
-11 17 -10 22 3 32 12 9 18 38 23 108 7 94 7 97 -15 113 -32 22 -33 21 -80
-24 -23 -22 -46 -40 -51 -40 -9 0 -92 -51 -156 -96 -13 -8 -25 -29 -29 -45 -8
-44 -41 -58 -140 -62 -27 -1 -48 4 -60 16 -11 10 -39 18 -67 19 -39 3 -50 -1
-60 -17 -15 -28 -27 -35 -57 -35 -29 0 -31 5 -45 118 -8 62 -20 74 -46 42 -15
-18 -18 -32 -13 -62 6 -34 4 -38 -14 -38 -12 0 -25 11 -33 28 -13 25 -18 27
-71 25 -38 -1 -57 2 -57 10 -1 7 -9 30 -20 52 -26 54 -26 95 0 102 17 5 20 14
20 62 0 31 -7 69 -15 85 -17 32 -10 76 11 76 9 0 14 11 14 30 0 23 9 35 44 59
24 17 46 36 49 43 8 25 19 -1 24 -61 7 -72 20 -86 71 -78 20 3 67 11 104 16
36 6 78 16 93 23 26 11 27 15 19 58 -4 25 -7 62 -6 84 1 21 -9 82 -22 135 -13
53 -27 121 -31 151 -4 30 -11 71 -16 90 -12 46 -59 281 -59 298 0 9 10 11 37
6 l36 -7 -7 44 c-4 24 -9 53 -12 65 -4 16 6 28 56 58 34 21 64 44 67 52 3 8
19 14 40 14 35 0 72 15 85 34 12 17 9 101 -3 113 -23 23 67 100 184 159 60 30
116 54 124 54 31 0 189 94 243 145 59 55 155 124 234 168 67 37 110 74 239
205 63 64 137 129 171 149 34 20 79 52 101 70 127 104 160 130 265 205 63 45
166 133 229 195 90 90 122 115 155 124 32 8 59 29 119 91 l78 81 140 44 c131
42 140 46 135 67 -4 15 1 26 16 35 20 12 140 56 186 68 12 3 22 12 22 19 0 8
10 14 24 14 13 0 31 3 40 6 18 7 22 49 6 59 -17 10 -10 28 85 230 28 61 69
150 90 198 38 86 38 89 22 117 -9 15 -17 37 -17 48 0 11 -7 25 -15 32 -8 7
-15 20 -15 30 0 10 -7 23 -15 30 -9 8 -13 21 -9 35 4 15 0 26 -10 32 -12 7
-14 16 -7 43 5 19 15 61 21 93 l11 57 42 0 c23 0 47 4 53 8 14 9 49 176 41
196 -4 11 -19 16 -47 16 -22 0 -40 3 -40 6 0 10 100 236 123 277 17 31 26 37
53 37 49 0 64 9 64 39 0 15 7 51 15 79 11 37 15 86 13 169 -3 114 -4 118 -25
121 -13 2 -23 5 -23 7 0 2 92 130 205 285 127 175 205 291 205 305 0 54 8 57
67 19 77 -49 87 -43 107 64 10 48 23 102 29 120 10 29 9 36 -6 47 -16 12 -9
27 91 191 60 99 127 211 150 249 34 57 193 315 231 375 6 8 51 80 101 158 50
79 90 151 88 160 -4 19 -495 324 -516 320 -9 -2 -43 -47 -76 -100 -34 -54 -65
-97 -70 -98 -5 0 -42 20 -83 46 -42 25 -82 44 -91 42 -9 -2 -61 -78 -116 -170
-56 -92 -107 -167 -113 -168 -8 0 -13 12 -13 28 0 40 -39 75 -74 66 -39 -10
-60 -46 -53 -95 4 -35 2 -42 -17 -50 -18 -8 -35 -2 -97 35 -42 25 -83 46 -91
46 -21 0 -36 -20 -102 -135 -32 -55 -67 -112 -77 -127 -11 -15 -19 -31 -19
-35 0 -4 -9 -19 -19 -32 l-18 -24 -69 45 c-38 25 -135 85 -216 133 -108 64
-148 93 -148 107 0 10 -8 21 -17 24 -30 10 -201 88 -217 100 -13 9 -13 19 4
85 11 41 20 88 20 105 0 18 8 38 20 49 24 22 26 58 5 75 -13 11 -34 7 -123
-24 -90 -30 -114 -43 -148 -79 -22 -23 -43 -48 -45 -55 -3 -9 -13 -11 -33 -6
-23 5 -26 10 -20 28 4 11 7 44 8 71 1 49 1 50 -31 53 -28 3 -35 -1 -44 -25 -6
-15 -17 -40 -25 -55 -8 -14 -14 -32 -14 -40 0 -22 -44 -152 -54 -160 -5 -3
-32 -4 -60 -1 l-51 5 -55 -58 c-31 -33 -64 -70 -75 -84 -23 -29 -134 -119
-215 -174 -55 -38 -101 -86 -113 -118 -3 -10 -28 -31 -54 -48 -60 -37 -129
-41 -159 -9 -12 13 -15 23 -7 27 10 7 17 41 29 144 5 40 11 50 40 67 19 11 34
27 34 36 0 24 -202 115 -274 124 -66 8 -89 29 -80 68 4 16 0 31 -12 44 -17 19
-17 20 2 34 10 8 22 15 27 15 4 0 7 16 7 35 0 30 4 37 35 49 34 15 35 17 35
70 0 48 -3 57 -27 74 -34 23 -358 202 -367 202 -3 0 -62 32 -131 70 -69 39
-131 70 -139 70 -8 0 -32 -30 -52 -67z m311 -113 c72 -37 182 -97 245 -132
112 -63 115 -66 118 -101 2 -28 -1 -37 -12 -37 -26 0 -56 -38 -56 -70 0 -16
-4 -30 -10 -30 -5 0 -17 -11 -25 -24 -13 -19 -13 -29 -4 -52 7 -16 11 -41 10
-55 -1 -17 8 -37 27 -57 26 -27 37 -32 77 -32 34 0 73 -12 141 -42 89 -41 113
-58 79 -58 -21 0 -35 -32 -35 -79 0 -22 -4 -43 -10 -46 -5 -3 -10 -22 -10 -41
0 -19 -5 -43 -11 -53 -33 -51 25 -101 118 -101 49 0 66 5 107 33 27 17 54 41
60 52 24 44 64 85 116 121 81 55 192 145 215 174 11 14 41 48 68 77 l49 52 62
-6 c60 -5 62 -5 74 21 7 15 12 35 12 46 0 10 4 21 9 24 5 3 14 34 21 69 13 63
34 106 46 95 3 -4 1 -15 -5 -26 -22 -41 -14 -72 24 -88 42 -17 71 -18 84 -1
56 69 83 94 126 113 27 13 60 24 72 24 12 0 25 5 28 10 3 6 13 10 21 10 13 0
13 -3 0 -22 -9 -12 -16 -36 -16 -53 0 -16 -9 -64 -20 -105 -24 -93 -25 -119
-2 -127 66 -23 222 -104 222 -115 0 -7 48 -42 108 -77 59 -36 165 -100 235
-144 147 -91 161 -93 203 -22 12 22 39 67 58 100 19 33 50 86 70 119 19 32 37
63 38 68 4 10 122 -54 133 -72 12 -20 72 -10 108 18 40 30 45 43 22 62 -20 17
-15 54 8 58 17 4 21 -2 31 -50 7 -31 38 -52 65 -43 10 3 63 79 117 170 55 90
103 164 108 165 5 0 42 -20 83 -45 46 -28 82 -44 93 -40 9 3 44 48 76 100 33
52 63 95 67 95 14 0 456 -274 457 -283 0 -5 -37 -67 -82 -139 -95 -148 -257
-410 -319 -513 -23 -38 -96 -157 -161 -264 -65 -107 -118 -200 -118 -207 0 -7
7 -17 15 -21 13 -8 13 -19 -2 -96 -9 -48 -22 -87 -28 -87 -6 0 -33 14 -59 31
-65 41 -79 36 -90 -31 -8 -50 -28 -80 -218 -342 -114 -158 -208 -295 -208
-303 0 -9 14 -21 30 -26 l30 -11 0 -91 c0 -52 -7 -122 -17 -164 l-18 -73 -37
0 c-33 0 -40 -5 -62 -42 -41 -71 -147 -320 -144 -337 2 -11 17 -17 51 -19 39
-3 47 -6 43 -20 -2 -9 -10 -40 -16 -69 l-12 -52 -51 -3 -51 -3 -21 -100 c-11
-55 -23 -105 -28 -112 -4 -7 3 -33 17 -60 31 -60 69 -140 83 -173 11 -27 -18
-100 -139 -350 -43 -88 -61 -138 -62 -167 -1 -44 -5 -50 -22 -34 -5 5 -19 12
-32 16 -21 6 -23 4 -20 -22 2 -21 -3 -32 -24 -45 -14 -9 -35 -14 -45 -12 -11
3 -49 -13 -92 -37 -59 -35 -72 -46 -69 -64 4 -18 -7 -24 -116 -55 l-121 -35
-80 -83 c-63 -66 -88 -85 -122 -93 -34 -9 -64 -33 -160 -128 -66 -65 -164
-149 -223 -190 -58 -41 -118 -86 -135 -102 -50 -46 -157 -126 -215 -160 -30
-18 -112 -89 -182 -158 -150 -148 -191 -183 -251 -215 -70 -37 -177 -114 -237
-171 -61 -57 -166 -119 -238 -140 -91 -27 -234 -112 -289 -171 -53 -55 -53
-56 -37 -85 23 -45 15 -82 -20 -94 -22 -7 -30 -7 -33 3 -8 23 -41 12 -55 -19
-9 -21 -38 -46 -95 -81 -128 -78 -122 -52 -73 -295 23 -114 48 -244 55 -288 7
-44 22 -116 34 -160 11 -44 18 -91 14 -103 -3 -12 0 -43 6 -68 7 -26 11 -48 9
-49 -2 -2 -38 -8 -81 -14 -43 -6 -89 -14 -102 -17 -22 -5 -23 -2 -30 70 -5 62
-11 78 -27 87 -17 9 -26 6 -57 -23 -20 -19 -53 -47 -73 -62 -21 -15 -38 -34
-38 -42 0 -9 -9 -23 -21 -33 -12 -9 -22 -30 -23 -46 -2 -17 -8 -39 -14 -51 -8
-15 -7 -30 3 -60 16 -46 19 -81 6 -86 -5 -2 -6 -21 -2 -44 7 -34 5 -43 -11
-53 -36 -23 -14 -97 27 -87 19 5 24 1 29 -20 6 -21 11 -25 29 -21 86 21 93 20
107 -12 11 -29 16 -31 61 -31 48 0 49 -1 49 -30 0 -29 2 -30 46 -30 58 0 124
19 124 36 0 14 50 5 89 -16 32 -17 129 -8 178 17 27 13 41 28 49 53 6 19 22
42 35 51 13 8 45 29 70 46 26 17 56 34 69 38 12 4 34 20 49 36 38 39 45 37 36
-14 -4 -23 -7 -56 -6 -73 0 -18 -6 -37 -14 -44 -18 -15 -20 -53 -4 -81 8 -17
6 -24 -15 -40 -31 -24 -33 -53 -6 -94 13 -21 16 -33 9 -42 -16 -19 -1 -50 42
-85 l39 -31 -20 -32 c-26 -42 -25 -61 5 -89 22 -21 24 -27 14 -55 -6 -17 -8
-48 -4 -69 3 -20 9 -66 12 -101 l5 -64 -25 7 c-16 4 -29 1 -37 -9 -6 -8 -28
-19 -48 -26 -41 -13 -72 -36 -72 -53 0 -15 -38 -38 -51 -30 -5 3 -21 -2 -34
-10 -18 -12 -25 -26 -25 -49 0 -69 -6 -105 -18 -120 -15 -17 -20 -74 -9 -98 5
-10 -4 -27 -28 -52 -19 -20 -35 -42 -35 -50 0 -15 200 -214 260 -258 33 -25
39 -26 108 -18 41 4 103 18 138 29 55 19 68 28 87 61 12 21 27 39 33 39 13 0
23 46 30 140 3 36 11 70 18 75 21 16 53 86 61 132 3 23 13 47 20 53 8 6 17 24
20 40 3 16 13 34 21 41 8 6 14 26 14 43 0 42 23 72 60 79 17 4 33 15 36 24 3
10 12 31 20 46 21 41 17 67 -12 98 -20 21 -25 34 -20 53 6 23 12 26 47 26 59
0 99 24 99 59 0 23 8 34 36 52 36 22 36 22 31 78 -3 31 -11 57 -17 59 -15 5
-12 38 5 52 17 14 20 72 5 101 -8 13 -8 23 0 32 18 22 80 149 80 166 0 9 14
34 30 55 22 29 30 51 30 80 0 23 5 48 10 56 9 13 11 13 20 0 6 -8 13 -26 16
-40 10 -43 26 -80 35 -80 5 0 17 -17 28 -37 33 -63 59 -80 134 -88 62 -7 67
-9 54 -24 -19 -21 -29 -174 -14 -194 7 -8 28 -20 47 -27 55 -21 72 -36 86 -75
11 -33 10 -38 -12 -60 -13 -13 -31 -21 -41 -19 -11 3 -35 -9 -61 -31 -40 -34
-42 -40 -42 -90 0 -33 -5 -57 -14 -64 -8 -7 -17 -40 -21 -74 -4 -34 -13 -81
-21 -105 -10 -30 -11 -49 -4 -62 5 -10 10 -36 10 -58 0 -38 17 -88 42 -124 10
-14 8 -20 -14 -37 -46 -36 -88 -114 -90 -165 -1 -25 -6 -46 -11 -46 -5 0 -6
-7 -3 -15 4 -10 -7 -27 -31 -48 -20 -18 -44 -50 -54 -73 -17 -37 -17 -47 -5
-119 7 -42 18 -80 23 -84 6 -3 19 -22 29 -43 11 -20 47 -57 82 -83 35 -26 87
-69 115 -95 29 -25 77 -61 108 -80 46 -27 55 -37 51 -56 -3 -15 4 -31 19 -46
22 -21 23 -30 19 -88 -3 -36 -11 -74 -17 -85 -6 -11 -11 -31 -12 -45 0 -14 -3
-41 -7 -61 l-6 -37 -46 28 c-37 22 -63 29 -124 33 -77 5 -78 5 -103 -25 -14
-17 -32 -43 -41 -59 -8 -16 -28 -36 -44 -44 -27 -14 -32 -14 -55 1 -14 9 -32
14 -40 10 -26 -10 -55 -69 -55 -113 0 -31 -4 -43 -14 -43 -8 0 -27 -10 -41
-22 -25 -22 -26 -24 -12 -63 13 -37 13 -43 -4 -64 -22 -26 -24 -68 -7 -106 10
-21 8 -28 -10 -48 -29 -31 -44 -74 -33 -96 7 -13 4 -26 -12 -49 -12 -17 -27
-32 -34 -32 -7 0 -19 -12 -27 -27 l-15 -28 -1 45 c-1 65 -8 86 -37 99 -20 9
-30 9 -49 -4 -13 -8 -24 -24 -24 -35 0 -44 -76 -52 -97 -11 -18 37 -41 46 -63
26 -18 -16 -20 -16 -35 -1 -9 9 -21 16 -26 16 -5 0 -14 11 -19 25 -6 17 -20
27 -40 31 -30 7 -38 18 -20 29 6 3 10 17 10 30 0 13 4 26 9 29 5 4 12 24 16
47 6 33 3 43 -13 57 -10 9 -23 28 -27 42 -4 14 -19 35 -34 48 -27 24 -40 25
-127 7 -43 -9 -62 14 -46 58 6 18 14 98 18 178 l7 146 -24 17 c-13 9 -55 26
-92 38 -163 49 -309 1 -458 -151 -65 -67 -71 -75 -64 -104 3 -18 9 -64 13
-104 6 -56 12 -77 32 -98 18 -19 21 -28 12 -34 -18 -11 2 -61 24 -61 15 0 15
-2 0 -25 -13 -20 -14 -30 -5 -46 12 -24 -1 -39 -35 -39 -28 0 -56 -29 -56 -57
0 -13 11 -46 25 -73 25 -50 30 -83 19 -138 -6 -30 -7 -30 -38 -17 -17 7 -45
19 -62 25 -19 7 -34 21 -37 33 -9 38 -31 91 -47 110 -40 50 -111 61 -150 23
-79 -76 -114 -106 -125 -106 -7 0 -20 -9 -30 -20 -10 -11 -26 -20 -36 -20 -9
0 -19 -6 -21 -12 -3 -9 -13 -7 -34 7 -49 33 -68 44 -96 57 -16 7 -28 16 -28
20 0 11 -56 38 -79 38 -29 0 -101 -68 -122 -115 -31 -71 -82 -132 -113 -139
-16 -3 -38 -13 -47 -22 -17 -15 -20 -15 -34 0 -13 12 -37 15 -130 13 -63 -2
-115 0 -115 3 0 4 11 16 25 28 16 14 25 32 25 52 0 38 -34 106 -59 120 -43 23
-67 12 -130 -59 -34 -38 -61 -73 -61 -79 0 -6 -21 -27 -47 -47 -44 -33 -51
-36 -107 -33 -59 3 -61 4 -64 31 -6 52 -91 79 -250 81 -49 1 -56 -2 -83 -34
-62 -75 -58 -72 -102 -66 -64 9 -249 5 -270 -6 -10 -5 -25 -25 -33 -43 -7 -18
-30 -43 -49 -55 -38 -23 -105 -113 -105 -141 0 -8 -11 -26 -24 -38 -17 -16
-25 -38 -30 -79 -10 -87 -16 -99 -47 -112 -23 -10 -35 -10 -59 0 -22 9 -37 9
-61 1 -18 -6 -40 -11 -51 -11 -34 0 -99 -50 -117 -90 -9 -21 -36 -57 -59 -79
-23 -23 -42 -50 -42 -62 0 -18 -4 -20 -27 -14 -16 4 -29 7 -29 8 -12 17 -45
109 -54 150 -10 52 -13 56 -63 82 -91 47 -135 58 -234 56 -81 -1 -92 1 -97 17
-4 10 -15 28 -26 39 -27 29 -60 94 -60 118 0 11 -5 37 -11 57 -7 29 -16 39
-37 44 -15 4 -46 24 -69 45 -24 22 -51 39 -61 39 -13 0 -21 13 -30 53 -6 29
-12 60 -12 69 0 62 -74 117 -199 147 -83 20 -84 20 -135 0 -28 -10 -64 -27
-80 -36 -49 -27 -104 -33 -137 -14 -25 14 -29 22 -29 62 0 63 -41 119 -114
155 -52 25 -54 28 -49 58 3 22 0 38 -11 49 -9 8 -16 20 -16 26 0 5 -7 17 -16
26 -15 14 -33 15 -143 9 -69 -3 -131 -11 -138 -16 -6 -5 -25 -13 -43 -18 -26
-8 -41 -4 -93 24 -53 29 -75 35 -148 39 -61 3 -93 1 -110 -9 -31 -17 -39 -17
-39 0 0 7 -7 19 -15 26 -9 8 -13 21 -9 35 6 22 -29 101 -51 117 -5 4 -26 5
-46 2 -44 -7 -57 8 -35 41 21 32 20 61 -2 83 -28 28 -62 91 -62 116 0 14 -10
30 -26 41 -14 9 -34 25 -44 35 -10 10 -44 25 -76 34 -133 37 -133 37 -144 74
-5 20 -7 61 -3 93 3 31 3 68 -1 82 -12 51 -99 116 -174 130 -45 9 -133 69
-155 106 -10 16 -30 39 -46 50 -16 11 -34 34 -41 52 -9 21 -28 38 -59 52 -29
14 -60 42 -87 77 -24 30 -64 79 -90 107 -32 36 -47 61 -47 80 0 16 2 93 3 173
1 80 -1 196 -5 258 -6 95 -11 118 -29 140 -43 53 -53 77 -48 110 4 27 14 40
52 63 76 47 97 123 64 225 -24 70 -56 108 -116 138 -57 28 -88 32 -106 14 -7
-7 -45 -15 -84 -19 -56 -5 -75 -11 -89 -28 -9 -11 -24 -21 -33 -21 -8 0 -26
-5 -40 -11 -19 -9 -32 -9 -56 1 -27 11 -30 17 -30 55 0 46 -26 89 -61 100 -32
10 -51 70 -59 177 -5 63 -13 106 -24 122 -9 14 -16 34 -16 44 0 11 -6 25 -14
31 -17 14 -15 91 3 136 7 18 10 47 6 71 -4 30 -2 44 9 53 9 7 18 29 22 50 4
20 15 50 25 67 25 42 25 98 -1 122 l-20 19 26 47 c17 31 25 57 22 76 -4 25 2
34 39 61 23 18 55 51 70 73 14 23 41 55 59 73 21 20 35 46 40 70 4 21 10 43
14 48 4 6 13 35 20 65 7 30 19 65 27 76 7 12 18 59 23 105 16 134 35 202 62
218 13 8 62 55 111 105 63 66 97 110 121 161 25 52 52 86 102 133 144 133 164
154 186 199 12 25 34 57 47 71 31 33 118 137 149 176 12 15 42 50 66 77 32 35
46 61 51 91 23 141 84 214 131 159 25 -29 53 -120 60 -191 3 -36 10 -77 16
-91 12 -34 80 -89 108 -89 29 0 85 64 100 113 8 29 19 42 40 50 28 11 34 24
55 122 14 65 59 77 70 19 10 -55 26 -84 51 -90 30 -8 38 -32 19 -61 -11 -16
-14 -34 -10 -54 4 -17 2 -36 -5 -44 -8 -10 -8 -21 3 -47 17 -41 37 -58 104
-93 68 -35 121 -42 161 -21 32 16 39 32 44 95 3 30 9 38 47 57 55 27 101 70
113 106 7 20 17 28 33 28 35 0 71 35 99 95 25 55 25 55 69 55 53 0 56 4 64
113 l6 79 36 -7 c20 -3 66 -9 103 -12 58 -4 72 -1 110 20 24 14 56 28 72 31
17 4 60 25 96 47 36 21 75 39 86 39 54 1 113 79 159 208 30 87 41 113 62 159
15 31 14 152 -3 231 -9 43 12 66 80 87 134 43 257 99 301 137 25 22 45 46 45
54 0 26 17 14 26 -18 5 -18 20 -38 32 -44 12 -6 30 -18 39 -26 10 -9 47 -19
84 -22 59 -7 66 -10 76 -35 12 -34 47 -43 114 -31 62 12 99 30 99 49 0 9 16
61 35 116 19 55 35 109 35 120 0 32 28 65 55 65 39 0 57 27 54 79 -5 70 41
193 121 323 12 20 20 51 20 76 0 85 59 309 93 357 12 17 31 47 41 67 10 21 43
63 72 94 29 31 59 71 67 88 17 34 49 172 67 280 8 52 18 76 38 96 15 15 35 38
44 52 11 17 43 35 93 53 60 22 90 41 145 92 39 36 79 78 91 94 25 36 55 112
76 194 15 61 13 162 -3 173 -9 7 -34 48 -34 57 0 3 7 5 15 5 10 0 15 10 15 31
0 22 5 32 20 36 11 3 20 11 20 18 0 8 9 10 25 7 36 -6 75 6 75 24 0 11 5 14
18 9 63 -27 205 -28 299 -2 33 9 46 19 59 45 23 48 115 116 192 142 75 24 144
65 160 95 32 60 42 89 48 142 3 32 12 76 21 98 21 56 135 226 172 258 36 30
54 68 70 149 14 65 22 73 105 108 58 24 63 29 96 95 40 81 153 252 202 309
l34 39 84 -48 c47 -26 127 -75 178 -107 58 -37 99 -57 110 -54 10 4 44 55 76
115 l59 108 61 -34 c33 -20 120 -66 191 -103z"/>
<path d="M6704 959 c-12 -20 -12 -89 0 -97 6 -4 11 -13 11 -21 0 -19 62 -53
84 -46 24 8 63 70 59 97 -3 21 -8 23 -48 20 -42 -2 -46 0 -57 28 -11 30 -36
40 -49 19z"/>
</g>
</svg>
