<?xml version="1.0" encoding="UTF-8" standalone="no"?>
<!DOCTYPE svg PUBLIC "-//W3C//DTD SVG 20010904//EN"
              "http://www.w3.org/TR/2001/REC-SVG-20010904/DTD/svg10.dtd">

<svg xmlns="http://www.w3.org/2000/svg"
     width="9.62306in" height="1.1001in"
     viewBox="0 0 866 99">
  <path id="Selection"
        fill="none" stroke="black" stroke-width="1"
        d="M 454.54,27.85
           C 454.54,27.85 461.00,27.85 461.00,27.85
             461.00,27.85 478.00,26.07 478.00,26.07
             478.00,26.07 552.00,19.09 552.00,19.09
             552.00,19.09 639.00,12.09 639.00,12.09
             639.00,12.09 703.00,7.91 703.00,7.91
             703.00,7.91 728.00,6.00 728.00,6.00
             728.00,6.00 751.00,4.91 751.00,4.91
             751.00,4.91 781.00,3.00 781.00,3.00
             781.00,3.00 803.00,2.00 803.00,2.00
             803.00,2.00 818.00,1.00 818.00,1.00
             818.00,1.00 839.00,0.00 839.00,0.00
             839.00,0.00 866.00,0.00 866.00,0.00
             866.00,0.00 866.00,99.00 866.00,99.00
             866.00,99.00 600.00,99.00 600.00,99.00
             600.00,99.00 523.00,99.00 523.00,99.00
             523.00,99.00 501.00,99.00 501.00,99.00
             501.00,99.00 488.00,98.00 488.00,98.00
             496.21,95.78 509.82,88.54 515.96,82.82
             518.60,80.35 522.37,75.94 521.30,72.00
             519.64,65.94 507.55,61.59 502.00,59.88
             481.80,53.68 452.32,49.71 431.00,47.15
             421.31,45.99 399.27,43.73 391.00,41.00
             398.50,35.66 413.83,35.80 423.00,33.00
             402.92,33.00 381.84,33.53 362.00,36.75
             353.60,38.12 343.71,39.05 339.00,47.00
             353.91,53.29 385.32,57.04 403.00,60.60
             410.65,62.14 422.96,63.89 426.00,72.00
             415.50,77.81 396.18,81.05 384.00,83.08
             384.00,83.08 315.00,93.15 315.00,93.15
             315.00,93.15 268.00,99.00 268.00,99.00
             268.00,99.00 163.00,99.00 163.00,99.00
             163.00,99.00 0.00,99.00 0.00,99.00
             0.00,99.00 0.00,5.00 0.00,5.00
             0.00,5.00 47.00,5.00 47.00,5.00
             47.00,5.00 62.00,6.00 62.00,6.00
             62.00,6.00 76.00,6.00 76.00,6.00
             76.00,6.00 91.00,7.00 91.00,7.00
             91.00,7.00 112.00,8.00 112.00,8.00
             112.00,8.00 152.00,10.00 152.00,10.00
             152.00,10.00 162.00,11.00 162.00,11.00
             162.00,11.00 171.00,11.00 171.00,11.00
             171.00,11.00 194.00,12.91 194.00,12.91
             194.00,12.91 217.00,14.09 217.00,14.09
             217.00,14.09 311.00,21.09 311.00,21.09
             311.00,21.09 354.00,24.83 354.00,24.83
             354.00,24.83 397.00,28.17 397.00,28.17
             397.00,28.17 437.00,31.00 437.00,31.00
             437.00,31.00 437.00,28.00 437.00,28.00
             437.00,28.00 453.00,26.00 453.00,26.00
             453.00,26.00 454.54,27.85 454.54,27.85 Z" />
</svg>
