<?xml version="1.0" encoding="UTF-8" standalone="no"?>
<svg
   xmlns:dc="http://purl.org/dc/elements/1.1/"
   xmlns:cc="http://creativecommons.org/ns#"
   xmlns:rdf="http://www.w3.org/1999/02/22-rdf-syntax-ns#"
   xmlns:svg="http://www.w3.org/2000/svg"
   xmlns="http://www.w3.org/2000/svg"
   xmlns:sodipodi="http://sodipodi.sourceforge.net/DTD/sodipodi-0.dtd"
   xmlns:inkscape="http://www.inkscape.org/namespaces/inkscape"
   width="1399pt"
   height="291pt"
   viewBox="0 0 1399 291"
   version="1.1"
   id="svg3876"
   inkscape:version="0.91 r13725"
   sodipodi:docname="landscape.svg">
  <metadata
     id="metadata4036">
    <rdf:RDF>
      <cc:Work
         rdf:about="">
        <dc:format>image/svg+xml</dc:format>
        <dc:type
           rdf:resource="http://purl.org/dc/dcmitype/StillImage" />
        <dc:title></dc:title>
      </cc:Work>
    </rdf:RDF>
  </metadata>
  <defs
     id="defs4034" />
  <sodipodi:namedview
     pagecolor="#ffffff"
     bordercolor="#666666"
     borderopacity="1"
     objecttolerance="10"
     gridtolerance="10"
     guidetolerance="10"
     inkscape:pageopacity="0"
     inkscape:pageshadow="2"
     inkscape:window-width="1920"
     inkscape:window-height="1054"
     id="namedview4032"
     showgrid="false"
     inkscape:zoom="2.8029531"
     inkscape:cx="842.80116"
     inkscape:cy="94.107862"
     inkscape:window-x="1600"
     inkscape:window-y="0"
     inkscape:window-maximized="1"
     inkscape:current-layer="svg3876" />
  <path
     fill="#ffffff"
     d=" M 0.00 0.00 L 1399.00 0.00 L 1399.00 291.00 L 1398.00 291.00 C 1398.00 240.33 1398.00 189.67 1398.00 139.00 C 1388.31 139.19 1378.58 138.47 1368.94 139.65 C 1358.87 140.63 1348.71 139.35 1338.65 140.36 C 1330.88 141.93 1322.85 139.96 1315.13 141.75 C 1309.95 142.20 1304.71 141.66 1299.57 142.49 C 1293.99 143.45 1288.28 142.55 1282.71 143.49 C 1277.07 144.47 1271.32 143.54 1265.70 144.49 C 1259.66 145.52 1253.50 144.48 1247.48 145.54 C 1240.89 146.58 1234.18 145.43 1227.59 146.43 C 1221.05 147.50 1214.42 146.65 1207.86 147.25 C 1202.70 148.64 1197.28 147.37 1192.13 148.74 C 1188.04 149.05 1183.94 148.95 1179.86 149.26 C 1174.93 150.50 1169.81 149.64 1164.84 150.48 C 1159.98 151.28 1155.03 150.72 1150.19 151.52 C 1145.03 152.33 1139.76 151.67 1134.61 152.56 C 1129.26 153.38 1123.80 152.61 1118.46 153.48 C 1112.62 154.36 1106.70 153.94 1100.83 153.97 C 1100.46 154.23 1099.71 154.74 1099.34 155.00 C 1083.85 155.21 1068.46 157.48 1052.98 158.16 C 1040.69 159.53 1028.33 159.74 1016.03 160.95 C 1011.72 161.11 1007.36 160.67 1003.14 161.70 C 992.35 162.26 981.65 163.88 970.86 164.28 C 963.28 165.32 955.62 165.68 948.00 166.30 C 941.73 167.29 935.35 166.76 929.09 167.81 C 915.04 167.99 901.14 170.28 887.14 171.24 C 867.40 173.54 847.58 174.57 827.81 176.31 C 810.24 178.52 792.58 180.10 774.96 181.87 C 773.10 173.46 774.68 164.83 773.59 156.35 C 772.46 147.97 773.25 139.50 772.94 131.08 C 771.03 131.04 769.13 131.00 767.24 130.97 C 765.53 139.81 766.40 148.82 765.58 157.73 C 764.38 165.58 765.67 173.57 764.33 181.41 C 764.40 181.72 764.56 182.35 764.64 182.66 C 762.35 182.93 760.06 183.08 757.79 183.31 C 751.96 184.32 746.04 184.69 740.21 185.67 C 729.18 186.91 718.17 188.38 707.09 189.26 C 700.15 190.40 693.04 190.30 686.10 189.23 C 670.65 188.61 655.28 186.81 639.86 185.70 C 635.67 184.79 631.33 185.21 627.15 184.30 C 619.87 183.92 612.63 183.09 605.38 182.35 C 580.93 181.03 556.51 178.89 532.16 176.29 C 525.07 176.10 518.07 174.71 510.97 174.97 C 495.70 173.69 480.36 173.07 465.14 171.28 C 457.46 170.86 449.76 170.30 442.14 169.28 C 434.39 169.18 426.76 167.58 419.00 167.99 C 398.38 166.46 377.70 165.36 357.14 163.28 C 349.35 163.12 341.66 161.86 333.87 161.73 C 327.69 160.22 321.29 161.58 315.05 160.65 C 307.77 159.47 300.35 160.51 293.08 159.17 C 284.71 159.16 276.44 157.89 268.08 157.75 C 262.48 156.60 256.69 157.56 251.14 156.25 C 246.14 155.79 241.05 156.49 236.14 155.25 C 231.11 154.83 226.03 155.31 221.03 154.48 C 213.80 153.33 206.44 154.65 199.21 153.54 C 191.68 152.29 183.99 153.70 176.45 152.50 C 169.90 151.41 163.20 152.61 156.65 151.44 C 150.24 150.43 143.69 151.60 137.28 150.49 C 129.87 149.28 122.32 150.71 114.91 149.51 C 107.68 148.32 100.33 149.56 93.07 148.73 C 82.80 147.06 72.35 148.70 62.04 147.73 C 59.05 147.27 56.04 146.93 53.01 146.97 C 35.34 147.03 17.67 146.99 0.00 147.00 L 0.00 0.00 Z"
     id="path3878"
     style="fill:none;fill-opacity:1" />
  <path
     fill="#c8c8c8"
     d=" M 700.25 30.31 C 700.73 30.83 700.73 30.83 700.25 30.31 Z"
     id="path3880" />
  <path
     fill="#bcbcbc"
     d=" M 703.27 34.29 C 703.76 34.81 703.76 34.81 703.27 34.29 Z"
     id="path3882" />
  <path
     fill="#bdbdbd"
     d=" M 698.27 37.24 C 698.79 37.74 698.79 37.74 698.27 37.24 Z"
     id="path3884" />
  <path
     fill="#c1c1c1"
     d=" M 705.32 45.24 C 705.82 45.75 705.82 45.75 705.32 45.24 Z"
     id="path3890" />
  <path
     fill="#bbbbbb"
     d=" M 696.28 49.22 C 696.76 49.76 696.76 49.76 696.28 49.22 Z"
     id="path3892" />
  <path
     fill="#b9b9b9"
     d=" M 706.28 51.20 C 706.78 51.72 706.78 51.72 706.28 51.20 Z"
     id="path3894" />
  <path
     fill="#b8b8b8"
     d=" M 707.26 58.27 C 707.72 58.83 707.72 58.83 707.26 58.27 Z"
     id="path3898" />
  <path
     fill="#cccccc"
     d=" M 697.31 73.25 C 697.75 73.81 697.75 73.81 697.31 73.25 Z"
     id="path3906" />
  <path
     fill="#c8c8c8"
     d=" M 705.26 73.26 C 705.75 73.78 705.75 73.78 705.26 73.26 Z"
     id="path3908" />
  <path
     fill="#afafaf"
     d=" M 695.29 74.22 C 695.78 74.76 695.78 74.76 695.29 74.22 Z"
     id="path3910" />
  <path
     fill="#b8b8b8"
     d=" M 707.28 74.27 C 707.80 74.77 707.80 74.77 707.28 74.27 Z"
     id="path3912" />
  <path
     fill="#c2c2c2"
     d=" M 704.23 78.21 C 704.75 78.70 704.75 78.70 704.23 78.21 Z"
     id="path3914" />
  <path
     fill="#bdbdbd"
     d=" M 769.21 80.60 C 769.63 81.03 770.46 81.88 770.88 82.31 C 772.82 92.05 773.21 102.03 775.13 111.77 C 771.47 110.62 767.61 110.87 763.99 111.99 C 765.81 101.55 766.55 90.90 769.21 80.60 Z"
     id="path3916" />
  <path
     fill="#bababa"
     d=" M 715.27 85.29 C 715.78 85.80 715.78 85.80 715.27 85.29 Z"
     id="path3918" />
  <path
     fill="#b5b5b5"
     d=" M 684.25 87.26 C 684.76 87.77 684.76 87.77 684.25 87.26 Z"
     id="path3920" />
  <path
     fill="#c6c6c6"
     d=" M 709.23 88.25 C 709.72 88.76 709.72 88.76 709.23 88.25 Z"
     id="path3924" />
  <path
     fill="#c2c2c2"
     d=" M 719.23 88.25 C 719.70 88.78 719.70 88.78 719.23 88.25 Z"
     id="path3926" />
  <path
     fill="#aeaeae"
     d=" M 688.27 89.24 C 688.78 89.76 688.78 89.76 688.27 89.24 Z"
     id="path3928" />
  <path
     fill="#bebebe"
     d=" M 693.28 89.22 C 693.78 89.73 693.78 89.73 693.28 89.22 Z"
     id="path3930" />
  <path
     fill="#bcbcbc"
     d=" M 680.26 90.31 C 680.75 90.83 680.75 90.83 680.26 90.31 Z"
     id="path3932" />
  <path
     fill="#b1b1b1"
     d=" M 713.25 91.27 C 713.76 91.79 713.76 91.79 713.25 91.27 Z"
     id="path3934" />
  <path
     fill="#c9c9c9"
     d=" M 723.18 91.23 C 723.71 91.71 723.71 91.71 723.18 91.23 Z"
     id="path3936" />
  <path
     fill="#b1b1b1"
     d=" M 689.27 92.29 C 689.75 92.83 689.75 92.83 689.27 92.29 Z"
     id="path3938" />
  <path
     fill="#c7c7c7"
     d=" M 676.25 93.29 C 676.76 93.79 676.76 93.79 676.25 93.29 Z"
     id="path3940" />
  <path
     fill="#b7b7b7"
     d=" M 712.28 93.24 C 712.77 93.77 712.77 93.77 712.28 93.24 Z"
     id="path3942" />
  <path
     fill="#c6c6c6"
     d=" M 703.26 94.27 C 703.78 94.75 703.78 94.75 703.26 94.27 Z"
     id="path3946" />
  <path
     fill="#c9c9c9"
     d=" M 727.32 94.21 C 727.81 94.72 727.81 94.72 727.32 94.21 Z"
     id="path3948" />
  <path
     fill="#c4c4c4"
     d=" M 672.29 96.28 C 672.80 96.77 672.80 96.77 672.29 96.28 Z"
     id="path3950" />
  <path
     fill="#bdbdbd"
     d=" M 731.23 97.33 C 731.76 97.81 731.76 97.81 731.23 97.33 Z"
     id="path3954" />
  <path
     fill="#c8c8c8"
     d=" M 695.23 98.27 C 695.73 98.76 695.73 98.76 695.23 98.27 Z"
     id="path3956" />
  <path
     fill="#bababa"
     d=" M 668.33 99.28 C 668.86 99.76 668.86 99.76 668.33 99.28 Z"
     id="path3958" />
  <path
     fill="#bbbbbb"
     d=" M 699.27 99.22 C 699.78 99.73 699.78 99.73 699.27 99.22 Z"
     id="path3960" />
  <path
     fill="#c9c9c9"
     d=" M 711.24 100.27 C 711.74 100.77 711.74 100.77 711.24 100.27 Z"
     id="path3964" />
  <path
     fill="#b5b5b5"
     d=" M 690.29 101.23 C 690.82 101.73 690.82 101.73 690.29 101.23 Z"
     id="path3966" />
  <path
     fill="#bcbcbc"
     d=" M 713.27 101.28 C 713.78 101.78 713.78 101.78 713.27 101.28 Z"
     id="path3968" />
  <path
     fill="#cdcdcd"
     d=" M 715.31 102.30 C 715.82 102.79 715.82 102.79 715.31 102.30 Z"
     id="path3970" />
  <path
     fill="#bdbdbd"
     d=" M 663.26 103.26 C 663.76 103.78 663.76 103.78 663.26 103.26 Z"
     id="path3972" />
  <path
     fill="#c0c0c0"
     d=" M 685.30 103.27 C 685.80 103.78 685.80 103.78 685.30 103.27 Z"
     id="path3974" />
  <path
     fill="#bbbbbb"
     d=" M 718.33 103.31 C 718.82 103.83 718.82 103.83 718.33 103.31 Z"
     id="path3976" />
  <path
     fill="#b5b5b5"
     d=" M 739.32 103.31 C 739.81 103.85 739.81 103.85 739.32 103.31 Z"
     id="path3978" />
  <path
     fill="#bfbfbf"
     d=" M 725.30 106.20 C 725.80 106.70 725.80 106.70 725.30 106.20 Z"
     id="path3984" />
  <path
     fill="#cccccc"
     d=" M 730.26 108.24 C 730.71 108.78 730.71 108.78 730.26 108.24 Z"
     id="path3988" />
  <path
     fill="#b3b3b3"
     d=" M 668.26 110.22 C 668.79 110.72 668.79 110.72 668.26 110.22 Z"
     id="path3990" />
  <path
     fill="#b7b7b7"
     d=" M 735.26 110.25 C 735.80 110.73 735.80 110.73 735.26 110.25 Z"
     id="path3992" />
  <path
     fill="#c6c6c6"
     d=" M 663.25 112.25 C 663.73 112.77 663.73 112.77 663.25 112.25 Z"
     id="path3994" />
  <path
     fill="#b7b7b7"
     d=" M 740.21 112.28 C 740.74 112.77 740.74 112.77 740.21 112.28 Z"
     id="path3996" />
  <path
     fill="#c9c9c9"
     d=" M 749.25 112.22 C 749.74 112.73 749.74 112.73 749.25 112.22 Z"
     id="path3998" />
  <path
     fill="#b2b2b2"
     d=" M 743.30 113.31 C 743.82 113.82 743.82 113.82 743.30 113.31 Z"
     id="path4002" />
  <path
     fill="#c0c0c0"
     d=" M 657.22 114.25 C 657.70 114.78 657.70 114.78 657.22 114.25 Z"
     id="path4004" />
  <path
     fill="#bbbbbb"
     d=" M 750.28 114.29 C 750.80 114.77 750.80 114.77 750.28 114.29 Z"
     id="path4006" />
  <path
     fill="#bdbdbd"
     d=" M 763.89 118.09 C 766.09 116.35 768.62 115.09 771.42 114.69 C 772.64 115.99 773.89 117.26 775.17 118.52 C 775.16 121.23 774.66 123.90 773.04 126.13 C 771.15 126.07 769.27 126.02 767.39 125.98 C 766.26 124.84 765.13 123.71 764.02 122.57 C 763.97 121.08 763.93 119.58 763.89 118.09 Z"
     id="path4008" />
  <path
     fill="#bdbdbd"
     d=" M 742.00 133.97 C 747.90 129.56 753.52 124.78 759.60 120.60 C 759.69 124.53 761.63 127.94 765.26 129.57 C 760.28 131.91 755.35 134.40 750.14 136.18 C 744.94 137.97 740.08 141.01 734.45 141.25 C 736.74 138.60 739.19 136.08 742.00 133.97 Z"
     id="path4010" />
  <path
     fill="#bdbdbd"
     d=" M 779.42 122.28 C 779.63 121.94 780.04 121.25 780.25 120.91 C 784.72 124.45 789.61 127.43 793.94 131.16 C 797.66 134.33 802.58 136.46 804.62 141.22 C 794.36 138.41 784.63 133.99 774.91 129.74 C 777.02 127.66 778.54 125.11 779.42 122.28 Z"
     id="path4012" />
  <path
     fill="#bdbdbd"
     d=" M 767.24 130.97 C 769.13 131.00 771.03 131.04 772.94 131.08 C 773.25 139.50 772.46 147.97 773.59 156.35 C 774.68 164.83 773.10 173.46 774.96 181.87 C 771.51 182.05 768.05 182.15 764.64 182.66 C 764.56 182.35 764.40 181.72 764.33 181.41 C 765.67 173.57 764.38 165.58 765.58 157.73 C 766.40 148.82 765.53 139.81 767.24 130.97 Z"
     id="path4016" />
  <path
     style="fill:#ffd000"
     d="m 1368.94,139.65 c 36.2507,-13.86181 29.2095,17.93141 29.06,41.53732 L 1398,291 805.94,291 c 40.87568,-7.31037 46.70243,-44.42293 3.33459,-54.83293 C 751.3375,218.83813 634.58157,210.06939 633.03248,203.63 c 1.14567,-3.87741 75.82611,-13.77767 27.98752,-11.67 -31.45237,4.32947 -112.74006,16.58937 -108.61,25.1 3.61365,4.66636 122.97568,24.60663 125.85758,31.84625 0.16278,8.29116 -71.58528,21.74543 -106.6193,31.88969 C 518.29159,292.15466 464.11376,291.62447 409.89038,291 L 0,291 0,147 c 232.71924,2.47023 464.6574,24.96035 696.595,43.07375 223.73186,-23.98136 447.7944,-40.86187 672.345,-50.42375 z"
     id="path4020"
     inkscape:connector-curvature="0"
     sodipodi:nodetypes="ccccccccccccccc" />
  <path
     fill="#ffffff"
     d=" M 661.02 191.96 C 668.76 191.41 676.90 189.59 684.45 192.17 C 680.59 193.20 676.66 193.89 672.71 194.35 C 667.60 195.30 662.45 195.85 657.32 196.59 C 655.65 196.93 653.99 197.27 652.34 197.65 C 651.00 197.97 649.66 198.30 648.34 198.65 C 646.99 199.01 645.63 199.37 644.31 199.77 C 643.41 199.90 642.52 200.03 641.63 200.16 C 640.22 200.71 638.82 201.25 637.43 201.81 C 636.97 201.92 636.05 202.14 635.58 202.25 C 634.16 202.71 632.74 203.17 631.32 203.63 C 632.35 204.41 633.39 205.16 634.46 205.90 C 643.52 207.81 652.65 209.36 661.81 210.74 C 675.21 211.41 688.47 213.70 701.72 215.68 C 703.23 215.89 704.74 216.09 706.26 216.31 C 709.09 216.86 711.97 217.14 714.81 217.75 C 722.37 217.92 729.81 219.32 737.28 220.35 C 740.06 220.86 742.89 221.14 745.68 221.63 C 748.90 222.17 752.10 222.78 755.32 223.35 C 763.73 224.99 772.31 225.63 780.65 227.64 C 781.98 227.97 783.30 228.31 784.65 228.67 C 787.33 229.29 790.01 229.97 792.68 230.71 C 796.00 231.38 799.34 231.99 802.67 232.70 C 803.56 232.86 804.45 233.03 805.36 233.20 C 806.75 233.71 808.16 234.22 809.56 234.74 C 810.56 235.04 811.57 235.36 812.59 235.69 C 813.58 236.02 814.58 236.36 815.59 236.71 C 816.58 237.02 817.59 237.34 818.60 237.67 C 819.58 238.04 820.57 238.41 821.57 238.80 C 822.03 238.88 822.96 239.05 823.43 239.14 C 830.62 242.45 839.03 245.63 843.01 252.96 C 844.98 256.20 843.77 260.12 842.80 263.47 C 838.20 270.24 832.38 276.20 825.23 280.28 C 819.18 284.51 812.60 287.85 805.94 291.00 L 499.89 291.00 C 512.52 288.04 525.59 288.12 538.31 285.68 C 540.76 285.16 543.25 284.83 545.71 284.32 C 557.21 282.51 568.77 281.20 580.30 279.69 C 582.74 279.17 585.22 278.83 587.67 278.34 C 599.94 275.86 612.44 274.71 624.71 272.31 C 625.89 272.10 627.09 271.90 628.30 271.70 C 629.96 271.31 631.64 270.97 633.32 270.63 C 634.97 270.27 636.64 269.96 638.32 269.65 C 639.97 269.28 641.65 268.96 643.32 268.65 C 644.98 268.28 646.65 267.96 648.32 267.63 C 650.75 267.16 653.21 266.84 655.65 266.38 C 656.98 266.04 658.31 265.69 659.66 265.34 C 661.00 264.99 662.33 264.62 663.68 264.24 C 664.57 264.10 665.46 263.95 666.36 263.81 C 667.36 263.42 668.37 263.03 669.39 262.66 C 672.71 261.55 676.06 260.52 679.49 259.77 C 682.64 258.26 685.73 256.61 688.56 254.55 C 687.51 249.85 683.44 247.32 679.53 245.19 C 677.85 244.73 676.18 244.26 674.51 243.80 C 673.49 243.26 672.47 242.73 671.46 242.20 C 670.44 241.92 669.42 241.64 668.42 241.36 C 667.38 240.96 666.36 240.56 665.35 240.16 C 664.44 240.05 663.55 239.95 662.66 239.84 C 661.23 239.30 659.81 238.78 658.40 238.24 C 653.76 237.69 649.22 236.59 644.65 235.67 C 642.55 235.19 640.44 234.80 638.35 234.33 C 635.77 233.81 633.22 233.23 630.66 232.66 C 622.43 230.73 613.91 230.54 605.67 228.66 C 603.23 228.17 600.76 227.84 598.32 227.37 C 596.65 227.03 594.97 226.71 593.32 226.33 C 590.09 225.84 586.89 225.21 583.67 224.64 C 576.18 223.42 568.60 222.49 561.31 220.27 C 560.42 220.10 559.53 219.93 558.66 219.77 C 557.61 219.43 556.57 219.11 555.53 218.79 C 554.48 218.22 553.44 217.64 552.41 217.06 C 551.89 217.05 550.87 217.02 550.35 217.00 C 549.05 215.67 547.76 214.33 546.48 212.99 C 548.86 209.13 552.21 205.92 556.45 204.18 C 558.84 203.63 561.22 203.00 563.58 202.31 C 568.38 200.68 573.28 199.33 578.31 198.63 C 580.29 198.23 582.29 197.92 584.28 197.57 C 593.21 196.89 602.10 195.73 611.02 194.83 C 616.26 193.89 621.65 194.36 626.87 193.25 C 632.27 192.74 637.80 193.53 643.12 192.20 C 649.08 191.78 655.05 192.17 661.02 191.96 Z"
     id="path4030"
     style="fill:#ffffff;fill-opacity:0" />
  <path
     inkscape:connector-curvature="0"
     style="fill:#ffffff;fill-opacity:1;stroke:#000000;stroke-width:1.54900873;stroke-opacity:0.27918785"
     d="m 690.78095,33.135041 c 0.65058,0.666076 1.93625,1.982732 2.58684,2.648807 3.0051,15.087345 3.60921,30.546455 6.58331,45.633803 -5.66938,-1.781361 -11.64856,-1.394111 -17.25597,0.340782 2.8192,-16.171654 3.96545,-32.668599 8.08582,-48.623392 z"
     id="path3916-5" />
  <path
     inkscape:connector-curvature="0"
     style="fill:#ffffff;fill-opacity:1;stroke:#000000;stroke-width:1.54900873;stroke-opacity:0.27918785"
     d="m 682.54024,91.207389 c 3.40781,-2.695284 7.32679,-4.647029 11.66401,-5.266636 1.8898,2.013719 3.82606,3.980957 5.80879,5.932696 -0.0154,4.197828 -0.78998,8.333681 -3.29937,11.787971 -2.92764,-0.093 -5.83977,-0.17038 -8.75191,-0.23236 -1.75039,-1.76587 -3.50076,-3.516245 -5.22016,-5.282118 -0.0775,-2.308006 -0.13944,-4.631535 -0.20136,-6.939553 z"
     id="path4008-2" />
  <path
     inkscape:connector-curvature="0"
     style="fill:#ffffff;fill-opacity:1;stroke:#000000;stroke-width:1.54900873;stroke-opacity:0.27918785"
     d="m 648.63241,115.80566 c 9.13917,-6.83116 17.84457,-14.2354 27.26256,-20.710258 0.13943,6.087608 3.14451,11.369738 8.76741,13.894608 -7.71408,3.62467 -15.35068,7.48171 -23.42104,10.23894 -8.05483,2.77274 -15.58303,7.48171 -24.30394,7.85348 3.54722,-4.10487 7.34229,-8.00837 11.69501,-11.27677 z"
     id="path4010-7" />
  <path
     inkscape:connector-curvature="0"
     style="fill:#ffffff;fill-opacity:1;stroke:#000000;stroke-width:1.54900873;stroke-opacity:0.27918785"
     d="m 706.59633,97.697736 c 0.32531,-0.526669 0.96041,-1.595483 1.28568,-2.122152 6.92407,5.483496 14.49872,10.099556 21.20593,15.877356 5.76231,4.91035 13.38344,8.20974 16.54342,15.58303 -15.89285,-4.35272 -30.9647,-11.19934 -46.02105,-17.78265 3.26839,-3.22191 5.62289,-7.17189 6.98602,-11.555584 z"
     id="path4012-9" />
  <path
     inkscape:connector-curvature="0"
     style="fill:#ffffff;fill-opacity:1;stroke:#000000;stroke-width:1.54900873;stroke-opacity:0.27918785"
     d="m 687.7294,111.15863 c 2.92762,0.0465 5.87075,0.10854 8.82936,0.17038 0.48018,13.04266 -0.74354,26.16275 1.00686,39.14345 1.68841,13.13558 -0.75903,26.50355 2.12213,39.5307 -5.34409,0.27883 -10.70364,0.43374 -15.98577,1.22374 -0.12395,-0.48019 -0.37177,-1.45608 -0.48019,-1.93627 2.07567,-12.14424 0.0776,-24.52082 1.93627,-36.68052 1.27018,-13.80169 -0.0774,-27.75825 2.57134,-41.45148 z"
     id="path4016-5" />
</svg>
