<?xml version="1.0" encoding="UTF-8" standalone="no"?>
<svg
   xmlns:dc="http://purl.org/dc/elements/1.1/"
   xmlns:cc="http://creativecommons.org/ns#"
   xmlns:rdf="http://www.w3.org/1999/02/22-rdf-syntax-ns#"
   xmlns:svg="http://www.w3.org/2000/svg"
   xmlns="http://www.w3.org/2000/svg"
   xmlns:sodipodi="http://sodipodi.sourceforge.net/DTD/sodipodi-0.dtd"
   xmlns:inkscape="http://www.inkscape.org/namespaces/inkscape"
   version="1.0"
   width="1218.000000pt"
   height="1256.000000pt"
   viewBox="0 0 1218.000000 1256.000000"
   preserveAspectRatio="xMidYMid meet"
   id="svg6422"
   inkscape:version="0.91 r13725"
   sodipodi:docname="map.svg">
  <defs
     id="defs6434" />
  <sodipodi:namedview
     pagecolor="#ffffff"
     bordercolor="#666666"
     borderopacity="1"
     objecttolerance="10"
     gridtolerance="10"
     guidetolerance="10"
     inkscape:pageopacity="0"
     inkscape:pageshadow="2"
     inkscape:window-width="775"
     inkscape:window-height="425"
     id="namedview6432"
     showgrid="false"
     inkscape:zoom="0.55350318"
     inkscape:cx="761.25"
     inkscape:cy="785"
     inkscape:window-x="147"
     inkscape:window-y="328"
     inkscape:window-maximized="0"
     inkscape:current-layer="svg6422" />
  <metadata
     id="metadata6424">
Created by potrace 1.13, written by Peter Selinger 2001-2015
<rdf:RDF>
  <cc:Work
     rdf:about="">
    <dc:format>image/svg+xml</dc:format>
    <dc:type
       rdf:resource="http://purl.org/dc/dcmitype/StillImage" />
    <dc:title></dc:title>
  </cc:Work>
</rdf:RDF>
</metadata>
  <path
     style="fill:#ffdd00;fill-opacity:1;stroke:#000000;stroke-width:1.44533944;stroke-opacity:0"
     d="m 440.58314,1242.1692 c -1.40942,-1.0306 -3.75466,-5.7686 -5.21165,-10.5287 -3.93258,-12.8484 -12.8647,-18.0136 -31.2166,-18.0516 -8.26435,-0.017 -8.83217,-0.253 -12.07827,-5.0198 -3.69622,-5.4278 -7.26916,-14.4017 -7.37038,-18.5116 -0.0348,-1.4168 -1.20164,-3.0428 -2.59278,-3.6134 -1.39114,-0.5706 -5.45615,-2.9616 -9.03337,-5.3133 -3.57721,-2.3518 -6.66203,-4.3526 -6.85516,-4.4463 -0.19311,-0.094 -1.00789,-3.6334 -1.81059,-7.8661 -0.80271,-4.2327 -2.22334,-8.6162 -3.15695,-9.7411 -2.53515,-3.0547 -8.73415,-5.9349 -17.92643,-8.3292 -8.10424,-2.1109 -8.36323,-2.0805 -19.18456,2.2526 -13.01382,5.211 -16.63606,4.4983 -18.14986,-3.571 -1.12206,-5.981 -6.65346,-13.0784 -12.58229,-16.1443 -2.40308,-1.2427 -4.16385,-3.3311 -4.16385,-4.9388 0,-4.9111 -3.28242,-10.1914 -6.8997,-11.0993 -4.50096,-1.1297 -22.84303,0.5516 -28.57309,2.6191 -3.70257,1.336 -5.40006,1.0757 -10.73541,-1.6463 -7.30893,-3.7287 -21.31151,-5.4531 -25.60828,-3.1535 -2.43094,1.301 -3.17736,1.0288 -4.46306,-1.6277 -0.84915,-1.7544 -1.97038,-5.1411 -2.49162,-7.5259 -1.3058,-5.9743 -4.76199,-9.3947 -9.493,-9.3947 -3.80599,0 -3.91428,-0.1912 -2.39223,-4.2236 1.3912,-3.6857 1.09908,-4.9382 -2.29355,-9.8338 -2.13829,-3.0855 -3.8878,-6.646 -3.8878,-7.912 0,-4.0284 -9.26218,-10.6525 -18.53178,-13.2535 -5.33276,-1.4962 -9.48248,-3.5789 -10.346,-5.1924 -0.793,-1.4817 -1.33318,-6.6361 -1.20039,-11.4543 0.30359,-11.0157 -1.58095,-13.3414 -16.17269,-19.9587 -8.11306,-3.6792 -12.74853,-6.9888 -18.42645,-13.156 -4.17252,-4.532 -7.58714,-8.7112 -7.58803,-9.287 -8e-4,-0.5757 -1.8915,-2.0241 -4.20132,-3.2186 -2.30984,-1.1945 -8.43964,-7.1211 -13.62179,-13.17035 l -9.422101,-10.99856 -0.470272,-27.6976 c -0.463576,-27.30352 -0.527216,-27.79272 -4.471888,-34.37464 -4.57248,-7.62952 -4.200512,-9.75152 2.621496,-14.95488 8.166885,-6.2292 9.156235,-17.10888 2.595328,-28.54024 -3.012536,-5.24888 -14.344479,-11.8452 -17.823871,-10.37528 -1.199412,0.50672 -5.757965,1.73336 -10.130117,2.72592 -4.372152,0.99256 -9.900575,2.85976 -12.285386,4.14936 -7.432278,4.01904 -12.285385,2.24976 -12.285385,-4.47872 0,-1.92712 -2.168009,-5.54048 -5.058688,-8.4312 -2.782279,-2.78224 -5.058688,-5.31512 -5.058688,-5.62856 0,-5.59744 -3.760988,-24.24984 -5.892088,-29.22152 -2.48217,-5.79064 -2.632328,-7.656 -1.243656,-15.44916 0.868652,-4.8748 2.890088,-12.76571 4.49208,-17.53533 4.377158,-13.03213 4.746644,-16.38977 2.122652,-19.28925 -2.019601,-2.23164 -2.051509,-2.92454 -0.252921,-5.49239 1.132041,-1.61623 2.290351,-4.67169 2.574022,-6.78994 0.283672,-2.11824 2.798557,-6.28764 5.588633,-9.26532 11.831459,-12.627 14.050481,-16.22614 18.473404,-29.96297 2.473408,-7.68197 5.216275,-18.63434 6.09526,-24.33857 2.004814,-13.01041 2.194511,-13.34875 14.233619,-25.38787 5.474415,-5.47441 11.40077,-12.79046 13.169682,-16.25788 1.768912,-3.46743 9.298885,-12.58242 16.733275,-20.25552 7.4344,-7.67312 13.51708,-14.51195 13.51708,-15.1974 0,-0.68545 6.7851,-9.33551 15.078,-19.22234 11.30268,-13.47509 15.48343,-19.58613 16.6972,-24.40643 5.41283,-21.49631 13.31746,-18.87761 17.27951,5.72444 1.59765,9.92054 6.83696,17.18862 12.39069,17.18862 3.49268,0 7.94176,-4.33297 11.32172,-11.02623 1.256,-2.48722 3.22466,-4.88331 4.37481,-5.32466 1.15015,-0.44136 3.15635,-4.46649 4.45819,-8.94473 2.58236,-8.88299 5.0023,-9.75944 6.88507,-2.49362 0.64622,2.49385 2.51048,5.46971 4.14281,6.61305 2.73939,1.91875 2.85056,2.71322 1.4442,10.32091 -2.14099,11.5817 1.27659,16.51167 15.10801,21.79395 8.02898,3.0663 14.67239,0.99824 15.99437,-4.97894 1.64478,-7.43659 2.14281,-8.17072 7.96508,-11.74109 3.2408,-1.98733 6.78238,-5.32574 7.87021,-7.41868 1.08781,-2.09293 3.60291,-4.21321 5.58913,-4.7117 2.23681,-0.56142 5.05878,-3.37637 7.41448,-7.39605 2.74446,-4.68307 4.7216,-6.48967 7.10224,-6.48967 4.52555,0 6.0498,-2.34718 7.23098,-11.13495 l 1.011,-7.52157 11.07489,0.29488 c 10.60052,0.28226 11.65757,8e-4 24.67834,-6.57047 7.48189,-3.77595 14.40635,-6.86536 15.38767,-6.86536 3.86927,0 10.73054,-10.6065 16.46476,-25.45207 5.62598,-14.56529 5.99268,-16.39541 5.57648,-27.8314 l -0.44548,-12.24091 13.78135,-5.22938 c 15.2152,-5.77348 23.46842,-10.36306 26.55197,-14.76544 2.02816,-2.8956 2.03035,-2.89557 2.96423,0.0468 1.21708,3.83469 8.71413,8.2732 15.78237,9.3437 3.2814,0.49698 6.45895,2.07145 7.67,3.80045 2.45448,3.5043 9.74964,3.93982 16.78116,1.00187 4.3142,-1.80258 4.99397,-3.06914 8.98696,-16.74419 3.93571,-13.47899 4.71779,-14.96121 8.79779,-16.67395 4.07469,-1.71051 4.55393,-2.61477 5.32008,-10.03806 0.55385,-5.36636 3.03121,-12.7185 7.23921,-21.48412 4.11195,-8.56556 6.73141,-16.27502 7.33277,-21.58146 1.8493,-16.31816 7.35599,-29.7545 18.07072,-44.09261 9.73108,-13.02182 10.03222,-13.68763 13.27888,-29.35964 4.07627,-19.67657 6.86983,-23.77861 21.07466,-30.94565 18.21621,-9.19097 28.60678,-24.29117 30.48516,-44.30278 0.57332,-6.10794 0.16525,-8.99242 -1.66792,-11.7902 -1.59962,-2.44134 -1.90747,-4.02503 -0.90307,-4.64579 0.83814,-0.518 1.52388,-1.96993 1.52388,-3.2265 0,-3.14859 4.28548,-6.11558 8.91293,-6.17078 2.11983,-0.0253 4.07103,-0.63157 4.33602,-1.34733 0.27956,-0.75515 3.63484,-0.79673 7.99407,-0.099 4.14381,0.66317 11.59678,0.62721 16.62141,-0.0802 8.1955,-1.15389 9.61743,-1.87746 14.17745,-7.21449 3.47924,-4.07209 9.3622,-8.05725 18.7634,-12.71047 15.55091,-7.69709 17.9716,-10.61758 20.44656,-24.66809 1.68661,-9.57502 7.85561,-21.06139 17.42789,-32.44987 3.58926,-4.27025 6.79903,-10.16086 8.26943,-15.17606 2.19517,-7.4874 3.00976,-8.51072 9.41192,-11.82388 5.94627,-3.077239 8.19073,-5.586466 14.80569,-16.552159 4.28832,-7.10879 10.41913,-16.39814 13.62404,-20.643002 l 5.82709,-7.717929 4.60474,2.740318 c 2.53261,1.507174 10.22349,6.087284 17.09086,10.178022 6.86736,4.090636 13.51185,7.437602 14.76552,7.437602 1.30925,0 4.91478,-4.533105 8.4713,-10.650708 l 6.19192,-10.650708 24.57332,13.201773 c 32.2948,17.350063 35.40824,19.343507 35.40824,22.670918 0,1.52504 -0.68176,2.772799 -1.51512,2.772799 -0.83328,0 -2.29904,1.788608 -3.2572,3.974684 -0.95816,2.186073 -2.84896,5.60493 -4.20184,7.59745 -2.08096,3.06479 -2.21528,4.62305 -0.87208,10.11738 2.0184,8.25603 4.88808,11.55329 10.05504,11.55329 5.4644,0 23.132,7.15434 22.03816,8.92415 -1.1804,1.90995 -6.31,23.01069 -6.33112,26.04338 -0.0456,6.59236 15.72112,9.41642 23.59376,4.2259 2.25432,-1.4863 6.05656,-5.07753 8.44944,-7.98051 2.39288,-2.90297 9.34584,-9.08061 15.45104,-13.72809 6.1052,-4.64749 14.82888,-12.47728 19.38608,-17.39953 7.86296,-8.49297 8.58872,-8.92622 14.22608,-8.49211 6.68864,0.51507 7.28,-0.11064 10.15384,-10.74393 1.02048,-3.77595 2.36392,-6.86536 2.98528,-6.86536 0.62136,0 1.12984,0.58677 1.12984,1.30394 0,1.91144 8.68664,4.62011 10.8224,3.37464 1.00472,-0.58588 3.552,-3.13232 5.66064,-5.658751 3.76704,-4.513389 15.94048,-10.438233 17.74312,-8.635604 0.50544,0.505418 -0.23112,6.399154 -1.63672,13.097185 -1.40568,6.69804 -2.15816,12.82147 -1.67232,13.60762 0.48592,0.78615 5.09984,3.40247 10.25328,5.81404 5.15336,2.41157 11.81926,6.32478 14.81316,8.69603 11.5864,9.17696 44.264,27.80302 48.0115,27.36631 2.979,-0.34716 5.4065,-3.32884 12.7043,-15.60523 4.9619,-8.34684 9.2445,-15.82647 9.5169,-16.62141 0.2724,-0.79493 3.9361,0.69211 8.1416,3.30453 6.8799,4.27374 8.1238,4.59231 12.4089,3.17808 6.678,-2.20393 8.9344,-5.19229 6.6646,-8.82677 -0.9728,-1.55766 -1.3586,-3.49558 -0.8574,-4.30648 0.5011,-0.81092 1.9865,0.67895 3.3009,3.3108 4.13,8.26984 7.009,6.55217 18.6275,-11.11355 5.751,-8.7443 10.9542,-15.886161 11.5627,-15.870792 0.6085,0.01536 4.4993,1.803976 8.6464,3.974682 4.1469,2.17071 7.8816,3.94674 8.2991,3.94674 0.4176,0 3.7838,-4.548613 7.4806,-10.108036 l 6.7214,-10.108038 5.2142,3.141159 c 18.1528,10.935737 35.8517,22.081555 37.5424,23.642185 1.6448,1.51842 -1.1688,6.87281 -16.7921,31.95521 -41.2399,66.20825 -48.3353,78.77759 -47.3711,83.91706 0.9032,4.81477 -1.4173,16.35413 -3.2702,16.26183 -0.5656,-0.0282 -2.6543,-0.98072 -4.6417,-2.11679 -6.1062,-3.49064 -8.4157,-2.70586 -10.0653,3.42021 -0.8471,3.14577 -10.3472,18.10023 -21.7358,34.21519 -11.1271,15.74483 -20.2311,29.46732 -20.2311,30.49442 0,1.02709 1.3903,2.61148 3.0895,3.52088 2.8527,1.52672 3.0221,2.4444 2.2106,11.97489 -1.4829,17.41706 -2.1788,19.43587 -7.0708,20.51031 -3.8086,0.83652 -5.2037,2.77731 -11.5568,16.07692 -3.974,8.31905 -7.3164,17.19456 -7.4276,19.72335 -0.176,4.00114 0.3135,4.65713 3.7724,5.05511 4.505,0.51836 4.4972,0.49358 2.4533,7.85337 -1.356,4.88272 -1.9844,5.42002 -6.3391,5.42002 -4.8117,0 -4.8447,0.0474 -7.1588,10.29468 -3.1005,13.72945 -3.082,13.90596 2.7313,26.03615 3.2413,6.76344 4.7266,11.6044 4.1382,13.48716 -0.5048,1.6153 -5.0565,11.89432 -10.1148,22.84227 -5.0583,10.94795 -9.1969,21.47685 -9.1969,23.39754 0,2.90493 -0.6624,3.44641 -3.9388,3.22006 -2.2354,-0.15443 -3.9543,0.47794 -3.9747,1.4623 -0.054,2.57533 -2.1453,4.00546 -10.1533,6.94093 -3.9746,1.45699 -9.1778,4.69815 -11.5627,7.20254 -2.9564,3.10472 -7.325,5.41448 -13.7307,7.25963 -7.78552,2.24263 -11.07032,4.26814 -19.17784,11.82575 -5.38072,5.01578 -10.74488,9.1196 -11.92032,9.1196 -1.17552,0 -8.48032,5.73184 -16.23304,12.73742 -14.23368,12.8621 -27.84024,23.73343 -50.72488,40.528 -6.88184,5.05039 -19.3416,15.5255 -27.6884,23.278 -8.34688,7.75249 -19.07848,16.56859 -23.84816,19.59133 -4.7696,3.02274 -13.55,9.40546 -19.51208,14.18383 -5.962,4.77834 -15.718,10.87431 -21.68008,13.54656 -18.30621,8.20512 -23.21915,11.03516 -30.6492,17.65515 -6.61057,5.88984 -7.0907,6.76054 -6.23704,11.31095 1.1078,5.90506 -1.2592,9.52048 -5.37731,8.21343 -1.96165,-0.6226 -4.22969,0.41289 -7.38398,3.37119 -2.50398,2.3484 -7.6421,6.34655 -11.41805,8.88478 -5.36806,3.60848 -6.86536,5.46985 -6.86536,8.53463 0,3.2653 4.60022,28.78016 11.38566,63.14977 0.7847,3.97469 1.81105,10.58632 2.2808,14.69251 0.95032,8.30708 1.97913,7.48565 -12.49004,9.97235 -5.2662,0.90506 -5.33847,0.85148 -6.2689,-4.64792 -2.26635,-13.39536 -4.0715,-13.73044 -15.46433,-2.87063 -9.53317,9.08717 -11.29642,14.006 -10.69213,29.82723 0.25902,6.78104 -0.25484,11.92248 -1.37229,13.73072 -2.07387,3.356 -0.36655,9.39472 2.65613,9.39472 1.05903,0 2.71348,0.788 3.67656,1.75104 0.96307,0.96312 4.25888,1.57 7.32402,1.34864 3.80503,-0.27472 5.82646,0.25824 6.372,1.67984 0.43945,1.1452 3.05569,2.50552 5.81383,3.02296 3.39572,0.63704 5.268,1.90896 5.79899,3.93944 0.69765,2.66784 1.47256,2.88456 7.02461,1.96456 3.43227,-0.5688 7.42571,-1.65704 8.87433,-2.4184 1.73611,-0.9124 4.94166,-0.7928 9.40478,0.35112 9.41202,2.41216 20.36504,-0.59064 23.125,-6.33984 2.08732,-4.34808 13.9704,-13.376 23.73392,-18.03144 1.71184,-0.81616 1.26176,11.00632 -0.45944,12.07008 -0.84896,0.52464 -1.35936,3.09192 -1.13424,5.70496 0.2252,2.61312 -0.4576,5.79568 -1.5172,7.07248 -1.20424,1.45096 -1.56776,3.8148 -0.96952,6.30432 0.52648,2.19064 1.15,5.79064 1.3856,8.00008 0.23568,2.20936 2.13016,5.79312 4.20992,7.964 2.74504,2.8652 3.40832,4.53712 2.42,6.10032 -1.8012,2.8488 -1.76928,7.71576 0.0624,9.5476 1.75352,1.75352 3.14328,28.35752 1.42592,27.29616 -1.56512,-0.96736 -15.90232,6.25592 -15.90232,8.01184 0,0.7468 -2.43898,2.50464 -5.41999,3.90616 -5.77794,2.71664 -6.23117,3.98048 -8.51661,23.74776 -0.46499,4.02192 -1.8992,7.77256 -3.53991,9.25744 -1.51701,1.37288 -2.75821,3.6192 -2.75821,4.99192 0,1.37264 6.29087,8.50984 13.97973,15.86045 l 13.97971,13.3647 8.93032,-0.834 c 18.81008,-1.7564 27.3268,-8.6427 29.07392,-23.50779 0.53904,-4.58624 2.49512,-10.98776 4.34696,-14.2256 1.85176,-3.23784 3.37472,-6.7696 3.38424,-7.84832 0.0104,-1.0788 1.90552,-5.9568 4.21312,-10.84008 2.3076,-4.88328 4.42144,-10.12688 4.69736,-11.6524 0.27592,-1.52552 2.39456,-3.82256 4.70808,-5.10448 2.50752,-1.38936 4.93496,-4.43496 6.01016,-7.54056 1.5832,-4.57312 1.46272,-5.77056 -0.98608,-9.7972 -3.3372,-5.4876 -2.55624,-7.30416 3.14016,-7.30416 4.33576,0 10.03208,-4.3164 10.03208,-7.60168 0,-1.0012 1.3008,-2.63272 2.89072,-3.6256 3.2788,-2.04768 4.08216,-11.57392 1.21752,-14.43848 -1.26728,-1.26736 -1.2392,-2.19608 0.11592,-3.8288 0.98392,-1.1856 1.62392,-4.62776 1.42208,-7.64928 -0.22224,-3.328 0.79856,-7.7728 2.58944,-11.27504 1.62592,-3.17976 3.45024,-7.40736 4.054,-9.39472 0.60376,-1.98736 2.3132,-5.33976 3.7988,-7.44976 1.48552,-2.11008 2.71096,-5.36208 2.7232,-7.22672 0.0112,-1.86464 0.61784,-4.33192 1.346,-5.48288 1.02448,-1.61928 1.55152,-1.12896 2.3304,2.168 1.65784,7.018 10.48144,19.33136 14.43896,20.1496 1.9484,0.40288 5.01984,1.03272 6.82544,1.39976 3.11656,0.63344 3.25576,1.20496 2.74712,11.2784 l -0.53592,10.6112 5.75888,2.59688 c 9.17192,4.13592 11.35032,13.8704 3.10408,13.8704 -4.87488,0 -9.94976,6.08912 -11.44368,13.73072 -0.77704,3.97464 -2.40232,11.77952 -3.61168,17.34408 -2.2752,10.46832 -1.40696,21.54968 2.21936,28.32552 1.31472,2.45664 1.08496,3.60488 -1.22816,6.1376 -4.0828,4.47056 -7.02712,10.88072 -8.17664,17.80168 -0.54936,3.30768 -2.31888,7.20856 -3.93224,8.66864 -6.69224,6.0564 -8.35288,13.53367 -5.38208,24.23387 1.87312,6.7464 12.7076,18.0397 29.12216,30.3552 6.78936,5.094 11.20136,9.4402 11.20136,11.0344 0,1.4468 0.72256,3.0769 1.60568,3.6228 1.0468,0.6468 1.29968,3.8212 0.72656,9.1186 -1.40784,13.0112 -2.58888,20.4117 -3.25768,20.4117 -0.34192,0 -2.20152,-1.0352 -4.13248,-2.3004 -1.93096,-1.2652 -7.34864,-2.6484 -12.0392,-3.0737 l -8.52832,-0.7734 -4.4812,6.5132 c -5.14032,7.4712 -7.87352,8.9668 -12.17744,6.6634 -2.5516,-1.3656 -3.47248,-1.1114 -5.63056,1.5537 -1.41904,1.7524 -2.99248,5.3849 -3.49672,8.0724 -0.54112,2.8845 -2.35792,5.8305 -4.43488,7.1914 -2.99584,1.963 -3.3788,3.0487 -2.57904,7.3119 0.58904,3.1397 0.27816,5.8032 -0.83368,7.143 -1.12232,1.3522 -1.42232,4.0055 -0.8176,7.2294 0.66416,3.54 0.27336,6.0669 -1.28144,8.2868 -1.2304,1.7565 -2.23704,5.212 -2.23704,7.6788 0,2.8539 -1.24984,5.6594 -3.4364,7.7136 l -3.4364,3.2283 -0.96288,-5.1327 c -0.72256,-3.8517 -1.85376,-5.3564 -4.53176,-6.0285 -3.85504,-0.9676 -7.86728,1.4104 -7.86728,4.6627 0,3.0502 -5.91824,2.3663 -9.62048,-1.1118 -2.60784,-2.45 -3.73376,-2.7452 -5.35088,-1.4031 -1.63736,1.3589 -2.87648,0.8219 -6.18032,-2.6785 -2.2728,-2.408 -5.01704,-4.3783 -6.0984,-4.3783 -1.08856,0 -1.62048,-0.9004 -1.19176,-2.0176 4.07832,-10.6278 4.27432,-13.6101 1.2196,-18.5527 -5.1252,-8.2928 -7.68584,-9.8469 -15.54296,-9.433 l -7.09904,0.3739 0.71312,-7.2267 c 0.39216,-3.9748 0.71736,-12.7327 0.72264,-19.4621 l 0.0104,-12.2354 -7.22664,-2.7263 c -4.16928,-1.5729 -11.00328,-2.7406 -16.15324,-2.76 -11.62787,-0.044 -19.82208,3.9142 -31.86667,15.3929 l -9.21577,8.7828 1.54788,10.7283 c 0.85136,5.9006 2.09744,11.429 2.76911,12.2854 1.36356,1.7386 2.87733,7.8311 3.70933,14.929 0.46839,3.9959 0.022,4.8326 -2.9808,5.5862 -5.86014,1.4708 -6.71344,5.1182 -3.2902,14.0637 2.1734,5.6795 2.68668,8.9682 1.79919,11.5277 -1.21872,3.5147 -1.34206,3.5408 -6.64849,1.4079 -4.29731,-1.7273 -5.74982,-3.3182 -7.07871,-7.7537 -3.71997,-12.4161 -13.59106,-15.4053 -22.63707,-6.855 -13.99777,13.2307 -17.73585,14.147 -28.51108,6.9886 -4.74836,-3.1545 -10.34632,-5.7539 -12.43989,-5.7764 -3.98339,-0.042 -10.6477,6.4579 -16.42825,16.0247 -3.39566,5.6198 -11.98688,11.8197 -14.854,10.7196 -1.10261,-0.423 -6.84414,-0.769 -12.75949,-0.769 l -10.75516,0 2.33157,-3.5584 c 1.91522,-2.923 2.0405,-4.4403 0.70157,-8.4973 -3.87034,-11.7272 -11.08975,-12.2374 -19.88733,-1.4055 -7.80246,9.6067 -11.99305,13.4079 -15.84798,14.3755 -5.07496,1.2737 -9.69881,-0.4044 -11.31404,-4.106 -1.7096,-3.918 -10.55109,-6.6342 -22.16476,-6.8093 -7.06152,-0.1066 -8.08879,0.31 -12.18999,4.9423 l -4.47863,5.0587 -15.18825,0 -15.18825,0 -9.09068,9.756 c -4.99987,5.3659 -9.50446,11.0569 -10.0102,12.6467 -0.50573,1.59 -1.81277,3.9116 -2.90452,5.1592 -1.09176,1.2477 -2.64844,5.7668 -3.45931,10.0426 -1.66969,8.8042 -3.30799,10.4898 -9.15454,9.4192 -5.17828,-0.9483 -15.24207,1.5646 -19.02472,4.7505 -3.31015,2.7879 -14.40111,17.3989 -15.31935,20.1815 -0.49785,1.5086 -1.09322,1.5054 -3.1753,-0.017 l 0,-10e-5 z"
     id="path6482"
     inkscape:connector-curvature="0" />
</svg>
