<?xml version="1.0" encoding="UTF-8" standalone="no"?>
<!DOCTYPE svg PUBLIC "-//W3C//DTD SVG 20010904//EN"
              "http://www.w3.org/TR/2001/REC-SVG-20010904/DTD/svg10.dtd">

<svg xmlns="http://www.w3.org/2000/svg"
     width="9.62222in" height="1.1in"
     viewBox="0 0 866 99">
  <path id="Selection"
        fill="none" stroke="black" stroke-width="1"
        d="M 364.00,25.00
           C 364.00,25.00 363.00,26.00 363.00,26.00
             363.00,26.00 363.00,25.00 363.00,25.00
             363.00,25.00 364.00,25.00 364.00,25.00 Z
           M 423.00,34.00
           C 416.68,34.14 404.75,35.28 399.00,33.00
             399.00,33.00 423.00,34.00 423.00,34.00 Z
           M 394.00,35.00
           C 394.00,35.00 382.00,34.00 382.00,34.00
             382.00,34.00 394.00,35.00 394.00,35.00 Z
           M 379.00,36.00
           C 379.00,36.00 371.00,35.00 371.00,35.00
             371.00,35.00 379.00,36.00 379.00,36.00 Z
           M 369.00,37.00
           C 369.00,37.00 363.00,36.00 363.00,36.00
             363.00,36.00 369.00,37.00 369.00,37.00 Z
           M 393.00,40.00
           C 393.00,40.00 391.00,42.00 391.00,42.00
             391.00,42.00 393.00,40.00 393.00,40.00 Z
           M 345.00,42.00
           C 345.00,42.00 340.00,48.00 340.00,48.00
             340.03,44.29 340.92,42.06 345.00,42.00 Z
           M 403.00,44.00
           C 403.00,44.00 398.00,43.00 398.00,43.00
             398.00,43.00 403.00,44.00 403.00,44.00 Z
           M 410.00,45.00
           C 410.00,45.00 405.00,44.00 405.00,44.00
             405.00,44.00 410.00,45.00 410.00,45.00 Z
           M 418.00,46.00
           C 418.00,46.00 412.00,45.00 412.00,45.00
             412.00,45.00 418.00,46.00 418.00,46.00 Z
           M 426.00,47.00
           C 426.00,47.00 420.00,46.00 420.00,46.00
             420.00,46.00 426.00,47.00 426.00,47.00 Z
           M 433.00,48.00
           C 433.00,48.00 428.00,47.00 428.00,47.00
             428.00,47.00 433.00,48.00 433.00,48.00 Z
           M 441.00,49.00
           C 441.00,49.00 436.00,48.00 436.00,48.00
             436.00,48.00 441.00,49.00 441.00,49.00 Z
           M 448.00,50.00
           C 448.00,50.00 443.00,49.00 443.00,49.00
             443.00,49.00 448.00,50.00 448.00,50.00 Z
           M 456.00,51.00
           C 456.00,51.00 450.00,50.00 450.00,50.00
             450.00,50.00 456.00,51.00 456.00,51.00 Z
           M 469.00,53.00
           C 469.00,53.00 464.00,52.00 464.00,52.00
             464.00,52.00 469.00,53.00 469.00,53.00 Z
           M 368.00,54.00
           C 368.00,54.00 363.00,53.00 363.00,53.00
             363.00,53.00 368.00,54.00 368.00,54.00 Z
           M 374.00,55.00
           C 374.00,55.00 369.00,54.00 369.00,54.00
             369.00,54.00 374.00,55.00 374.00,55.00 Z
           M 380.00,56.00
           C 380.00,56.00 375.00,55.00 375.00,55.00
             375.00,55.00 380.00,56.00 380.00,56.00 Z
           M 507.00,62.00
           C 507.00,62.00 502.00,60.00 502.00,60.00
             502.00,60.00 507.00,62.00 507.00,62.00 Z
           M 512.00,63.00
           C 512.00,63.00 511.00,64.00 511.00,64.00
             511.00,64.00 511.00,63.00 511.00,63.00
             511.00,63.00 512.00,63.00 512.00,63.00 Z
           M 514.00,64.00
           C 514.00,64.00 513.00,65.00 513.00,65.00
             513.00,65.00 513.00,64.00 513.00,64.00
             513.00,64.00 514.00,64.00 514.00,64.00 Z
           M 421.00,65.00
           C 421.00,65.00 420.00,66.00 420.00,66.00
             420.00,66.00 420.00,65.00 420.00,65.00
             420.00,65.00 421.00,65.00 421.00,65.00 Z
           M 521.00,70.00
           C 521.00,70.00 515.00,65.00 515.00,65.00
             515.00,65.00 521.00,70.00 521.00,70.00 Z
           M 426.00,69.00
           C 426.00,69.00 422.00,66.00 422.00,66.00
             422.00,66.00 426.00,69.00 426.00,69.00 Z
           M 421.00,74.00
           C 421.00,74.00 426.00,70.00 426.00,70.00
             425.96,73.34 424.16,74.32 421.00,74.00 Z
           M 521.00,76.00
           C 521.00,76.00 521.00,71.00 521.00,71.00
             521.00,71.00 521.00,76.00 521.00,76.00 Z
           M 420.00,76.00
           C 420.00,76.00 415.00,76.00 415.00,76.00
             415.00,76.00 420.00,76.00 420.00,76.00 Z
           M 515.00,84.00
           C 515.00,84.00 520.00,77.00 520.00,77.00
             519.70,80.71 517.83,81.85 515.00,84.00 Z
           M 380.00,85.00
           C 380.00,85.00 375.00,84.00 375.00,84.00
             375.00,84.00 380.00,85.00 380.00,85.00 Z
           M 511.00,87.00
           C 511.00,87.00 511.00,86.00 511.00,86.00
             511.00,86.00 513.00,84.00 513.00,84.00
             513.00,84.00 511.00,87.00 511.00,87.00 Z
           M 374.00,86.00
           C 374.00,86.00 369.00,85.00 369.00,85.00
             369.00,85.00 374.00,86.00 374.00,86.00 Z
           M 367.00,87.00
           C 367.00,87.00 362.00,86.00 362.00,86.00
             362.00,86.00 367.00,87.00 367.00,87.00 Z
           M 361.00,88.00
           C 361.00,88.00 356.00,87.00 356.00,87.00
             356.00,87.00 361.00,88.00 361.00,88.00 Z
           M 510.00,88.00
           C 510.00,88.00 506.00,89.00 506.00,89.00
             506.00,89.00 509.00,87.00 509.00,87.00
             509.00,87.00 510.00,88.00 510.00,88.00 Z
           M 354.00,89.00
           C 354.00,89.00 349.00,88.00 349.00,88.00
             349.00,88.00 354.00,89.00 354.00,89.00 Z
           M 347.00,90.00
           C 347.00,90.00 342.00,89.00 342.00,89.00
             342.00,89.00 347.00,90.00 347.00,90.00 Z
           M 340.00,91.00
           C 340.00,91.00 335.00,90.00 335.00,90.00
             335.00,90.00 340.00,91.00 340.00,91.00 Z
           M 505.00,91.00
           C 501.89,92.76 499.66,94.49 496.00,94.00
             496.00,94.00 504.00,90.00 504.00,90.00
             504.00,90.00 505.00,91.00 505.00,91.00 Z
           M 333.00,92.00
           C 333.00,92.00 328.00,91.00 328.00,91.00
             328.00,91.00 333.00,92.00 333.00,92.00 Z
           M 326.00,93.00
           C 326.00,93.00 320.00,92.00 320.00,92.00
             320.00,92.00 326.00,93.00 326.00,93.00 Z
           M 318.00,94.00
           C 318.00,94.00 313.00,93.00 313.00,93.00
             313.00,93.00 318.00,94.00 318.00,94.00 Z
           M 311.00,95.00
           C 311.00,95.00 306.00,94.00 306.00,94.00
             306.00,94.00 311.00,95.00 311.00,95.00 Z
           M 304.00,96.00
           C 304.00,96.00 298.00,95.00 298.00,95.00
             298.00,95.00 304.00,96.00 304.00,96.00 Z
           M 495.00,95.00
           C 495.00,95.00 494.00,96.00 494.00,96.00
             494.00,96.00 494.00,95.00 494.00,95.00
             494.00,95.00 495.00,95.00 495.00,95.00 Z
           M 296.00,97.00
           C 296.00,97.00 291.00,96.00 291.00,96.00
             291.00,96.00 296.00,97.00 296.00,97.00 Z
           M 493.00,97.00
           C 493.00,97.00 489.00,97.00 489.00,97.00
             489.00,97.00 493.00,97.00 493.00,97.00 Z
           M 289.00,98.00
           C 289.00,98.00 284.00,97.00 284.00,97.00
             284.00,97.00 289.00,98.00 289.00,98.00 Z
           M 282.00,99.00
           C 282.00,99.00 277.00,98.00 277.00,98.00
             277.00,98.00 282.00,99.00 282.00,99.00 Z" />
</svg>
